<?xml version="1.0" encoding="UTF-8" standalone="no"?>
<!-- Created with Inkscape (http://www.inkscape.org/) -->
<svg xmlns:inkscape="http://www.inkscape.org/namespaces/inkscape" xmlns:rdf="http://www.w3.org/1999/02/22-rdf-syntax-ns#" xmlns="http://www.w3.org/2000/svg" xmlns:xlink="http://www.w3.org/1999/xlink" xmlns:ns1="http://sozi.baierouge.fr" xmlns:cc="http://creativecommons.org/ns#" xmlns:sodipodi="http://sodipodi.sourceforge.net/DTD/sodipodi-0.dtd" xmlns:dc="http://purl.org/dc/elements/1.1/" id="svg2" xml:space="preserve" viewBox="0 0 24.15 39.963" version="1.1" inkscape:version="0.91 r13725">
  <defs id="defs6">
    <linearGradient id="linearGradient24" y2="22.981" gradientUnits="userSpaceOnUse" x2="24.137" gradientTransform="matrix(.8 0 0 -.8 1.5582e-7 31.971)" y1="22.981" x1="-0.0376">
      <stop id="stop26" style="stop-color:#de632c" offset="0"/>
      <stop id="stop28" style="stop-color:#4f200b" offset="1"/>
    </linearGradient>
    <linearGradient id="linearGradient42" y2="22.824" gradientUnits="userSpaceOnUse" x2="23.35" gradientTransform="matrix(.8 0 0 -.8 1.5582e-7 31.971)" y1="22.824" x1=".64990">
      <stop id="stop44" style="stop-color:#b34312" offset="0"/>
      <stop id="stop46" style="stop-color:#5e260d" offset="1"/>
    </linearGradient>
    <clipPath id="clipPath54">
      <path id="path56" d="m6 19.971h2v2h-2v-2z" inkscape:connector-curvature="0"/>
    </clipPath>
    <mask id="mask58">
      <g id="g60">
        <g id="g62" clip-path="url(#clipPath54)">
          <path id="path64" style="fill:#000000;fill-opacity:.57810" d="m6 19.971h2v2h-2v-2z" inkscape:connector-curvature="0"/>
        </g>
      </g>
    </mask>
    <clipPath id="clipPath70">
      <path id="path72" d="m6 19.971h2v2h-2v-2z" inkscape:connector-curvature="0"/>
    </clipPath>
    <clipPath id="clipPath74">
      <path id="path76" d="m6 20h2v2h-2v-2z" inkscape:connector-curvature="0"/>
    </clipPath>
    <clipPath id="clipPath98">
      <path id="path100" d="m10 19.971h2v2h-2v-2z" inkscape:connector-curvature="0"/>
    </clipPath>
    <mask id="mask102">
      <g id="g104">
        <g id="g106" clip-path="url(#clipPath98)">
          <path id="path108" style="fill:#000000;fill-opacity:.57810" d="m10 19.971h2v2h-2v-2z" inkscape:connector-curvature="0"/>
        </g>
      </g>
    </mask>
    <clipPath id="clipPath114">
      <path id="path116" d="m10 19.971h2v2h-2v-2z" inkscape:connector-curvature="0"/>
    </clipPath>
    <clipPath id="clipPath118">
      <path id="path120" d="m10 20h2v2h-2v-2z" inkscape:connector-curvature="0"/>
    </clipPath>
    <clipPath id="clipPath142">
      <path id="path144" d="m14 18.971h3v3h-3v-3z" inkscape:connector-curvature="0"/>
    </clipPath>
    <mask id="mask146">
      <g id="g148">
        <g id="g150" clip-path="url(#clipPath142)">
          <path id="path152" style="fill:#000000;fill-opacity:.57810" d="m14 18.971h3v3h-3v-3z" inkscape:connector-curvature="0"/>
        </g>
      </g>
    </mask>
    <clipPath id="clipPath158">
      <path id="path160" d="m14 18.971h3v3h-3v-3z" inkscape:connector-curvature="0"/>
    </clipPath>
    <clipPath id="clipPath162">
      <path id="path164" d="m14 19h3v3h-3v-3z" inkscape:connector-curvature="0"/>
    </clipPath>
    <clipPath id="clipPath186">
      <path id="path188" d="m14 16.971h3v2h-3v-2z" inkscape:connector-curvature="0"/>
    </clipPath>
    <mask id="mask190">
      <g id="g192">
        <g id="g194" clip-path="url(#clipPath186)">
          <path id="path196" style="fill:#000000;fill-opacity:.57810" d="m14 16.971h3v2h-3v-2z" inkscape:connector-curvature="0"/>
        </g>
      </g>
    </mask>
    <clipPath id="clipPath202">
      <path id="path204" d="m14 16.971h3v2h-3v-2z" inkscape:connector-curvature="0"/>
    </clipPath>
    <clipPath id="clipPath206">
      <path id="path208" d="m14 17h3v2h-3v-2z" inkscape:connector-curvature="0"/>
    </clipPath>
    <clipPath id="clipPath230">
      <path id="path232" d="m17 17.971h2v2h-2v-2z" inkscape:connector-curvature="0"/>
    </clipPath>
    <mask id="mask234">
      <g id="g236">
        <g id="g238" clip-path="url(#clipPath230)">
          <path id="path240" style="fill:#000000;fill-opacity:.57810" d="m17 17.971h2v2h-2v-2z" inkscape:connector-curvature="0"/>
        </g>
      </g>
    </mask>
    <clipPath id="clipPath246">
      <path id="path248" d="m17 17.971h2v2h-2v-2z" inkscape:connector-curvature="0"/>
    </clipPath>
    <clipPath id="clipPath250">
      <path id="path252" d="m17 18h2v2h-2v-2z" inkscape:connector-curvature="0"/>
    </clipPath>
    <clipPath id="clipPath274">
      <path id="path276" d="m11 15.971h3v4h-3v-4z" inkscape:connector-curvature="0"/>
    </clipPath>
    <mask id="mask278">
      <g id="g280">
        <g id="g282" clip-path="url(#clipPath274)">
          <path id="path284" style="fill:#000000;fill-opacity:.57810" d="m11 15.971h3v4h-3v-4z" inkscape:connector-curvature="0"/>
        </g>
      </g>
    </mask>
    <clipPath id="clipPath290">
      <path id="path292" d="m11 15.971h3v4h-3v-4z" inkscape:connector-curvature="0"/>
    </clipPath>
    <clipPath id="clipPath294">
      <path id="path296" d="m11 16h3v4h-3v-4z" inkscape:connector-curvature="0"/>
    </clipPath>
    <clipPath id="clipPath318">
      <path id="path320" d="m13 2.9706h3v4h-3v-4z" inkscape:connector-curvature="0"/>
    </clipPath>
    <mask id="mask322">
      <g id="g324">
        <g id="g326" clip-path="url(#clipPath318)">
          <path id="path328" style="fill:#000000;fill-opacity:.57810" d="m13 2.9706h3v4h-3v-4z" inkscape:connector-curvature="0"/>
        </g>
      </g>
    </mask>
    <clipPath id="clipPath334">
      <path id="path336" d="m13 2.9706h3v4h-3v-4z" inkscape:connector-curvature="0"/>
    </clipPath>
    <clipPath id="clipPath338">
      <path id="path340" d="m13 3h3v4h-3v-4z" inkscape:connector-curvature="0"/>
    </clipPath>
    <clipPath id="clipPath362">
      <path id="path364" d="m16 3.9706h3v2h-3v-2z" inkscape:connector-curvature="0"/>
    </clipPath>
    <mask id="mask366">
      <g id="g368">
        <g id="g370" clip-path="url(#clipPath362)">
          <path id="path372" style="fill:#000000;fill-opacity:.57810" d="m16 3.9706h3v2h-3v-2z" inkscape:connector-curvature="0"/>
        </g>
      </g>
    </mask>
    <clipPath id="clipPath378">
      <path id="path380" d="m16 3.9706h3v2h-3v-2z" inkscape:connector-curvature="0"/>
    </clipPath>
    <clipPath id="clipPath382">
      <path id="path384" d="m16 4h3v2h-3v-2z" inkscape:connector-curvature="0"/>
    </clipPath>
    <clipPath id="clipPath406">
      <path id="path408" d="m7 1.9706h4v2h-4v-2z" inkscape:connector-curvature="0"/>
    </clipPath>
    <mask id="mask410">
      <g id="g412">
        <g id="g414" clip-path="url(#clipPath406)">
          <path id="path416" style="fill:#000000;fill-opacity:.57810" d="m7 1.9706h4v2h-4v-2z" inkscape:connector-curvature="0"/>
        </g>
      </g>
    </mask>
    <clipPath id="clipPath422">
      <path id="path424" d="m7 1.9706h4v2h-4v-2z" inkscape:connector-curvature="0"/>
    </clipPath>
    <clipPath id="clipPath426">
      <path id="path428" d="m7 2h4v2h-4v-2z" inkscape:connector-curvature="0"/>
    </clipPath>
    <clipPath id="clipPath450">
      <path id="path452" d="m10 0.97062h4v3h-4v-3z" inkscape:connector-curvature="0"/>
    </clipPath>
    <mask id="mask454">
      <g id="g456">
        <g id="g458" clip-path="url(#clipPath450)">
          <path id="path460" style="fill:#000000;fill-opacity:.57810" d="m10 0.97062h4v3h-4v-3z" inkscape:connector-curvature="0"/>
        </g>
      </g>
    </mask>
    <clipPath id="clipPath466">
      <path id="path468" d="m10 0.97062h4v3h-4v-3z" inkscape:connector-curvature="0"/>
    </clipPath>
    <clipPath id="clipPath470">
      <path id="path472" d="m10 1h4v3h-4v-3z" inkscape:connector-curvature="0"/>
    </clipPath>
    <clipPath id="clipPath494">
      <path id="path496" d="m3 15.971h2v3h-2v-3z" inkscape:connector-curvature="0"/>
    </clipPath>
    <mask id="mask498">
      <g id="g500">
        <g id="g502" clip-path="url(#clipPath494)">
          <path id="path504" style="fill:#000000;fill-opacity:.57810" d="m3 15.971h2v3h-2v-3z" inkscape:connector-curvature="0"/>
        </g>
      </g>
    </mask>
    <clipPath id="clipPath510">
      <path id="path512" d="m3 15.971h2v3h-2v-3z" inkscape:connector-curvature="0"/>
    </clipPath>
    <clipPath id="clipPath514">
      <path id="path516" d="m3 16h2v3h-2v-3z" inkscape:connector-curvature="0"/>
    </clipPath>
    <clipPath id="clipPath538">
      <path id="path540" d="m3 21.971h3v2h-3v-2z" inkscape:connector-curvature="0"/>
    </clipPath>
    <mask id="mask542">
      <g id="g544">
        <g id="g546" clip-path="url(#clipPath538)">
          <path id="path548" style="fill:#000000;fill-opacity:.57810" d="m3 21.971h3v2h-3v-2z" inkscape:connector-curvature="0"/>
        </g>
      </g>
    </mask>
    <clipPath id="clipPath554">
      <path id="path556" d="m3 21.971h3v2h-3v-2z" inkscape:connector-curvature="0"/>
    </clipPath>
    <clipPath id="clipPath558">
      <path id="path560" d="m3 22h3v2h-3v-2z" inkscape:connector-curvature="0"/>
    </clipPath>
    <clipPath id="clipPath582">
      <path id="path584" d="m7 21.971h3v2h-3v-2z" inkscape:connector-curvature="0"/>
    </clipPath>
    <mask id="mask586">
      <g id="g588">
        <g id="g590" clip-path="url(#clipPath582)">
          <path id="path592" style="fill:#000000;fill-opacity:.57810" d="m7 21.971h3v2h-3v-2z" inkscape:connector-curvature="0"/>
        </g>
      </g>
    </mask>
    <clipPath id="clipPath598">
      <path id="path600" d="m7 21.971h3v2h-3v-2z" inkscape:connector-curvature="0"/>
    </clipPath>
    <clipPath id="clipPath602">
      <path id="path604" d="m7 22h3v2h-3v-2z" inkscape:connector-curvature="0"/>
    </clipPath>
    <clipPath id="clipPath626">
      <path id="path628" d="m2 2.9706h2v3h-2v-3z" inkscape:connector-curvature="0"/>
    </clipPath>
    <mask id="mask630">
      <g id="g632">
        <g id="g634" clip-path="url(#clipPath626)">
          <path id="path636" style="fill:#000000;fill-opacity:.57810" d="m2 2.9706h2v3h-2v-3z" inkscape:connector-curvature="0"/>
        </g>
      </g>
    </mask>
    <clipPath id="clipPath642">
      <path id="path644" d="m2 2.9706h2v3h-2v-3z" inkscape:connector-curvature="0"/>
    </clipPath>
    <clipPath id="clipPath646">
      <path id="path648" d="m2 3h2v3h-2v-3z" inkscape:connector-curvature="0"/>
    </clipPath>
    <linearGradient id="linearGradient698" y2="26.035" gradientUnits="userSpaceOnUse" x2="23.262" gradientTransform="matrix(.8 0 0 -.8 1.5582e-7 31.971)" y1="26.035" x1=".73730">
      <stop id="stop700" style="stop-color:#4bcc2b" offset="0"/>
      <stop id="stop702" style="stop-color:#48c329" offset=".1804"/>
      <stop id="stop704" style="stop-color:#3faa24" offset=".47840"/>
      <stop id="stop706" style="stop-color:#31821c" offset="0.851"/>
      <stop id="stop708" style="stop-color:#2b7018" offset="1"/>
    </linearGradient>
    <linearGradient id="linearGradient722" y2="25.332" gradientUnits="userSpaceOnUse" x2="23.225" gradientTransform="matrix(.8 0 0 -.8 1.5582e-7 31.971)" y1="25.332" x1="5.5752">
      <stop id="stop724" style="stop-color:#cccccc" offset="0"/>
      <stop id="stop726" style="stop-color:#c3c3c3" offset=".1804"/>
      <stop id="stop728" style="stop-color:#aaaaaa" offset=".47840"/>
      <stop id="stop730" style="stop-color:#828282" offset="0.851"/>
      <stop id="stop732" style="stop-color:#707070" offset="1"/>
    </linearGradient>
    <linearGradient id="linearGradient746" y2="25.85" gradientUnits="userSpaceOnUse" x2="23.25" gradientTransform="matrix(.8 0 0 -.8 1.5582e-7 31.971)" y1="25.85" x1="16.55">
      <stop id="stop748" style="stop-color:#bd4715" offset="0"/>
      <stop id="stop750" style="stop-color:#ba4816" offset="1"/>
    </linearGradient>
    <linearGradient id="linearGradient764" y2="22.977" gradientUnits="userSpaceOnUse" x2="14.638" gradientTransform="matrix(.8 0 0 -.8 1.5582e-7 31.971)" y1="22.977" x1="7.6626">
      <stop id="stop766" style="stop-color:#cca92b" offset="0"/>
      <stop id="stop768" style="stop-color:#c3a129" offset=".1804"/>
      <stop id="stop770" style="stop-color:#aa8d24" offset=".47840"/>
      <stop id="stop772" style="stop-color:#826c1c" offset="0.851"/>
      <stop id="stop774" style="stop-color:#705d18" offset="1"/>
    </linearGradient>
    <linearGradient id="linearGradient788" y2="23.127" gradientUnits="userSpaceOnUse" x2="13.287" gradientTransform="matrix(.8 0 0 -.8 1.5582e-7 31.971)" y1="23.127" x1="8.1123">
      <stop id="stop790" style="stop-color:#cc5b2b" offset="0"/>
      <stop id="stop792" style="stop-color:#c35829" offset=".1804"/>
      <stop id="stop794" style="stop-color:#aa5024" offset=".47840"/>
      <stop id="stop796" style="stop-color:#82431c" offset="0.851"/>
      <stop id="stop798" style="stop-color:#703d18" offset="1"/>
    </linearGradient>
    <clipPath id="clipPath806">
      <path id="path808" d="m1 0.97062h5v26h-5v-26z" inkscape:connector-curvature="0"/>
    </clipPath>
    <mask id="mask810">
      <g id="g812">
        <g id="g814" clip-path="url(#clipPath806)">
          <path id="path816" style="fill:#000000;fill-opacity:.57810" d="m1 0.97062h5v26h-5v-26z" inkscape:connector-curvature="0"/>
        </g>
      </g>
    </mask>
    <clipPath id="clipPath822">
      <path id="path824" d="m1 0.97062h5v26h-5v-26z" inkscape:connector-curvature="0"/>
    </clipPath>
    <clipPath id="clipPath826">
      <path id="path828" d="m1 1h5v26h-5v-26z" inkscape:connector-curvature="0"/>
    </clipPath>
    <linearGradient id="linearGradient834" y2="-15752" gradientUnits="userSpaceOnUse" x2="-520.78" gradientTransform="matrix(.05568 -.79808 .79808 .05568 12605 465.78)" y1="-15752" x1="-545.94">
      <stop id="stop836" style="stop-color:#ffffff" offset="0"/>
      <stop id="stop838" style="stop-color:#000000" offset="1"/>
    </linearGradient>
    <clipPath id="clipPath866">
      <path id="path868" d="m13 0.97062h5v26h-5v-26z" inkscape:connector-curvature="0"/>
    </clipPath>
    <mask id="mask870">
      <g id="g872">
        <g id="g874" clip-path="url(#clipPath866)">
          <path id="path876" style="fill:#000000;fill-opacity:.21090" d="m13 0.97062h5v26h-5v-26z" inkscape:connector-curvature="0"/>
        </g>
      </g>
    </mask>
    <clipPath id="clipPath882">
      <path id="path884" d="m13 0.97062h5v26h-5v-26z" inkscape:connector-curvature="0"/>
    </clipPath>
    <clipPath id="clipPath886">
      <path id="path888" d="m13 1h5v26h-5v-26z" inkscape:connector-curvature="0"/>
    </clipPath>
    <linearGradient id="linearGradient894" y2="-2.3805" gradientUnits="userSpaceOnUse" x2="2.5161" gradientTransform="matrix(.8 0 0 .8 13.48 26.96)" y1="-27.48" x1="4.2661">
      <stop id="stop896" style="stop-color:#ffffff" offset="0"/>
      <stop id="stop898" style="stop-color:#000000" offset="1"/>
    </linearGradient>
    <clipPath id="clipPath926">
      <path id="path928" d="m3 23.971h14v4h-14v-4z" inkscape:connector-curvature="0"/>
    </clipPath>
    <mask id="mask930">
      <g id="g932">
        <g id="g934" clip-path="url(#clipPath926)">
          <path id="path936" style="fill:#000000;fill-opacity:.67190" d="m3 23.971h14v4h-14v-4z" inkscape:connector-curvature="0"/>
        </g>
      </g>
    </mask>
    <clipPath id="clipPath942">
      <path id="path944" d="m3 23.971h14v4h-14v-4z" inkscape:connector-curvature="0"/>
    </clipPath>
    <clipPath id="clipPath946">
      <path id="path948" d="m3 24h14v4h-14v-4z" inkscape:connector-curvature="0"/>
    </clipPath>
    <linearGradient id="linearGradient976" y2="6.0498" gradientUnits="userSpaceOnUse" x2="20.775" gradientTransform="matrix(.8 0 0 -.8 1.5582e-7 31.971)" y1="6.0498" x1="3.2998">
      <stop id="stop978" style="stop-color:#c44822" offset="0"/>
      <stop id="stop980" style="stop-color:#96301a" offset="1"/>
    </linearGradient>
    <linearGradient id="linearGradient994" y2="5.5498" gradientUnits="userSpaceOnUse" x2="21.2" gradientTransform="matrix(.8 0 0 -.8 1.5582e-7 31.971)" y1="5.5498" x1="3">
      <stop id="stop996" style="stop-color:#50d92e" offset="0"/>
      <stop id="stop998" style="stop-color:#4dd02c" offset=".1451"/>
      <stop id="stop1000" style="stop-color:#44b727" offset=".3804"/>
      <stop id="stop1002" style="stop-color:#358f1f" offset=".67840"/>
      <stop id="stop1004" style="stop-color:#235c14" offset="1"/>
    </linearGradient>
    <linearGradient id="linearGradient1020" y2="4.2998" gradientUnits="userSpaceOnUse" x2="20.887" gradientTransform="matrix(.8 0 0 -.8 1.5582e-7 31.971)" y1="4.2998" x1="3.2124">
      <stop id="stop1022" style="stop-color:#4bcc2b" offset="0"/>
      <stop id="stop1024" style="stop-color:#48c329" offset=".1804"/>
      <stop id="stop1026" style="stop-color:#3faa24" offset=".47840"/>
      <stop id="stop1028" style="stop-color:#31821c" offset="0.851"/>
      <stop id="stop1030" style="stop-color:#2b7018" offset="1"/>
    </linearGradient>
    <linearGradient id="linearGradient1044" y2="-2.5806" gradientUnits="userSpaceOnUse" x2="-3.3813" gradientTransform="matrix(-.79784 -.05872 -.05872 .79784 .000032070 31.971)" y1="-2.5806" x1="-19.399">
      <stop id="stop1046" style="stop-color:#4bcc2b" offset="0"/>
      <stop id="stop1048" style="stop-color:#50cf2d" offset="1"/>
    </linearGradient>
    <clipPath id="clipPath1056">
      <path id="path1058" d="m3 24.971h9v2h-9v-2z" inkscape:connector-curvature="0"/>
    </clipPath>
    <mask id="mask1060">
      <g id="g1062">
        <g id="g1064" clip-path="url(#clipPath1056)">
          <path id="path1066" style="fill:#000000;fill-opacity:.48050" d="m3 24.971h9v2h-9v-2z" inkscape:connector-curvature="0"/>
        </g>
      </g>
    </mask>
    <clipPath id="clipPath1072">
      <path id="path1074" d="m3 24.971h9v2h-9v-2z" inkscape:connector-curvature="0"/>
    </clipPath>
    <clipPath id="clipPath1076">
      <path id="path1078" d="m3 25h9v2h-9v-2z" inkscape:connector-curvature="0"/>
    </clipPath>
  </defs>
  <g id="g10" transform="matrix(1.25 0 0 -1.25 0 39.963)">
    <g id="g12">
      <g id="g14">
        <g id="g16">
          <g id="g22">
            <path id="path30" style="fill-rule:evenodd;fill:url(#linearGradient24)" d="m17.84 24.209c0.535-0.586 0.906-1.145 1.121-1.68 0.238-0.637 0.359-1.519 0.359-2.637 0-1.015-0.093-3.589-0.281-7.722-0.16-3.52-0.281-5.801-0.359-6.84-0.082-0.852-0.453-1.68-1.121-2.48-0.879-1.094-2.172-1.879-3.879-2.36-1.387-0.375-2.735-0.531-4.039-0.48-1.309-0.051-2.641 0.105-4 0.48-1.707 0.481-3 1.266-3.879 2.36-0.668 0.8-1.043 1.628-1.121 2.48-0.055 0.695-0.172 2.977-0.36 6.84-0.187 4.055-0.281 6.629-0.281 7.722 0 1.118 0.121 2 0.359 2.637 0.215 0.535 0.586 1.094 1.121 1.68 0.985 1.066 1.708 2.055 2.161 2.961l6-0.32 6.039 0.32c0.32-0.774 1.039-1.758 2.16-2.961z" inkscape:connector-curvature="0"/>
          </g>
        </g>
      </g>
      <g id="g32">
        <g id="g34">
          <g id="g40">
            <path id="path48" style="fill-rule:evenodd;fill:url(#linearGradient42)" d="m17.281 24.049c0.508-0.586 0.852-1.133 1.039-1.637 0.242-0.641 0.36-1.496 0.36-2.562 0-1.067-0.094-3.559-0.282-7.481-0.16-3.785-0.277-6.012-0.359-6.68-0.051-0.824-0.387-1.64-1-2.441-0.851-1.066-2.078-1.824-3.68-2.277-1.093-0.321-2.347-0.481-3.757-0.481-1.442 0-2.707 0.16-3.801 0.481-1.602 0.453-2.813 1.211-3.641 2.277-0.613 0.777-0.961 1.59-1.039 2.441-0.055 0.907-0.16 3.133-0.32 6.68-0.188 4-0.281 6.496-0.281 7.481 0 1.066 0.121 1.921 0.359 2.562 0.187 0.504 0.535 1.051 1.043 1.637 1.012 1.148 1.68 2.109 2 2.883l5.68-0.321 5.636 0.321c0.348-0.829 1.028-1.79 2.043-2.883z" inkscape:connector-curvature="0"/>
          </g>
        </g>
      </g>
      <g id="g50">
        <g id="g66" mask="url(#mask58)">
          <g id="g78">
            <g id="g80" clip-path="url(#clipPath70)">
              <g id="g82" transform="translate(0 -.029375)">
                <g id="g86">
                  <g id="g88" clip-path="url(#clipPath74)">
                    <g id="g90">
                      <path id="path92" style="fill-rule:evenodd;fill:#60270d" d="m7.84 21.078c-0.106-0.426-0.375-0.691-0.801-0.797-0.344-0.109-0.531 0.067-0.559 0.52-0.027 0.48 0.133 0.746 0.481 0.801 0.664 0.078 0.961-0.094 0.879-0.524z" inkscape:connector-curvature="0"/>
                    </g>
                  </g>
                </g>
              </g>
            </g>
          </g>
        </g>
      </g>
      <g id="g94">
        <g id="g110" mask="url(#mask102)">
          <g id="g122">
            <g id="g124" clip-path="url(#clipPath114)">
              <g id="g126" transform="translate(0 -.029375)">
                <g id="g130">
                  <g id="g132" clip-path="url(#clipPath118)">
                    <g id="g134">
                      <path id="path136" style="fill-rule:evenodd;fill:#60270d" d="m10.801 21.039c0.719-0.078 0.933-0.266 0.64-0.559-0.269-0.265-0.546-0.402-0.839-0.402-0.215 0-0.321 0.176-0.321 0.524 0.024 0.32 0.199 0.464 0.52 0.437z" inkscape:connector-curvature="0"/>
                    </g>
                  </g>
                </g>
              </g>
            </g>
          </g>
        </g>
      </g>
      <g id="g138">
        <g id="g154" mask="url(#mask146)">
          <g id="g166">
            <g id="g168" clip-path="url(#clipPath158)">
              <g id="g170" transform="translate(0 -.029375)">
                <g id="g174">
                  <g id="g176" clip-path="url(#clipPath162)">
                    <g id="g178">
                      <path id="path180" style="fill-rule:evenodd;fill:#60270d" d="m15.238 21.398c0.215-0.023 0.414-0.144 0.602-0.359 0.238-0.238 0.348-0.519 0.32-0.84-0.027-0.32-0.172-0.547-0.441-0.679-0.184-0.079-0.559-0.161-1.117-0.239-0.668-0.054-0.735 0.399-0.204 1.36 0.137 0.214 0.243 0.425 0.321 0.64 0.082 0.106 0.254 0.145 0.519 0.117z" inkscape:connector-curvature="0"/>
                    </g>
                  </g>
                </g>
              </g>
            </g>
          </g>
        </g>
      </g>
      <g id="g182">
        <g id="g198" mask="url(#mask190)">
          <g id="g210">
            <g id="g212" clip-path="url(#clipPath202)">
              <g id="g214" transform="translate(0 -.029375)">
                <g id="g218">
                  <g id="g220" clip-path="url(#clipPath206)">
                    <g id="g222">
                      <path id="path224" style="fill-rule:evenodd;fill:#60270d" d="m15.199 18.078c0.375 0.137 0.656 0.082 0.84-0.156 0.133-0.188 0.176-0.375 0.121-0.563-0.055-0.132-0.199-0.226-0.441-0.281-0.266-0.051-0.504-0.023-0.719 0.082-0.238 0.106-0.348 0.254-0.32 0.442 0.027 0.21 0.199 0.371 0.519 0.476z" inkscape:connector-curvature="0"/>
                    </g>
                  </g>
                </g>
              </g>
            </g>
          </g>
        </g>
      </g>
      <g id="g226">
        <g id="g242" mask="url(#mask234)">
          <g id="g254">
            <g id="g256" clip-path="url(#clipPath246)">
              <g id="g258" transform="translate(0 -.029375)">
                <g id="g262">
                  <g id="g264" clip-path="url(#clipPath250)">
                    <g id="g266">
                      <path id="path268" style="fill-rule:evenodd;fill:#60270d" d="m18.039 19.199c0.293-0.426 0.309-0.664 0.039-0.719-0.238-0.027-0.531 0.067-0.879 0.282-0.238 0.133-0.199 0.304 0.121 0.519 0.321 0.184 0.559 0.16 0.719-0.082z" inkscape:connector-curvature="0"/>
                    </g>
                  </g>
                </g>
              </g>
            </g>
          </g>
        </g>
      </g>
      <g id="g270">
        <g id="g286" mask="url(#mask278)">
          <g id="g298">
            <g id="g300" clip-path="url(#clipPath290)">
              <g id="g302" transform="translate(0 -.029375)">
                <g id="g306">
                  <g id="g308" clip-path="url(#clipPath294)">
                    <g id="g310">
                      <path id="path312" style="fill-rule:evenodd;fill:#60270d" d="m13.441 18.16c-0.082-0.64-0.281-1.027-0.601-1.16-0.399-0.188-0.867-0.039-1.399 0.441-0.214 0.211-0.093 0.504 0.36 0.879 0.398 0.375 0.801 0.602 1.199 0.68s0.547-0.199 0.441-0.84z" inkscape:connector-curvature="0"/>
                    </g>
                  </g>
                </g>
              </g>
            </g>
          </g>
        </g>
      </g>
      <g id="g314">
        <g id="g330" mask="url(#mask322)">
          <g id="g342">
            <g id="g344" clip-path="url(#clipPath334)">
              <g id="g346" transform="translate(0 -.029375)">
                <g id="g350">
                  <g id="g352" clip-path="url(#clipPath338)">
                    <g id="g354">
                      <path id="path356" style="fill-rule:evenodd;fill:#60270d" d="m14.602 6.16c0.558 0 0.89-0.254 1-0.762 0.132-0.531-0.094-0.972-0.68-1.32-0.481-0.266-0.856-0.223-1.121 0.121-0.242 0.481-0.426 0.774-0.563 0.879-0.211 0.188-0.183 0.402 0.082 0.641 0.266 0.293 0.692 0.441 1.282 0.441z" inkscape:connector-curvature="0"/>
                    </g>
                  </g>
                </g>
              </g>
            </g>
          </g>
        </g>
      </g>
      <g id="g358">
        <g id="g374" mask="url(#mask366)">
          <g id="g386">
            <g id="g388" clip-path="url(#clipPath378)">
              <g id="g390" transform="translate(0 -.029375)">
                <g id="g394">
                  <g id="g396" clip-path="url(#clipPath382)">
                    <g id="g398">
                      <path id="path400" style="fill-rule:evenodd;fill:#60270d" d="m18.039 5.719c0.348-0.664-0.094-1.16-1.32-1.481-0.481-0.105-0.531 0.242-0.16 1.043 0.109 0.266 0.347 0.453 0.722 0.559 0.399 0.16 0.653 0.121 0.758-0.121z" inkscape:connector-curvature="0"/>
                    </g>
                  </g>
                </g>
              </g>
            </g>
          </g>
        </g>
      </g>
      <g id="g402">
        <g id="g418" mask="url(#mask410)">
          <g id="g430">
            <g id="g432" clip-path="url(#clipPath422)">
              <g id="g434" transform="translate(0 -.029375)">
                <g id="g438">
                  <g id="g440" clip-path="url(#clipPath426)">
                    <g id="g442">
                      <path id="path444" style="fill-rule:evenodd;fill:#60270d" d="m10.039 3.641c0.481-0.028 0.629-0.188 0.441-0.481-0.375-0.375-0.628-0.64-0.761-0.801-0.16-0.238-0.387-0.293-0.68-0.16-0.398 0.215-0.734 0.375-1 0.481-0.398 0.187-0.332 0.398 0.199 0.64 0.508 0.239 1.11 0.348 1.801 0.321z" inkscape:connector-curvature="0"/>
                    </g>
                  </g>
                </g>
              </g>
            </g>
          </g>
        </g>
      </g>
      <g id="g446">
        <g id="g462" mask="url(#mask454)">
          <g id="g474">
            <g id="g476" clip-path="url(#clipPath466)">
              <g id="g478" transform="translate(0 -.029375)">
                <g id="g482">
                  <g id="g484" clip-path="url(#clipPath470)">
                    <g id="g486">
                      <path id="path488" style="fill-rule:evenodd;fill:#60270d" d="m12.238 1.641c-0.293-0.188-0.519-0.254-0.679-0.2-0.184 0.106-0.387 0.211-0.598 0.321-0.32 0.133-0.359 0.359-0.121 0.679 0.238 0.348 0.613 0.532 1.121 0.559 1.758 0.055 1.851-0.398 0.277-1.359z" inkscape:connector-curvature="0"/>
                    </g>
                  </g>
                </g>
              </g>
            </g>
          </g>
        </g>
      </g>
      <g id="g490">
        <g id="g506" mask="url(#mask498)">
          <g id="g518">
            <g id="g520" clip-path="url(#clipPath510)">
              <g id="g522" transform="translate(0 -.029375)">
                <g id="g526">
                  <g id="g528" clip-path="url(#clipPath514)">
                    <g id="g530">
                      <path id="path532" style="fill-rule:evenodd;fill:#60270d" d="m4.879 17.762c-0.133-0.321-0.238-0.563-0.32-0.723-0.079-0.211-0.211-0.305-0.399-0.277-0.082 0.023-0.359 0.172-0.84 0.437-0.347 0.188-0.359 0.375-0.039 0.563 0.239 0.16 0.547 0.25 0.918 0.277 0.481 0.027 0.707-0.066 0.68-0.277z" inkscape:connector-curvature="0"/>
                    </g>
                  </g>
                </g>
              </g>
            </g>
          </g>
        </g>
      </g>
      <g id="g534">
        <g id="g550" mask="url(#mask542)">
          <g id="g562">
            <g id="g564" clip-path="url(#clipPath554)">
              <g id="g566" transform="translate(0 -.029375)">
                <g id="g570">
                  <g id="g572" clip-path="url(#clipPath558)">
                    <g id="g574">
                      <path id="path576" style="fill-rule:evenodd;fill:#60270d" d="m5.199 23.641c0.215-0.106 0.321-0.282 0.321-0.52 0-0.266-0.106-0.496-0.321-0.68-0.215-0.214-0.398-0.308-0.558-0.281-0.161 0-0.536 0.16-1.121 0.481-0.559 0.293-0.536 0.586 0.082 0.879 0.613 0.292 1.144 0.335 1.597 0.121z" inkscape:connector-curvature="0"/>
                    </g>
                  </g>
                </g>
              </g>
            </g>
          </g>
        </g>
      </g>
      <g id="g578">
        <g id="g594" mask="url(#mask586)">
          <g id="g606">
            <g id="g608" clip-path="url(#clipPath598)">
              <g id="g610" transform="translate(0 -.029375)">
                <g id="g614">
                  <g id="g616" clip-path="url(#clipPath602)">
                    <g id="g618">
                      <path id="path620" style="fill-rule:evenodd;fill:#60270d" d="m8.801 23.602c0.719-0.563 0.867-0.84 0.437-0.84-0.05 0-0.426 0.066-1.117 0.199-0.242 0.027-0.266 0.199-0.082 0.519 0.188 0.321 0.441 0.36 0.762 0.122z" inkscape:connector-curvature="0"/>
                    </g>
                  </g>
                </g>
              </g>
            </g>
          </g>
        </g>
      </g>
      <g id="g622">
        <g id="g638" mask="url(#mask630)">
          <g id="g650">
            <g id="g652" clip-path="url(#clipPath642)">
              <g id="g654" transform="translate(0 -.029375)">
                <g id="g658">
                  <g id="g660" clip-path="url(#clipPath646)">
                    <g id="g662">
                      <path id="path664" style="fill-rule:evenodd;fill:#60270d" d="m3.039 5.199c0.32-0.078 0.469-0.254 0.441-0.519 0-0.051-0.082-0.254-0.242-0.602-0.05-0.156-0.144-0.211-0.277-0.156-0.106 0.051-0.309 0.238-0.602 0.558-0.265 0.293-0.304 0.508-0.121 0.641 0.16 0.16 0.43 0.184 0.801 0.078z" inkscape:connector-curvature="0"/>
                    </g>
                  </g>
                </g>
              </g>
            </g>
          </g>
        </g>
      </g>
      <path id="path666" style="fill-rule:evenodd;fill:#c46033" d="m4.762 20.971c0.316-0.028 0.492-0.106 0.519-0.239 0.024-0.136-0.082-0.23-0.32-0.281-0.106 0-0.414-0.105-0.922-0.32-0.344-0.16-0.547-0.16-0.598 0-0.054 0.215 0.051 0.414 0.321 0.601 0.265 0.184 0.597 0.266 1 0.239z" inkscape:connector-curvature="0"/>
      <path id="path668" style="fill-rule:evenodd;fill:#c46033" d="m7.559 23.17c-0.532 0.426-0.438 0.746 0.281 0.961 0.265 0.051 0.32-0.121 0.16-0.52-0.16-0.402-0.305-0.547-0.441-0.441z" inkscape:connector-curvature="0"/>
      <path id="path670" style="fill-rule:evenodd;fill:#c46033" d="m11.238 21.17c0.188-0.106 0.137-0.172-0.16-0.199-0.398-0.055-0.637-0.121-0.719-0.2-0.105-0.16-0.238-0.254-0.398-0.281-0.133-0.051-0.199-0.012-0.199 0.121 0 0.293 0.117 0.504 0.359 0.641 0.106 0.078 0.293 0.105 0.559 0.078 0.242-0.027 0.425-0.078 0.558-0.16z" inkscape:connector-curvature="0"/>
      <path id="path672" style="fill-rule:evenodd;fill:#c46033" d="m14.641 21.81c0.293-0.132 0.304-0.265 0.039-0.398-0.481-0.27-0.735-0.402-0.758-0.402-0.242-0.184-0.43-0.172-0.563 0.039-0.078 0.109 0.039 0.297 0.36 0.562 0.32 0.293 0.629 0.36 0.922 0.199z" inkscape:connector-curvature="0"/>
      <path id="path674" style="fill-rule:evenodd;fill:#c46033" d="m12.922 19.17c-0.215-0.028-0.602-0.238-1.16-0.641-0.457-0.32-0.707-0.414-0.762-0.277-0.16 0.265-0.266 0.453-0.32 0.558-0.055 0.188 0.039 0.321 0.281 0.399 0.398 0.109 1.051 0.094 1.961-0.039z" inkscape:connector-curvature="0"/>
      <path id="path676" style="fill-rule:evenodd;fill:#c46033" d="m4.762 18.33c0.238-0.16 0.078-0.281-0.481-0.359-0.586-0.079-0.883-0.028-0.883 0.16 0 0.187 0.149 0.304 0.442 0.359 0.32 0.082 0.625 0.027 0.922-0.16z" inkscape:connector-curvature="0"/>
      <path id="path678" style="fill-rule:evenodd;fill:#c46033" d="m7.922 19.369c0.398-0.105 0.519-0.238 0.359-0.398-0.16-0.188-0.469-0.305-0.922-0.36-0.425-0.054-0.547 0.094-0.359 0.438 0.188 0.32 0.492 0.429 0.922 0.32z" inkscape:connector-curvature="0"/>
      <path id="path680" style="fill-rule:evenodd;fill:#c46033" d="m5.039 4.529c0.402 0 0.602-0.133 0.602-0.398 0-0.293-0.172-0.469-0.52-0.52-0.32-0.027-0.48 0.121-0.48 0.438 0 0.32 0.132 0.48 0.398 0.48z" inkscape:connector-curvature="0"/>
      <path id="path682" style="fill-rule:evenodd;fill:#c46033" d="m8.559 4.451c0.64 0.055 0.894-0.105 0.761-0.48l-1.558-0.399c-0.375-0.082-0.457 0.039-0.242 0.36 0.214 0.32 0.558 0.492 1.039 0.519z" inkscape:connector-curvature="0"/>
      <path id="path684" style="fill-rule:evenodd;fill:#c46033" d="m12.762 3.932c0.371-0.082 0.398-0.188 0.078-0.321-0.293-0.133-0.586-0.187-0.879-0.16-0.293 0.055-0.32 0.16-0.082 0.32 0.215 0.161 0.508 0.211 0.883 0.161z" inkscape:connector-curvature="0"/>
      <path id="path686" style="fill-rule:evenodd;fill:#c46033" d="m15.039 3.412c0.402 0.105 0.586 0.078 0.563-0.082-0.028-0.16-0.188-0.32-0.481-0.48-0.375-0.161-0.402 0.027-0.082 0.562z" inkscape:connector-curvature="0"/>
      <g id="g688">
        <g id="g690">
          <g id="g696">
            <path id="path710" style="fill-rule:evenodd;fill:url(#linearGradient698)" d="m18.602 17.252-0.442-9.961c-1.039-0.719-2.148-1.254-3.32-1.602-1.813-0.507-4.16-0.718-7.039-0.64-2.989 0.109-5.242 0.855-6.762 2.242-0.16 2.266-0.32 5.508-0.48 9.719 1.468-0.961 3.496-1.493 6.082-1.598 5.652-0.215 9.64 0.398 11.961 1.84z" inkscape:connector-curvature="0"/>
          </g>
        </g>
      </g>
      <g id="g712">
        <g id="g714">
          <g id="g720">
            <path id="path734" style="fill-rule:evenodd;fill:url(#linearGradient722)" d="m10.559 17.65c0.746-0.691 1.296-1.398 1.64-2.121 2.856 0.27 4.989 0.84 6.403 1.723l-0.442-9.961c-1.039-0.719-2.148-1.254-3.32-1.602-1.813-0.507-4.16-0.718-7.039-0.64-1.176 0.027-2.227 0.176-3.16 0.441l-0.161 10.121 0.879-0.121c0.293 1.149 1 1.988 2.121 2.52 1.145 0.586 2.172 0.468 3.079-0.36z" inkscape:connector-curvature="0"/>
          </g>
        </g>
      </g>
      <g id="g736">
        <g id="g738">
          <g id="g744">
            <path id="path752" style="fill-rule:evenodd;fill:url(#linearGradient746)" d="m13.238 15.65c2.43 0.293 4.215 0.828 5.364 1.602l-0.442-9.961c-1.359-0.961-3-1.613-4.922-1.961v10.32z" inkscape:connector-curvature="0"/>
          </g>
        </g>
      </g>
      <g id="g754">
        <g id="g756">
          <g id="g762">
            <path id="path776" style="fill-rule:evenodd;fill:url(#linearGradient764)" d="m8.84 17.131c1.094-0.106 1.894-0.719 2.398-1.84 0.457-0.988 0.59-2.106 0.403-3.359-0.161-1.149-0.961-1.774-2.403-1.883-1.492-0.078-2.449 0.586-2.879 2-0.425 1.386-0.332 2.613 0.282 3.683 0.558 0.985 1.293 1.453 2.199 1.399z" inkscape:connector-curvature="0"/>
          </g>
        </g>
      </g>
      <g id="g778">
        <g id="g780">
          <g id="g786">
            <path id="path800" style="fill-rule:evenodd;fill:url(#linearGradient788)" d="m8.801 16.412c0.773-0.109 1.332-0.613 1.679-1.52 0.321-0.828 0.415-1.761 0.282-2.8-0.11-0.961-0.668-1.481-1.684-1.559-1.066-0.082-1.746 0.477-2.039 1.68-0.32 1.144-0.266 2.156 0.16 3.039 0.426 0.824 0.961 1.211 1.602 1.16z" inkscape:connector-curvature="0"/>
          </g>
        </g>
      </g>
      <g id="g802">
        <g id="g818" mask="url(#mask810)">
          <g id="g840">
            <g id="g842" clip-path="url(#clipPath822)">
              <g id="g844" transform="translate(0 -.029375)">
                <g id="g848">
                  <g id="g850" clip-path="url(#clipPath826)">
                    <g id="g852">
                      <g id="g854">
                        <g id="g856">
                          <g id="g858">
                            <path id="path860" style="fill-rule:evenodd;fill:url(#linearGradient834)" d="m4.398 26.52 1.563 0.441c0-0.215-0.16-0.813-0.481-1.801-0.105-0.398-0.386-1.121-0.839-2.16-0.375-0.852-0.586-1.48-0.641-1.879-0.078-0.48-0.121-2.586-0.121-6.32-0.024-3.172-0.024-5.867 0-8.082 0.027-2.293 0.187-3.946 0.48-4.957-0.293 0.183-0.679 0.57-1.16 1.16-0.293 0.371-0.586 0.824-0.879 1.359l-0.32 0.68-0.238 16.801c0.023 0.398 0.238 0.863 0.636 1.398 0.481 0.586 0.79 1 0.922 1.238 0.586 0.934 0.946 1.641 1.078 2.122z" inkscape:connector-curvature="0"/>
                          </g>
                        </g>
                      </g>
                    </g>
                  </g>
                </g>
              </g>
            </g>
          </g>
        </g>
      </g>
      <g id="g862">
        <g id="g878" mask="url(#mask870)">
          <g id="g900">
            <g id="g902" clip-path="url(#clipPath882)">
              <g id="g904" transform="translate(0 -.029375)">
                <g id="g908">
                  <g id="g910" clip-path="url(#clipPath886)">
                    <g id="g912">
                      <g id="g914">
                        <g id="g916">
                          <g id="g918">
                            <path id="path920" style="fill-rule:evenodd;fill:url(#linearGradient894)" d="m15.039 26.52c0.16-0.481 0.535-1.188 1.121-2.122 0.16-0.238 0.465-0.652 0.918-1.238 0.402-0.535 0.617-1 0.641-1.398l-0.278-16.801-0.32-0.68c-0.266-0.535-0.562-0.988-0.883-1.359-0.476-0.59-0.851-0.977-1.117-1.16 0.266 1.011 0.414 2.664 0.438 4.957 0.054 1.922 0.066 4.613 0.043 8.082 0 3.707-0.043 5.812-0.122 6.32-0.054 0.399-0.265 1.027-0.64 1.879-0.481 1.094-0.774 1.812-0.879 2.16-0.32 0.988-0.481 1.586-0.481 1.801l1.559-0.441z" inkscape:connector-curvature="0"/>
                          </g>
                        </g>
                      </g>
                    </g>
                  </g>
                </g>
              </g>
            </g>
          </g>
        </g>
      </g>
      <g id="g922">
        <g id="g938" mask="url(#mask930)">
          <g id="g950">
            <g id="g952" clip-path="url(#clipPath942)">
              <g id="g954" transform="translate(0 -.029375)">
                <g id="g958">
                  <g id="g960" clip-path="url(#clipPath946)">
                    <g id="g962">
                      <path id="path964" style="fill-rule:evenodd;fill:#752a20" d="m15.68 27.199 0.718-1.16c-1.171-0.961-3.226-1.398-6.16-1.32-3.304 0.082-5.652 0.668-7.039 1.761l0.442 0.719 6-0.32 6.039 0.32z" inkscape:connector-curvature="0"/>
                    </g>
                  </g>
                </g>
              </g>
            </g>
          </g>
        </g>
      </g>
      <g id="g966">
        <g id="g968">
          <g id="g974">
            <path id="path982" style="fill-rule:evenodd;fill:url(#linearGradient976)" d="m16.641 27.131c0-0.453-0.68-0.84-2.039-1.16-1.387-0.321-3.043-0.481-4.961-0.481-1.922 0-3.575 0.16-4.961 0.481-1.36 0.32-2.039 0.707-2.039 1.16s0.679 0.84 2.039 1.16c1.359 0.32 3.015 0.48 4.961 0.48 1.918 0 3.574-0.16 4.961-0.48 1.359-0.32 2.039-0.707 2.039-1.16z" inkscape:connector-curvature="0"/>
          </g>
        </g>
      </g>
      <g id="g984">
        <g id="g986">
          <g id="g992">
            <path id="path1006" style="fill-rule:evenodd;fill:url(#linearGradient994)" d="m16.961 27.529c0-0.453-0.707-0.824-2.121-1.117-1.414-0.32-3.133-0.48-5.16-0.48-2 0-3.707 0.16-5.121 0.48-1.438 0.293-2.161 0.664-2.161 1.117 0 0.43 0.723 0.801 2.161 1.121 1.414 0.321 3.121 0.481 5.121 0.481 2.027 0 3.746-0.16 5.16-0.481 1.414-0.293 2.121-0.668 2.121-1.121z" inkscape:connector-curvature="0"/>
          </g>
        </g>
      </g>
      <path id="path1008" style="fill-rule:evenodd;fill:#0304d6" d="m16.719 30.529v-2.719c-0.024-0.32-0.731-0.601-2.117-0.839-1.364-0.215-3.016-0.321-4.961-0.321-1.922 0-3.563 0.106-4.922 0.321-1.36 0.238-2.067 0.519-2.117 0.839v2.719h14.117z" inkscape:connector-curvature="0"/>
      <g id="g1010">
        <g id="g1012">
          <g id="g1018">
            <path id="path1032" style="fill-rule:evenodd;fill:url(#linearGradient1020)" d="m16.719 27.81c-0.051-0.347-0.758-0.668-2.117-0.96-1.414-0.293-3.067-0.438-4.961-0.438-1.868 0-3.508 0.145-4.922 0.438-1.36 0.292-2.067 0.613-2.117 0.96v2.84h14.117v-2.84z" inkscape:connector-curvature="0"/>
          </g>
        </g>
      </g>
      <g id="g1034">
        <g id="g1036">
          <g id="g1042">
            <path id="path1050" style="fill-rule:evenodd;fill:url(#linearGradient1044)" d="m16.719 30.611c0-0.375-0.692-0.695-2.078-0.961-1.36-0.265-3.028-0.398-5-0.398-1.946 0-3.602 0.133-4.961 0.398-1.387 0.266-2.078 0.586-2.078 0.961 0 0.371 0.691 0.692 2.078 0.961 1.359 0.266 3.015 0.399 4.961 0.399 1.972 0 3.64-0.133 5-0.399 1.386-0.269 2.078-0.59 2.078-0.961z" inkscape:connector-curvature="0"/>
          </g>
        </g>
      </g>
      <g id="g1052">
        <g id="g1068" mask="url(#mask1060)">
          <g id="g1080">
            <g id="g1082" clip-path="url(#clipPath1072)">
              <g id="g1084" transform="translate(0 -.029375)">
                <g id="g1088">
                  <g id="g1090" clip-path="url(#clipPath1076)">
                    <g id="g1092">
                      <path id="path1094" style="fill-rule:evenodd;fill:#ffffff" d="m3.762 26.52c0.504-0.188 1.332-0.36 2.476-0.52 1.442-0.188 3.043-0.281 4.801-0.281-0.055-0.133-0.918-0.172-2.598-0.117-2.054 0.105-3.656 0.343-4.8 0.718-0.188 0.078-0.254 0.145-0.2 0.2 0.051 0.054 0.161 0.054 0.321 0z" inkscape:connector-curvature="0"/>
                    </g>
                  </g>
                </g>
              </g>
            </g>
          </g>
        </g>
      </g>
      <path id="path1096" style="fill-rule:evenodd;fill:#f9e2c9" d="m3.641 2.892c0.531-0.296 0.867-0.601 1-0.921 0.105-0.293 0.039-0.442-0.2-0.442-0.429 0-0.949 0.293-1.562 0.883-0.293 0.293-0.32 0.492-0.078 0.598 0.238 0.082 0.519 0.039 0.84-0.118z" inkscape:connector-curvature="0"/>
      <path id="path1098" style="fill-rule:evenodd;fill:#f9e2c9" d="m5.762 1.81c0.398-0.078 0.504-0.226 0.316-0.441-0.183-0.211-0.344-0.266-0.476-0.16-0.137 0.137-0.204 0.269-0.204 0.402-0.023 0.188 0.094 0.254 0.364 0.199z" inkscape:connector-curvature="0"/>
    </g>
  </g>
<metadata><rdf:RDF><cc:Work><dc:format>image/svg+xml</dc:format><dc:type rdf:resource="http://purl.org/dc/dcmitype/StillImage"/><cc:license rdf:resource="http://creativecommons.org/licenses/publicdomain/"/><dc:publisher><cc:Agent rdf:about="http://openclipart.org/"><dc:title>Openclipart</dc:title></cc:Agent></dc:publisher></cc:Work><cc:License rdf:about="http://creativecommons.org/licenses/publicdomain/"><cc:permits rdf:resource="http://creativecommons.org/ns#Reproduction"/><cc:permits rdf:resource="http://creativecommons.org/ns#Distribution"/><cc:permits rdf:resource="http://creativecommons.org/ns#DerivativeWorks"/></cc:License></rdf:RDF></metadata></svg>
