<svg xmlns="http://www.w3.org/2000/svg" xmlns:xlink="http://www.w3.org/1999/xlink" version="1.1" x="0px" y="0px" viewBox="730.422 -102.522 100 71.65" enable-background="new 730.422 -102.522 100 71.65" xml:space="preserve"><g><path d="M816.168-75.423l-7.128-27.1h-78.618v62.729h9.301c0-7.131,5.802-12.933,12.933-12.933c7.13,0,12.932,5.801,12.932,12.933   h31.091c0-7.131,5.802-12.933,12.934-12.933c7.13,0,12.931,5.801,12.931,12.933h7.88v-29.342L816.168-75.423z M781.794-74.869   H738.85v-21.608h42.944V-74.869z M790.75-74.869v-21.608h13.657l5.203,21.608H790.75z"></path><path d="M760.322-91.902c0-1.488-1.488-3.348-4.091-3.348c-2.26,0-3.346,1.829-3.346,4.091c0,2.231,2.23,3.346,3.346,3.346   S760.322-87.441,760.322-91.902z"></path><path d="M767.423-88.824v1.002c0,1.848,2.184,3.295,4.971,3.295c2.788,0,4.972-1.447,4.972-3.295v-1.002H767.423z"></path><path d="M770.072-89.858c-0.161,0-0.321-0.078-0.417-0.224c-0.153-0.23-0.091-0.542,0.14-0.695   c0.563-0.375,0.541-0.424,0.163-1.263c-0.071-0.158-0.149-0.33-0.228-0.52c-0.524-1.268,0.31-2.214,0.823-2.537   c0.231-0.146,0.543-0.076,0.691,0.158c0.146,0.233,0.077,0.542-0.155,0.689c-0.08,0.053-0.756,0.524-0.433,1.307   c0.074,0.179,0.147,0.341,0.214,0.49c0.387,0.856,0.751,1.665-0.521,2.511C770.265-89.885,770.168-89.858,770.072-89.858z"></path><path d="M772.321-90.421c-0.161,0-0.321-0.079-0.418-0.224c-0.152-0.23-0.09-0.542,0.141-0.695   c0.564-0.375,0.542-0.425,0.164-1.264c-0.071-0.157-0.148-0.329-0.228-0.519c-0.524-1.268,0.31-2.214,0.824-2.537   c0.231-0.145,0.542-0.077,0.69,0.158c0.146,0.233,0.077,0.542-0.155,0.689c-0.08,0.053-0.756,0.524-0.433,1.307   c0.074,0.179,0.147,0.341,0.214,0.49c0.387,0.856,0.751,1.666-0.522,2.511C772.514-90.448,772.418-90.421,772.321-90.421z"></path><path d="M774.553-89.858c-0.161,0-0.321-0.078-0.417-0.224c-0.153-0.23-0.091-0.542,0.14-0.695   c0.563-0.375,0.541-0.424,0.163-1.263c-0.071-0.158-0.148-0.33-0.228-0.52c-0.524-1.268,0.31-2.214,0.824-2.537   c0.231-0.146,0.542-0.076,0.69,0.158c0.146,0.233,0.077,0.542-0.155,0.689c-0.08,0.053-0.756,0.524-0.433,1.307   c0.074,0.179,0.147,0.341,0.214,0.49c0.387,0.856,0.751,1.665-0.521,2.511C774.745-89.885,774.648-89.858,774.553-89.858z"></path><path d="M809.611-48.715c-4.921,0-8.923,4.002-8.923,8.922c0,4.919,4.002,8.921,8.923,8.921c4.919,0,8.921-4.002,8.921-8.921   C818.532-44.713,814.53-48.715,809.611-48.715z"></path><path d="M752.655-48.715c-4.92,0-8.923,4.002-8.923,8.922c0,4.919,4.003,8.921,8.923,8.921s8.921-4.002,8.921-8.921   C761.576-44.713,757.575-48.715,752.655-48.715z"></path><path d="M745.289-79.314c1.553,2.52,3.217,1.812,4.469,0.971c0.694-0.467,1.689-1.325,1.937-0.807   c0.188,0.398,0.164,3.025,0.044,5.283h10.223c-0.043-1.453-0.073-3.43-0.082-3.658c-0.138-3.525,2.528-2.489,6.403-2.186   c1.737,0.136,6.017-0.675,6.882-1.172c2.034-1.17-0.24-3.341-2.85-2.923c-4.701,0.754-5.435,1.105-11.123-1.782   c-1.842-0.935-6.499-0.768-8.311,0c-2.5,1.063-4.41,4.241-5.186,3.682c-0.607-0.436-1.306-2.535-2.25-4.624   c-0.57-1.258-1.615-2.917-2.842-2.279c-1.224,0.636-1.108,2.367-0.471,3.592C742.133-85.215,744.235-81.026,745.289-79.314z"></path></g></svg>