<?xml version="1.0" encoding="UTF-8" standalone="no"?>
<!-- Created with Inkscape (http://www.inkscape.org/) -->
<svg xmlns:inkscape="http://www.inkscape.org/namespaces/inkscape" xmlns:rdf="http://www.w3.org/1999/02/22-rdf-syntax-ns#" xmlns="http://www.w3.org/2000/svg" xmlns:xlink="http://www.w3.org/1999/xlink" xmlns:ns1="http://sozi.baierouge.fr" xmlns:cc="http://creativecommons.org/ns#" xmlns:sodipodi="http://sodipodi.sourceforge.net/DTD/sodipodi-0.dtd" xmlns:dc="http://purl.org/dc/elements/1.1/" id="svg2" xml:space="preserve" viewBox="0 0 44.837 31.05" version="1.1" inkscape:version="0.91 r13725">
  <defs id="defs6">
    <linearGradient id="linearGradient30" y2="-17.562" gradientUnits="userSpaceOnUse" x2="45.035" gradientTransform="matrix(.4116 -.686 -.686 -.4116 .00016104 24.84)" y1="-17.562" x1="43.286">
      <stop id="stop32" style="stop-color:#c4a149" offset="0"/>
      <stop id="stop34" style="stop-color:#dbc674" offset="1"/>
    </linearGradient>
    <linearGradient id="linearGradient48" y2="-5.2119" gradientUnits="userSpaceOnUse" x2="42.048" gradientTransform="matrix(.5268 -.60208 -.60208 -.5268 -.00035670 24.84)" y1="-5.2119" x1="39.391">
      <stop id="stop50" style="stop-color:#c4a149" offset="0"/>
      <stop id="stop52" style="stop-color:#dbc674" offset="1"/>
    </linearGradient>
    <linearGradient id="linearGradient66" y2="-2.8379" gradientUnits="userSpaceOnUse" x2="31.848" gradientTransform="matrix(.3844 -.7016 -.7016 -.3844 0.000021 24.84)" y1="-2.8379" x1="29.767">
      <stop id="stop68" style="stop-color:#c4a149" offset="0"/>
      <stop id="stop70" style="stop-color:#dbc674" offset="1"/>
    </linearGradient>
    <clipPath id="clipPath78">
      <path id="path80" d="m6 1.84h26v7h-26v-7z" inkscape:connector-curvature="0"/>
    </clipPath>
    <mask id="mask82">
      <g id="g84">
        <g id="g86" clip-path="url(#clipPath78)">
          <path id="path88" style="fill:#000000;fill-opacity:.48830" d="m6 1.84h26v7h-26v-7z" inkscape:connector-curvature="0"/>
        </g>
      </g>
    </mask>
    <clipPath id="clipPath94">
      <path id="path96" d="m6 1.84h26v7h-26v-7z" inkscape:connector-curvature="0"/>
    </clipPath>
    <clipPath id="clipPath98">
      <path id="path100" d="m6 2h26v7h-26v-7z" inkscape:connector-curvature="0"/>
    </clipPath>
    <linearGradient id="linearGradient152" y2="-5.0635" gradientUnits="userSpaceOnUse" x2="-34.575" gradientTransform="matrix(-.76112 .24648 .69744 .61504 .00024096 24.84)" y1="-5.0635" x1="-37.334">
      <stop id="stop154" style="stop-color:#edca6b" offset="0"/>
      <stop id="stop156" style="stop-color:#ffef9e" offset="1"/>
    </linearGradient>
    <linearGradient id="linearGradient170" y2="-4.1035" gradientUnits="userSpaceOnUse" x2="-39.272" gradientTransform="matrix(-.76072 .24768 .6952 .61496 -.00031603 24.84)" y1="-4.1035" x1="-40.402">
      <stop id="stop172" style="stop-color:#edca6b" offset="0"/>
      <stop id="stop174" style="stop-color:#ffef9e" offset="1"/>
    </linearGradient>
    <linearGradient id="linearGradient188" y2="-6.21" gradientUnits="userSpaceOnUse" x2="-44.398" gradientTransform="matrix(-.7608 .24728 .68904 .61728 -.00016659 24.84)" y1="-6.21" x1="-45.45">
      <stop id="stop190" style="stop-color:#edca6b" offset="0"/>
      <stop id="stop192" style="stop-color:#ffef9e" offset="1"/>
    </linearGradient>
    <linearGradient id="linearGradient206" y2="-7.7158" gradientUnits="userSpaceOnUse" x2="-43.681" gradientTransform="matrix(-.76256 .24176 .70112 .61696 -.00026982 24.84)" y1="-7.7158" x1="-44.757">
      <stop id="stop208" style="stop-color:#edca6b" offset="0"/>
      <stop id="stop210" style="stop-color:#ffef9e" offset="1"/>
    </linearGradient>
    <linearGradient id="linearGradient224" y2="-9.7607" gradientUnits="userSpaceOnUse" x2="-28.033" gradientTransform="matrix(-.76176 .24432 .69352 .61768 .00028379 24.84)" y1="-9.7607" x1="-29.424">
      <stop id="stop226" style="stop-color:#c2af67" offset="0"/>
      <stop id="stop228" style="stop-color:#ebd88d" offset="1"/>
    </linearGradient>
    <linearGradient id="linearGradient242" y2="-6.6875" gradientUnits="userSpaceOnUse" x2="-30.368" gradientTransform="matrix(-.76288 .24088 .69504 .61944 -.0000012207 24.84)" y1="-6.6875" x1="-31.365">
      <stop id="stop244" style="stop-color:#c2af67" offset="0"/>
      <stop id="stop246" style="stop-color:#ebd88d" offset="1"/>
    </linearGradient>
    <linearGradient id="linearGradient260" y2="-10.866" gradientUnits="userSpaceOnUse" x2="-23.81" gradientTransform="matrix(-.75896 .25296 .69136 .6128 -.000090149 24.839)" y1="-10.866" x1="-24.758">
      <stop id="stop262" style="stop-color:#c2af67" offset="0"/>
      <stop id="stop264" style="stop-color:#ebd88d" offset="1"/>
    </linearGradient>
    <linearGradient id="linearGradient278" y2="-9.4502" gradientUnits="userSpaceOnUse" x2="-35.321" gradientTransform="matrix(-.7608 .24728 .69952 .61384 -.00012091 24.84)" y1="-9.4502" x1="-36.373">
      <stop id="stop280" style="stop-color:#edca6b" offset="0"/>
      <stop id="stop282" style="stop-color:#ffef9e" offset="1"/>
    </linearGradient>
    <linearGradient id="linearGradient296" y2="14.062" gradientUnits="userSpaceOnUse" x2="-33.391" gradientTransform="matrix(-.50568 .61992 .90456 .1568 .000015993 24.84)" y1="14.062" x1="-34.617">
      <stop id="stop298" style="stop-color:#c4a149" offset="0"/>
      <stop id="stop300" style="stop-color:#dbc674" offset="1"/>
    </linearGradient>
    <linearGradient id="linearGradient314" y2="8.6514" gradientUnits="userSpaceOnUse" x2="-33.163" gradientTransform="matrix(-.5196 .60832 .92096 .15352 .000092715 24.84)" y1="8.6514" x1="-34.741">
      <stop id="stop316" style="stop-color:#c4a149" offset="0"/>
      <stop id="stop318" style="stop-color:#dbc674" offset="1"/>
    </linearGradient>
    <clipPath id="clipPath326">
      <path id="path328" d="m7 2.84h20v13h-20v-13z" inkscape:connector-curvature="0"/>
    </clipPath>
    <mask id="mask330">
      <g id="g332">
        <g id="g334" clip-path="url(#clipPath326)">
          <path id="path336" style="fill:#000000;fill-opacity:.42190" d="m7 2.84h20v13h-20v-13z" inkscape:connector-curvature="0"/>
        </g>
      </g>
    </mask>
    <clipPath id="clipPath342">
      <path id="path344" d="m7 2.84h20v13h-20v-13z" inkscape:connector-curvature="0"/>
    </clipPath>
    <clipPath id="clipPath346">
      <path id="path348" d="m7 3h20v13h-20v-13z" inkscape:connector-curvature="0"/>
    </clipPath>
    <clipPath id="clipPath370">
      <path id="path372" d="m26 6.84h7v4h-7v-4z" inkscape:connector-curvature="0"/>
    </clipPath>
    <mask id="mask374">
      <g id="g376">
        <g id="g378" clip-path="url(#clipPath370)">
          <path id="path380" style="fill:#000000;fill-opacity:.58980" d="m26 6.84h7v4h-7v-4z" inkscape:connector-curvature="0"/>
        </g>
      </g>
    </mask>
    <clipPath id="clipPath386">
      <path id="path388" d="m26 6.84h7v4h-7v-4z" inkscape:connector-curvature="0"/>
    </clipPath>
    <clipPath id="clipPath390">
      <path id="path392" d="m26 7h7v4h-7v-4z" inkscape:connector-curvature="0"/>
    </clipPath>
    <clipPath id="clipPath414">
      <path id="path416" d="m18 7.84h12v6h-12v-6z" inkscape:connector-curvature="0"/>
    </clipPath>
    <mask id="mask418">
      <g id="g420">
        <g id="g422" clip-path="url(#clipPath414)">
          <path id="path424" style="fill:#000000;fill-opacity:.58980" d="m18 7.84h12v6h-12v-6z" inkscape:connector-curvature="0"/>
        </g>
      </g>
    </mask>
    <clipPath id="clipPath430">
      <path id="path432" d="m18 7.84h12v6h-12v-6z" inkscape:connector-curvature="0"/>
    </clipPath>
    <clipPath id="clipPath434">
      <path id="path436" d="m18 8h12v6h-12v-6z" inkscape:connector-curvature="0"/>
    </clipPath>
    <clipPath id="clipPath458">
      <path id="path460" d="m14 12.84h10v5h-10v-5z" inkscape:connector-curvature="0"/>
    </clipPath>
    <mask id="mask462">
      <g id="g464">
        <g id="g466" clip-path="url(#clipPath458)">
          <path id="path468" style="fill:#000000;fill-opacity:.58980" d="m14 12.84h10v5h-10v-5z" inkscape:connector-curvature="0"/>
        </g>
      </g>
    </mask>
    <clipPath id="clipPath474">
      <path id="path476" d="m14 12.84h10v5h-10v-5z" inkscape:connector-curvature="0"/>
    </clipPath>
    <clipPath id="clipPath478">
      <path id="path480" d="m14 13h10v5h-10v-5z" inkscape:connector-curvature="0"/>
    </clipPath>
    <linearGradient id="linearGradient516" y2="23.127" gradientUnits="userSpaceOnUse" x2="8.6499" gradientTransform="matrix(.8 0 0 -.8 -.0000012207 24.84)" y1="23.127" x1="7.1499">
      <stop id="stop518" style="stop-color:#c4a149" offset="0"/>
      <stop id="stop520" style="stop-color:#dbc674" offset="1"/>
    </linearGradient>
    <linearGradient id="linearGradient534" y2="18.964" gradientUnits="userSpaceOnUse" x2="16.513" gradientTransform="matrix(.8 0 0 -.8 -.0000012207 24.84)" y1="18.964" x1="13.788">
      <stop id="stop536" style="stop-color:#c4a149" offset="0"/>
      <stop id="stop538" style="stop-color:#dbc674" offset="1"/>
    </linearGradient>
    <linearGradient id="linearGradient552" y2="12.236" gradientUnits="userSpaceOnUse" x2="30.086" gradientTransform="matrix(.8 0 0 -.8 -.0000012207 24.84)" y1="12.236" x1="28.411">
      <stop id="stop554" style="stop-color:#c4a149" offset="0"/>
      <stop id="stop556" style="stop-color:#dbc674" offset="1"/>
    </linearGradient>
    <clipPath id="clipPath564">
      <path id="path566" d="m4 6.84h27v15h-27v-15z" inkscape:connector-curvature="0"/>
    </clipPath>
    <mask id="mask568">
      <g id="g570">
        <g id="g572" clip-path="url(#clipPath564)">
          <path id="path574" style="fill:#000000;fill-opacity:.48830" d="m4 6.84h27v15h-27v-15z" inkscape:connector-curvature="0"/>
        </g>
      </g>
    </mask>
    <clipPath id="clipPath580">
      <path id="path582" d="m4 6.84h27v15h-27v-15z" inkscape:connector-curvature="0"/>
    </clipPath>
    <clipPath id="clipPath584">
      <path id="path586" d="m4 7h27v15h-27v-15z" inkscape:connector-curvature="0"/>
    </clipPath>
    <linearGradient id="linearGradient638" y2="-6.9351" gradientUnits="userSpaceOnUse" x2="15.894" gradientTransform="matrix(.4736 -.6448 -.6448 -.4736 -.00010494 24.84)" y1="-6.9351" x1="12.389">
      <stop id="stop640" style="stop-color:#edca6b" offset="0"/>
      <stop id="stop642" style="stop-color:#ffef9e" offset="1"/>
    </linearGradient>
    <linearGradient id="linearGradient656" y2="-1.6719" gradientUnits="userSpaceOnUse" x2="13.933" gradientTransform="matrix(.48 -.64 -.64 -.48 .00030996 24.84)" y1="-1.6719" x1="12.308">
      <stop id="stop658" style="stop-color:#edca6b" offset="0"/>
      <stop id="stop660" style="stop-color:#ffef9e" offset="1"/>
    </linearGradient>
    <linearGradient id="linearGradient674" y2="2.7178" gradientUnits="userSpaceOnUse" x2="15.526" gradientTransform="matrix(.47584 -.64304 -.64304 -.47584 .000081176 24.84)" y1="2.7178" x1="13.971">
      <stop id="stop676" style="stop-color:#edca6b" offset="0"/>
      <stop id="stop678" style="stop-color:#ffef9e" offset="1"/>
    </linearGradient>
    <linearGradient id="linearGradient692" y2=".89110" gradientUnits="userSpaceOnUse" x2="16.758" gradientTransform="matrix(.478 -.64152 -.64152 -.478 -.000042849 24.84)" y1=".89110" x1="15.168">
      <stop id="stop694" style="stop-color:#edca6b" offset="0"/>
      <stop id="stop696" style="stop-color:#ffef9e" offset="1"/>
    </linearGradient>
    <linearGradient id="linearGradient710" y2="4.4277" gradientUnits="userSpaceOnUse" x2="27.862" gradientTransform="matrix(.8 0 0 -.8 -.0000012207 24.84)" y1="4.4277" x1="23.837">
      <stop id="stop712" style="stop-color:#edca6b" offset="0"/>
      <stop id="stop714" style="stop-color:#ffef9e" offset="1"/>
    </linearGradient>
    <linearGradient id="linearGradient728" y2="-13.799" gradientUnits="userSpaceOnUse" x2="16.348" gradientTransform="matrix(.47512 -.64368 -.64368 -.47512 .00027811 24.84)" y1="-13.799" x1="15.042">
      <stop id="stop730" style="stop-color:#edca6b" offset="0"/>
      <stop id="stop732" style="stop-color:#ffef9e" offset="1"/>
    </linearGradient>
    <linearGradient id="linearGradient746" y2="-24.102" gradientUnits="userSpaceOnUse" x2="20.802" gradientTransform="matrix(.4724 -.6456 -.6456 -.4724 .0003144 24.84)" y1="-24.102" x1="19.532">
      <stop id="stop748" style="stop-color:#edca6b" offset="0"/>
      <stop id="stop750" style="stop-color:#ffef9e" offset="1"/>
    </linearGradient>
    <linearGradient id="linearGradient764" y2="-9.8311" gradientUnits="userSpaceOnUse" x2="19.1" gradientTransform="matrix(.48 -.64 -.64 -.48 -.000081472 24.84)" y1="-9.8311" x1="17.6">
      <stop id="stop766" style="stop-color:#edca6b" offset="0"/>
      <stop id="stop768" style="stop-color:#ffef9e" offset="1"/>
    </linearGradient>
    <linearGradient id="linearGradient782" y2="-6.1064" gradientUnits="userSpaceOnUse" x2="19.294" gradientTransform="matrix(.05952 -.79776 -.79776 -.05952 .0001118 24.84)" y1="-6.1064" x1="17.615">
      <stop id="stop784" style="stop-color:#c4a149" offset="0"/>
      <stop id="stop786" style="stop-color:#dbc674" offset="1"/>
    </linearGradient>
    <linearGradient id="linearGradient800" y2="-12.188" gradientUnits="userSpaceOnUse" x2="18.22" gradientTransform="matrix(.06464 -.79736 -.79736 -.06464 .00018953 24.84)" y1="-12.188" x1="16.364">
      <stop id="stop802" style="stop-color:#c4a149" offset="0"/>
      <stop id="stop804" style="stop-color:#dbc674" offset="1"/>
    </linearGradient>
    <linearGradient id="linearGradient818" y2="-26.768" gradientUnits="userSpaceOnUse" x2="10.122" gradientTransform="matrix(.0708 -.79688 -.79688 -.0708 -.00020484 24.84)" y1="-26.768" x1="8.9922">
      <stop id="stop820" style="stop-color:#c4a149" offset="0"/>
      <stop id="stop822" style="stop-color:#dbc674" offset="1"/>
    </linearGradient>
    <clipPath id="clipPath830">
      <path id="path832" d="m2 11.84h10v3h-10v-3z" inkscape:connector-curvature="0"/>
    </clipPath>
    <mask id="mask834">
      <g id="g836">
        <g id="g838" clip-path="url(#clipPath830)">
          <path id="path840" style="fill:#000000;fill-opacity:.48830" d="m2 11.84h10v3h-10v-3z" inkscape:connector-curvature="0"/>
        </g>
      </g>
    </mask>
    <clipPath id="clipPath846">
      <path id="path848" d="m2 11.84h10v3h-10v-3z" inkscape:connector-curvature="0"/>
    </clipPath>
    <clipPath id="clipPath850">
      <path id="path852" d="m2 12h10v3h-10v-3z" inkscape:connector-curvature="0"/>
    </clipPath>
    <clipPath id="clipPath874">
      <path id="path876" d="m5 16.84h17v4h-17v-4z" inkscape:connector-curvature="0"/>
    </clipPath>
    <mask id="mask878">
      <g id="g880">
        <g id="g882" clip-path="url(#clipPath874)">
          <path id="path884" style="fill:#000000;fill-opacity:.48830" d="m5 16.84h17v4h-17v-4z" inkscape:connector-curvature="0"/>
        </g>
      </g>
    </mask>
    <clipPath id="clipPath890">
      <path id="path892" d="m5 16.84h17v4h-17v-4z" inkscape:connector-curvature="0"/>
    </clipPath>
    <clipPath id="clipPath894">
      <path id="path896" d="m5 17h17v4h-17v-4z" inkscape:connector-curvature="0"/>
    </clipPath>
    <clipPath id="clipPath918">
      <path id="path920" d="m14 20.84h15v4h-15v-4z" inkscape:connector-curvature="0"/>
    </clipPath>
    <mask id="mask922">
      <g id="g924">
        <g id="g926" clip-path="url(#clipPath918)">
          <path id="path928" style="fill:#000000;fill-opacity:.48830" d="m14 20.84h15v4h-15v-4z" inkscape:connector-curvature="0"/>
        </g>
      </g>
    </mask>
    <clipPath id="clipPath934">
      <path id="path936" d="m14 20.84h15v4h-15v-4z" inkscape:connector-curvature="0"/>
    </clipPath>
    <clipPath id="clipPath938">
      <path id="path940" d="m14 21h15v4h-15v-4z" inkscape:connector-curvature="0"/>
    </clipPath>
  </defs>
  <g id="g10" transform="matrix(1.25,0,0,-1.25,0,31.05)">
    <g id="g12">
      <path id="path14" style="fill-rule:evenodd;fill:#c98000" d="m35.801 1.961-0.801-0.121-8.641 2.48-18.597 2.801-1.801 0.399c5.519 1.652 10.25 2.8 14.199 3.441 2.668 0.426 4.813 0.453 6.442 0.078 1.171-0.293 2.226-0.863 3.16-1.719 1.066-0.933 3.078-3.386 6.039-7.359z" inkscape:connector-curvature="0"/>
      <path id="path16" style="fill-rule:evenodd;fill:#dbc674" d="m35.039 0c-5.387 0.586-9.945 1.215-13.68 1.879-3.707 0.641-8.492 1.856-14.359 3.641l-0.039 1.961 16.16 1.64 11.879-7.281 0.039-1.84z" inkscape:connector-curvature="0"/>
      <path id="path18" style="fill-rule:evenodd;fill:#ffd875" d="m6.961 7.481c5.305 1.414 9.906 2.425 13.801 3.039 2.718 0.453 4.851 0.359 6.398-0.282 1.172-0.476 2.36-1.503 3.559-3.078 1.441-1.84 2.867-3.613 4.281-5.32-4.535 0.719-9.547 1.559-15.039 2.52-4.961 0.878-9.293 1.921-13 3.121z" inkscape:connector-curvature="0"/>
      <g id="g20">
        <g id="g22">
          <g id="g28">
            <path id="path36" style="fill-rule:evenodd;fill:url(#linearGradient30)" d="m30 2.121c0.188 0.293 0.414 0.282 0.68-0.043 0.265-0.316 0.347-0.613 0.242-0.879-0.133-0.32-0.402-0.371-0.801-0.16-0.375 0.188-0.414 0.547-0.121 1.082z" inkscape:connector-curvature="0"/>
          </g>
        </g>
      </g>
      <g id="g38">
        <g id="g40">
          <g id="g46">
            <path id="path54" style="fill-rule:evenodd;fill:url(#linearGradient48)" d="m25.641 3.281c0.16-0.718-0.106-1.16-0.801-1.32-0.426-0.109-0.774 0.106-1.039 0.641l-0.242 0.84 0.961 0.199c0.64 0.078 1.015-0.039 1.121-0.36z" inkscape:connector-curvature="0"/>
          </g>
        </g>
      </g>
      <g id="g56">
        <g id="g58">
          <g id="g64">
            <path id="path72" style="fill-rule:evenodd;fill:url(#linearGradient66)" d="m13.84 4.84c0.215 0.188 0.398 0.121 0.558-0.199 0.161-0.321 0.188-0.547 0.082-0.68-0.187-0.215-0.507-0.269-0.96-0.16-0.426 0.133-0.321 0.48 0.32 1.039z" inkscape:connector-curvature="0"/>
          </g>
        </g>
      </g>
      <g id="g74">
        <g id="g90" mask="url(#mask82)">
          <g id="g102">
            <g id="g104" clip-path="url(#clipPath94)">
              <g id="g106" transform="translate(0 -.16)">
                <g id="g110">
                  <g id="g112" clip-path="url(#clipPath98)">
                    <g id="g114">
                      <path id="path116" style="fill-rule:evenodd;fill:#664b16" d="m31.801 3.039c-1.785-0.453-3.106-0.574-3.961-0.359-2.32 0.558-4.375 0.84-6.16 0.84-2.133 0.054-3.918 0.308-5.36 0.761-1.121 0.399-1.933 0.68-2.441 0.84-0.824 0.293-1.359 0.414-1.598 0.359-0.215-0.082-0.347-0.308-0.402-0.679-0.024-0.188-0.024-0.375 0-0.563l-1.359 0.481-0.282 0.441c-0.293 0.801-0.586 1.16-0.879 1.078-0.16-0.05-0.425 0.016-0.8 0.203-0.454 0.211-0.774 0.332-0.957 0.36-0.375 0.054-0.723 0.199-1.043 0.437-0.321 0.27-0.305 0.469 0.043 0.602 0.398 0.187 1.851 0.293 4.359 0.32 2.586 0.028 5.078-0.055 7.48-0.238 2.024-0.16 4.852-1.016 8.481-2.563 1.84-0.8 3.465-1.574 4.879-2.32z" inkscape:connector-curvature="0"/>
                    </g>
                  </g>
                </g>
              </g>
            </g>
          </g>
        </g>
      </g>
      <path id="path118" style="fill-rule:evenodd;fill:#ffab0f" d="m34.078 2.481c-1.066 0.187-2 0.265-2.797 0.238-0.906-0.051-2.32 0.066-4.242 0.359-2.641 0.43-4.867 0.723-6.68 0.883-1.597 0.133-3.734 0.707-6.398 1.719-1.52 0.586-2.453 0.441-2.801-0.442-0.215-0.503-0.558-0.73-1.039-0.679-0.48 0.054-0.773 0.308-0.883 0.761-0.16 0.907-0.703 1.481-1.636 1.719-0.614 0.133-1.043 0.414-1.282 0.84-0.265 0.508-0.082 1 0.559 1.481 1.148 0.851 5.094 1.492 11.84 1.918 6.402 0.429 10.015 0.468 10.84 0.121 0.347-0.133 1.203-1.133 2.562-3 1.387-1.84 2.156-2.786 2.317-2.84 0.347-0.133 0.722-0.574 1.121-1.321 0.402-0.824 0.414-1.359 0.039-1.597-0.317-0.215-0.825-0.266-1.52-0.16z" inkscape:connector-curvature="0"/>
      <path id="path120" style="fill-rule:evenodd;fill:#fff0b8" d="m14.238 5.879c-0.238 0.16-0.426 0.309-0.558 0.441l-0.078 0.161c4.664-1.149 7.371-1.719 8.117-1.719 0.883 0 2.215-0.067 4-0.199 2.187-0.188 3.59-0.387 4.203-0.602 0.691-0.242 0.68-0.441-0.043-0.601-0.691-0.133-1.481-0.133-2.359 0l-9.079 1.32-2.281 0.68c-0.879 0.082-1.519 0.253-1.922 0.519z" inkscape:connector-curvature="0"/>
      <path id="path122" style="fill-rule:evenodd;fill:#d48900" d="m34.078 2.481c-1.066 0.187-2 0.265-2.797 0.238-0.906-0.051-2.32 0.066-4.242 0.359-2.641 0.43-4.867 0.723-6.68 0.883-1.597 0.133-3.734 0.707-6.398 1.719-1.52 0.586-2.453 0.441-2.801-0.442-0.215-0.503-0.558-0.73-1.039-0.679-0.48 0.054-0.773 0.308-0.883 0.761l-0.039 0.2c0.293-0.535 0.641-0.707 1.039-0.52 0.215 0.078 0.375 0.254 0.481 0.52 0.082 0.293 0.148 0.519 0.203 0.679 0.078 0.266 0.371 0.454 0.879 0.563 0.558 0.078 1.16-0.016 1.801-0.281 0.664-0.27 1.89-0.629 3.679-1.082 1.574-0.399 2.824-0.68 3.758-0.84 0.508-0.082 2.094-0.188 4.762-0.321 2.773-0.105 4.613-0.226 5.519-0.359 1.012-0.133 1.68-0.266 2-0.398 0.481-0.188 0.868-0.309 1.16-0.364 0.614-0.132 1.067-0.05 1.36 0.243 0.051-0.321-0.028-0.559-0.242-0.719-0.317-0.215-0.825-0.266-1.52-0.16z" inkscape:connector-curvature="0"/>
      <path id="path124" style="fill-rule:evenodd;fill:#dbbb46" d="m8.238 7.442c0.348-0.055 0.563-0.227 0.641-0.524 0.055-0.156 0.109-0.465 0.16-0.918-0.293 0.508-0.773 0.852-1.437 1.039-0.536 0.11-0.934 0.348-1.204 0.723-0.293 0.426-0.253 0.851 0.122 1.277 0-0.371 0.187-0.719 0.558-1.039 0.348-0.32 0.734-0.508 1.16-0.558z" inkscape:connector-curvature="0"/>
      <path id="path126" style="fill-rule:evenodd;fill:#fff0b8" d="m9.922 7.078c0.293 0.188 0.57 0.282 0.84 0.282 0.293 0.027 0.316-0.118 0.078-0.442-0.106-0.156-0.281-0.492-0.52-1-0.132-0.316-0.265-0.449-0.398-0.398-0.188 0.109-0.27 0.359-0.242 0.761 0 0.426 0.082 0.692 0.242 0.797z" inkscape:connector-curvature="0"/>
      <path id="path128" style="fill-rule:evenodd;fill:#fff0b8" d="m7.281 9.039c0.239 0.055 0.492-0.066 0.758-0.359 0.293-0.266 0.32-0.453 0.082-0.559-0.242-0.109-0.519 0.012-0.84 0.36-0.32 0.32-0.32 0.507 0 0.558z" inkscape:connector-curvature="0"/>
      <path id="path130" style="fill-rule:evenodd;fill:#fff0b8" d="m34.84 3.961c0.187 0.051 0.359 0 0.519-0.16 0.161-0.16 0.133-0.281-0.082-0.359-0.265-0.11-0.492-0.082-0.679 0.078-0.211 0.16-0.133 0.308 0.242 0.441z" inkscape:connector-curvature="0"/>
      <path id="path132" style="fill-rule:evenodd;fill:#d48900" d="m34.801 4.879 0.398-0.918c-0.933 0-1.89 0.067-2.879 0.199-8.054 1.067-12.121 1.602-12.199 1.602-0.988 0.078-2.746 0.437-5.281 1.078l-3.481 0.922 5.801 1.797 17.641-4.68z" inkscape:connector-curvature="0"/>
      <path id="path134" style="fill-rule:evenodd;fill:#9e6500" d="m33.602 4.36c-0.454 0.187-6.641 1.507-18.563 3.96l-7.719 1.559-0.718 0.281-0.364 1.762 18.121-0.961 3.52-1.121 7.562-3.68 0.161-1.961c-0.883-0.078-1.547-0.027-2 0.161z" inkscape:connector-curvature="0"/>
      <path id="path136" style="fill-rule:evenodd;fill:#c98000" d="m35.441 6.16-0.761-0.121-8.481 2.52-19.961 3.359c5.414 1.602 10.055 2.707 13.922 3.32 2.613 0.43 4.707 0.442 6.281 0.043 1.145-0.296 2.172-0.867 3.079-1.722 1.039-0.957 3.015-3.426 5.921-7.399z" inkscape:connector-curvature="0"/>
      <path id="path138" style="fill-rule:evenodd;fill:#dbc674" d="m34.719 4.199c-5.254 0.614-9.719 1.266-13.399 1.961-3.625 0.692-8.293 1.934-14 3.719l-0.082 1.961 15.801 1.559 11.641-7.36 0.039-1.84z" inkscape:connector-curvature="0"/>
      <path id="path140" style="fill-rule:evenodd;fill:#ffef9e" d="m7.238 11.84c5.176 1.387 9.668 2.387 13.481 3 2.668 0.398 4.761 0.281 6.281-0.359 1.148-0.481 2.309-1.508 3.48-3.082 1.415-1.868 2.813-3.653 4.2-5.36-4.453 0.774-9.36 1.653-14.719 2.641-4.856 0.879-9.094 1.933-12.723 3.16z" inkscape:connector-curvature="0"/>
      <g id="g142">
        <g id="g144">
          <g id="g150">
            <path id="path158" style="fill-rule:evenodd;fill:url(#linearGradient152)" d="m23.68 13.918c0.668 0.242 1.215 0.27 1.64 0.082 0.399-0.187 0.535-0.492 0.399-0.922-0.16-0.476-0.332-0.785-0.52-0.918-0.293-0.215-0.851-0.375-1.679-0.48-0.985-0.133-1.559 0.055-1.719 0.558-0.133 0.563 0.492 1.122 1.879 1.68z" inkscape:connector-curvature="0"/>
          </g>
        </g>
      </g>
      <g id="g160">
        <g id="g162">
          <g id="g168">
            <path id="path176" style="fill-rule:evenodd;fill:url(#linearGradient170)" d="m27.078 13.238c0.43 0.11 0.801-0.05 1.121-0.476 0.348-0.453 0.321-0.801-0.078-1.043-0.453-0.266-0.933-0.117-1.441 0.441-0.508 0.535-0.375 0.895 0.398 1.078z" inkscape:connector-curvature="0"/>
          </g>
        </g>
      </g>
      <g id="g178">
        <g id="g180">
          <g id="g186">
            <path id="path194" style="fill-rule:evenodd;fill:url(#linearGradient188)" d="m29.121 10.801c0.399 0.078 0.852-0.082 1.359-0.481 0.559-0.425 0.641-0.8 0.239-1.121-0.399-0.347-0.879-0.199-1.438 0.442-0.562 0.664-0.613 1.051-0.16 1.16z" inkscape:connector-curvature="0"/>
          </g>
        </g>
      </g>
      <g id="g196">
        <g id="g198">
          <g id="g204">
            <path id="path212" style="fill-rule:evenodd;fill:url(#linearGradient206)" d="m28.199 10.199c0.266 0 0.508-0.214 0.723-0.64 0.183-0.453 0.09-0.758-0.281-0.918-0.43-0.16-0.762 0.066-1 0.679-0.215 0.614-0.028 0.907 0.558 0.879z" inkscape:connector-curvature="0"/>
          </g>
        </g>
      </g>
      <g id="g214">
        <g id="g216">
          <g id="g222">
            <path id="path230" style="fill-rule:evenodd;fill:url(#linearGradient224)" d="m14.281 12.399c0.774 0.187 1.426 0.093 1.957-0.278 0.508-0.375 0.535-0.707 0.082-1s-1.175-0.215-2.16 0.239c-0.988 0.425-0.945 0.773 0.121 1.039z" inkscape:connector-curvature="0"/>
          </g>
        </g>
      </g>
      <g id="g232">
        <g id="g234">
          <g id="g240">
            <path id="path248" style="fill-rule:evenodd;fill:url(#linearGradient242)" d="m18.48 13.762c0.508 0.051 0.907 0 1.2-0.16 0.32-0.16 0.32-0.414 0-0.762-0.375-0.348-0.84-0.293-1.399 0.16-0.562 0.426-0.496 0.68 0.199 0.762z" inkscape:connector-curvature="0"/>
          </g>
        </g>
      </g>
      <g id="g250">
        <g id="g252">
          <g id="g258">
            <path id="path266" style="fill-rule:evenodd;fill:url(#linearGradient260)" d="m10.879 12.641c0.988-0.348 1.109-0.668 0.359-0.961-0.558-0.238-0.918-0.145-1.078 0.281-0.133 0.399 0.106 0.625 0.719 0.68z" inkscape:connector-curvature="0"/>
          </g>
        </g>
      </g>
      <g id="g268">
        <g id="g270">
          <g id="g276">
            <path id="path284" style="fill-rule:evenodd;fill:url(#linearGradient278)" d="m20.801 10.879c0.32-0.133 0.492-0.332 0.519-0.598 0.028-0.32-0.175-0.562-0.601-0.718-0.481-0.164-0.719 0.078-0.719 0.718 0 0.614 0.266 0.813 0.801 0.598z" inkscape:connector-curvature="0"/>
          </g>
        </g>
      </g>
      <g id="g286">
        <g id="g288">
          <g id="g294">
            <path id="path302" style="fill-rule:evenodd;fill:url(#linearGradient296)" d="m30.48 6.078c0.055-0.398-0.015-0.664-0.199-0.797-0.187-0.132-0.386-0.121-0.601 0.039-0.215 0.133-0.348 0.348-0.399 0.641-0.054 0.293-0.015 0.547 0.117 0.758 0.137 0.187 0.336 0.199 0.602 0.043 0.266-0.16 0.426-0.387 0.48-0.684z" inkscape:connector-curvature="0"/>
          </g>
        </g>
      </g>
      <g id="g304">
        <g id="g306">
          <g id="g312">
            <path id="path320" style="fill-rule:evenodd;fill:url(#linearGradient314)" d="m27 5.199-3.199 0.481 0.597 0.558c0.481 0.375 1 0.497 1.563 0.364 0.531-0.16 0.867-0.442 1-0.84 0.078-0.215 0.094-0.402 0.039-0.563z" inkscape:connector-curvature="0"/>
          </g>
        </g>
      </g>
      <g id="g322">
        <g id="g338" mask="url(#mask330)">
          <g id="g350">
            <g id="g352" clip-path="url(#clipPath342)">
              <g id="g354" transform="translate(0 -.16)">
                <g id="g358">
                  <g id="g360" clip-path="url(#clipPath346)">
                    <g id="g362">
                      <path id="path364" style="fill-rule:evenodd;fill:#664b16" d="m26.801 15.32c-2.906-1.894-4.883-3.105-5.922-3.64-2.293-1.145-3.691-1.946-4.199-2.399-2.055-1.043-3.254-2.043-3.602-3-0.183-0.586-0.078-1.203 0.32-1.84 0.215-0.32 0.442-0.574 0.68-0.761-3.332 0.855-5.426 1.441-6.277 1.761-0.508 0.211 1.453 2.012 5.879 5.399 2.238 1.707 4.519 3.387 6.84 5.039l5-0.359c0.585-0.055 1.015-0.122 1.281-0.2z" inkscape:connector-curvature="0"/>
                    </g>
                  </g>
                </g>
              </g>
            </g>
          </g>
        </g>
      </g>
      <g id="g366">
        <g id="g382" mask="url(#mask374)">
          <g id="g394">
            <g id="g396" clip-path="url(#clipPath386)">
              <g id="g398" transform="translate(0 -.16)">
                <g id="g402">
                  <g id="g404" clip-path="url(#clipPath390)">
                    <g id="g406">
                      <path id="path408" style="fill-rule:evenodd;fill:#785307" d="m32.32 9.52c-0.347-0.454-0.84-0.813-1.48-1.079-0.481-0.214-1.121-0.586-1.918-1.121-0.828 0.215-1.43 0.321-1.801 0.321l-0.883 0.039 3.403 1.718c0.492 0.239 0.781 0.391 0.859 0.461l0.02-0.019 1.082 0.281c0.238 0.024 0.437-0.027 0.597-0.16 0.188-0.133 0.227-0.281 0.121-0.441z" inkscape:connector-curvature="0"/>
                    </g>
                  </g>
                </g>
              </g>
            </g>
          </g>
        </g>
      </g>
      <g id="g410">
        <g id="g426" mask="url(#mask418)">
          <g id="g438">
            <g id="g440" clip-path="url(#clipPath430)">
              <g id="g442" transform="translate(0 -.16)">
                <g id="g446">
                  <g id="g448" clip-path="url(#clipPath434)">
                    <g id="g450">
                      <path id="path452" style="fill-rule:evenodd;fill:#784000" d="m29.801 13.039c-0.16-0.211-0.375-0.387-0.641-0.519-0.082-0.055-0.668-0.321-1.762-0.801-1.597-0.719-3.078-1.492-4.437-2.321l-1.563-0.878c-0.878 0.054-1.437 0.148-1.679 0.281l-0.797 0.359c2.613 1.149 4.719 2.106 6.316 2.879 2.082 1.016 3.336 1.508 3.762 1.481 0.133-0.028 0.375-0.04 0.719-0.04 0.242-0.054 0.269-0.199 0.082-0.441z" inkscape:connector-curvature="0"/>
                    </g>
                  </g>
                </g>
              </g>
            </g>
          </g>
        </g>
      </g>
      <g id="g454">
        <g id="g470" mask="url(#mask462)">
          <g id="g482">
            <g id="g484" clip-path="url(#clipPath474)">
              <g id="g486" transform="translate(0 -.16)">
                <g id="g490">
                  <g id="g492" clip-path="url(#clipPath478)">
                    <g id="g494">
                      <path id="path496" style="fill-rule:evenodd;fill:#785307" d="m23.16 17.559c0.426 0.054 0.668 0 0.719-0.161 0.027-0.21-0.453-0.543-1.438-1-3.121-1.332-4.961-2.078-5.519-2.238-0.402-0.133-0.828-0.332-1.281-0.601l-1.442 0.402c1.789 0.586 3.227 1.16 4.321 1.719 0.828 0.425 1.718 0.84 2.679 1.242 0.989 0.371 1.641 0.586 1.961 0.637z" inkscape:connector-curvature="0"/>
                    </g>
                  </g>
                </g>
              </g>
            </g>
          </g>
        </g>
      </g>
      <path id="path498" style="fill-rule:evenodd;fill:#9e6500" d="m31.199 19.32-0.679-0.519-27.719-15.121c-0.453-0.348-1.176-0.641-2.16-0.879l-0.2 1.801 7.559 6.238 3.641 2.359 19.597 7.84-0.039-1.719z" inkscape:connector-curvature="0"/>
      <path id="path500" style="fill-rule:evenodd;fill:#c98000" d="m10.078 10.32-8.758-5.519-0.879-0.199c2.399 4.718 4.067 7.703 5 8.957 0.879 1.148 1.907 2.054 3.079 2.722 1.652 0.957 3.949 1.758 6.878 2.399 4.348 0.933 9.629 1.719 15.84 2.359l-21.16-10.719z" inkscape:connector-curvature="0"/>
      <path id="path502" style="fill-rule:evenodd;fill:#dbc674" d="m12.559 15.879 17.601 4.723 0.36-1.801c-5.918-3.84-10.801-6.773-14.641-8.801-3.867-2-8.613-4.293-14.238-6.883l-0.321 1.684 11.239 11.078z" inkscape:connector-curvature="0"/>
      <path id="path504" style="fill-rule:evenodd;fill:#ebd88d" d="m30.16 20.602c-3.707-2.508-8.121-5.094-13.238-7.762-5.707-2.988-10.91-5.668-15.602-8.039 1.172 2.078 2.348 4.227 3.52 6.437 0.988 1.868 2.066 3.243 3.238 4.122 1.496 1.175 3.75 2.082 6.762 2.718 4.293 0.934 9.398 1.774 15.32 2.524z" inkscape:connector-curvature="0"/>
      <g id="g506">
        <g id="g508">
          <g id="g514">
            <path id="path522" style="fill-rule:evenodd;fill:url(#linearGradient516)" d="m6.602 6.918c0.425-0.344 0.453-0.68 0.078-1-0.399-0.316-0.692-0.359-0.879-0.117-0.16 0.184-0.121 0.465 0.121 0.84 0.211 0.398 0.437 0.492 0.68 0.277z" inkscape:connector-curvature="0"/>
          </g>
        </g>
      </g>
      <g id="g524">
        <g id="g526">
          <g id="g532">
            <path id="path540" style="fill-rule:evenodd;fill:url(#linearGradient534)" d="m11.039 9.68c0.055 0.32 0.441 0.574 1.16 0.762 0.348 0.078 0.696 0.132 1.039 0.16l-0.117-0.84c-0.187-0.59-0.519-0.922-1-1-0.48-0.082-0.801 0.051-0.961 0.398l-0.121 0.52z" inkscape:connector-curvature="0"/>
          </g>
        </g>
      </g>
      <g id="g542">
        <g id="g544">
          <g id="g550">
            <path id="path558" style="fill-rule:evenodd;fill:url(#linearGradient552)" d="m23.32 15.559c1.227-0.399 1.067-0.746-0.48-1.039-0.133 0.105-0.145 0.32-0.039 0.64 0.078 0.348 0.254 0.481 0.519 0.399z" inkscape:connector-curvature="0"/>
          </g>
        </g>
      </g>
      <g id="g560">
        <g id="g576" mask="url(#mask568)">
          <g id="g588">
            <g id="g590" clip-path="url(#clipPath580)">
              <g id="g592" transform="translate(0 -.16)">
                <g id="g596">
                  <g id="g598" clip-path="url(#clipPath584)">
                    <g id="g600">
                      <path id="path602" style="fill-rule:evenodd;fill:#664b16" d="m30.52 21.082c0.425 0 0.48-0.187 0.16-0.562-0.293-0.348-0.641-0.598-1.039-0.758-0.161-0.082-0.469-0.309-0.922-0.68-0.371-0.297-0.653-0.457-0.84-0.48-0.184-0.028-0.359-0.27-0.52-0.723-0.078-0.211-0.144-0.426-0.199-0.641-0.027-0.238-0.105-0.398-0.242-0.476l-1.316-0.961c-0.055 0.691-0.282 1.011-0.684 0.961-0.238-0.028-0.785-0.336-1.637-0.922-1.066-0.774-1.883-1.332-2.441-1.68-1.332-0.933-3.199-1.855-5.602-2.762-0.851-0.293-1.972-0.785-3.359-1.476-1.227-0.59-2.238-1.121-3.039-1.602-0.879-0.535-2.32-0.945-4.32-1.238 1.359 1.223 2.945 2.543 4.761 3.957 3.598 2.828 6.481 4.695 8.637 5.602 2.457 1.066 5.082 2.078 7.883 3.039 2.664 0.933 4.238 1.402 4.719 1.402z" inkscape:connector-curvature="0"/>
                    </g>
                  </g>
                </g>
              </g>
            </g>
          </g>
        </g>
      </g>
      <path id="path604" style="fill-rule:evenodd;fill:#ffab0f" d="m16.879 19.559c7.309 2.16 11.656 3.082 13.043 2.761 0.769-0.187 1.066-0.558 0.879-1.121-0.188-0.48-0.586-0.894-1.199-1.238-0.911-0.535-1.387-1.266-1.442-2.199-0.027-0.453-0.281-0.789-0.762-1-0.503-0.215-0.918-0.137-1.238 0.238-0.558 0.668-1.601 0.442-3.121-0.68-2.613-1.949-4.785-3.292-6.519-4.039-1.895-0.828-4.215-1.933-6.961-3.32-2-1.016-3.481-1.668-4.438-1.961-0.855-0.265-1.84-0.691-2.961-1.281-0.719-0.371-1.265-0.52-1.64-0.438-0.454 0.079-0.532 0.571-0.239 1.481 0.266 0.851 0.574 1.387 0.918 1.598 0.16 0.109 0.789 1.253 1.879 3.441 1.121 2.215 1.844 3.453 2.16 3.719 0.828 0.64 4.707 1.988 11.641 4.039z" inkscape:connector-curvature="0"/>
      <path id="path606" style="fill-rule:evenodd;fill:#fff0b8" d="m22.199 16.68c0.696 0.613 1.602 1.066 2.723 1.359 1.172 0.321 1.453 0.293 0.84-0.078-3.254-1.84-5.016-2.867-5.282-3.082-0.347-0.293-1.187-0.785-2.519-1.48-1.121-0.614-2.066-1.094-2.84-1.438-3.359-1.629-5.148-2.508-5.359-2.641-0.668-0.425-1.457-0.585-2.364-0.48 1.817 0.988 3.387 1.785 4.723 2.398 1.973 0.856 3.891 1.774 5.758 2.762 2.187 1.145 3.629 2.039 4.32 2.68z" inkscape:connector-curvature="0"/>
      <path id="path608" style="fill-rule:evenodd;fill:#d48900" d="m25.16 18.078c0.559 0.137 0.906 0.094 1.039-0.117 0.082-0.133 0.199-0.336 0.36-0.601 0.136-0.188 0.336-0.282 0.601-0.282 0.481 0 0.813 0.309 1 0.922v-0.238c-0.027-0.453-0.281-0.789-0.762-1-0.503-0.215-0.918-0.137-1.238 0.238-0.558 0.668-1.601 0.442-3.121-0.68-2.613-1.949-4.785-3.292-6.519-4.039-1.895-0.828-4.215-1.933-6.961-3.32-2-1.016-3.481-1.668-4.438-1.961-0.855-0.265-1.84-0.691-2.961-1.281-0.719-0.371-1.265-0.52-1.64-0.438-0.215 0.079-0.348 0.266-0.399 0.559 0.399-0.105 0.891 0 1.481 0.32 0.32 0.188 0.703 0.442 1.16 0.758 0.316 0.215 1.011 0.586 2.078 1.121 0.961 0.453 2.906 1.266 5.84 2.442 2.851 1.144 4.535 1.851 5.039 2.117 0.988 0.508 2.281 1.226 3.883 2.16 1.812 1.094 3.039 1.895 3.679 2.402 0.641 0.508 1.266 0.813 1.879 0.918z" inkscape:connector-curvature="0"/>
      <path id="path610" style="fill-rule:evenodd;fill:#d48900" d="m28.801 20.078c0.453 0.215 0.824 0.524 1.121 0.922 0.344 0.426 0.476 0.813 0.398 1.16 0.508-0.242 0.641-0.613 0.399-1.121-0.211-0.426-0.586-0.785-1.117-1.078-0.723-0.453-1.161-0.961-1.321-1.519-0.027 0.425-0.043 0.73-0.043 0.918 0.028 0.293 0.215 0.535 0.563 0.718z" inkscape:connector-curvature="0"/>
      <path id="path612" style="fill-rule:evenodd;fill:#fff0b8" d="m27.121 19.078c0.16-0.023 0.293-0.226 0.399-0.597 0.082-0.375 0.039-0.629-0.122-0.762-0.132-0.133-0.304-0.078-0.519 0.16-0.348 0.375-0.598 0.613-0.758 0.723-0.293 0.183-0.281 0.332 0.039 0.437 0.293 0.106 0.613 0.121 0.961 0.039z" inkscape:connector-curvature="0"/>
      <path id="path614" style="fill-rule:evenodd;fill:#fff0b8" d="m29.52 21.879c0.375 0.106 0.414-0.066 0.121-0.519-0.27-0.426-0.547-0.641-0.84-0.641-0.242 0-0.242 0.176 0 0.519 0.238 0.375 0.48 0.59 0.719 0.641z" inkscape:connector-curvature="0"/>
      <path id="path616" style="fill-rule:evenodd;fill:#fff0b8" d="m1.078 6.762c0.43 0.023 0.547-0.07 0.363-0.281-0.214-0.215-0.468-0.321-0.761-0.321-0.239 0-0.293 0.094-0.16 0.282 0.16 0.183 0.347 0.293 0.558 0.32z" inkscape:connector-curvature="0"/>
      <path id="path618" style="fill-rule:evenodd;fill:#d48900" d="m28.68 21.801-5.481-3.961c-2.293-1.652-5.344-3.348-9.16-5.078-0.851-0.375-2.199-1.043-4.039-2-1.68-0.856-3.012-1.496-4-1.922-2.188-0.906-4.066-1.625-5.641-2.16 1.227 1.574 2.746 2.973 4.563 4.199l8.68 7c2.023 0.641 4.105 1.309 6.238 2 4.32 1.359 6.84 2.121 7.558 2.281 1.176 0.239 2.016 0.293 2.524 0.16-0.402-0.054-0.817-0.226-1.242-0.519z" inkscape:connector-curvature="0"/>
      <path id="path620" style="fill-rule:evenodd;fill:#9e6500" d="m29.359 22.641-7.961-4.36c-3.066-1.707-6.16-3.429-9.277-5.16-6.242-3.468-9.508-5.308-9.801-5.519-0.453-0.348-1.16-0.641-2.121-0.883l-0.199 1.801 7.359 6.242 3.563 2.316 19.156 7.762-0.078-1.68-0.641-0.519z" inkscape:connector-curvature="0"/>
      <path id="path622" style="fill-rule:evenodd;fill:#c98000" d="m9.398 14.238-8.558-5.519-0.84-0.199c2.32 4.718 3.934 7.707 4.84 8.961 0.855 1.144 1.855 2.054 3 2.718 1.629 0.961 3.867 1.746 6.719 2.36 4.269 0.906 9.441 1.668 15.519 2.281l-20.68-10.602z" inkscape:connector-curvature="0"/>
      <path id="path624" style="fill-rule:evenodd;fill:#dbc674" d="m11.84 19.801 17.16 4.598 0.359-1.758c-5.785-3.813-10.547-6.723-14.281-8.723-3.785-2.023-8.426-4.316-13.918-6.879l-0.32 1.68 11 11.082z" inkscape:connector-curvature="0"/>
      <path id="path626" style="fill-rule:evenodd;fill:#ffef9e" d="m29 24.399c-3.625-2.481-7.934-5.039-12.922-7.68-5.57-2.957-10.652-5.625-15.238-8 1.148 2.082 2.293 4.226 3.441 6.441 0.957 1.868 2 3.239 3.117 4.121 1.469 1.145 3.68 2.039 6.641 2.68 4.188 0.906 9.176 1.719 14.961 2.438z" inkscape:connector-curvature="0"/>
      <g id="g628">
        <g id="g630">
          <g id="g636">
            <path id="path644" style="fill-rule:evenodd;fill:url(#linearGradient638)" d="m11.039 20c1.602 0.051 2.375-0.199 2.32-0.762-0.027-0.531-0.597-0.918-1.718-1.16-0.907-0.211-1.536-0.293-1.879-0.238-0.242 0.078-0.481 0.293-0.723 0.641-0.238 0.32-0.16 0.652 0.242 1 0.426 0.32 1.012 0.492 1.758 0.519z" inkscape:connector-curvature="0"/>
          </g>
        </g>
      </g>
      <g id="g646">
        <g id="g648">
          <g id="g654">
            <path id="path662" style="fill-rule:evenodd;fill:url(#linearGradient656)" d="m7.559 18.121c0.855 0.106 1.066-0.176 0.64-0.84-0.453-0.695-0.945-1-1.48-0.921-0.453 0.054-0.547 0.347-0.278 0.878 0.293 0.536 0.664 0.829 1.118 0.883z" inkscape:connector-curvature="0"/>
          </g>
        </g>
      </g>
      <g id="g664">
        <g id="g666">
          <g id="g672">
            <path id="path680" style="fill-rule:evenodd;fill:url(#linearGradient674)" d="m5.879 15.16c0.48 0.055 0.496-0.32 0.043-1.121-0.481-0.801-0.961-1.121-1.442-0.961-0.48 0.137-0.468 0.508 0.04 1.121 0.453 0.563 0.906 0.879 1.359 0.961z" inkscape:connector-curvature="0"/>
          </g>
        </g>
      </g>
      <g id="g682">
        <g id="g684">
          <g id="g690">
            <path id="path698" style="fill-rule:evenodd;fill:url(#linearGradient692)" d="m6.961 14.961c0.613 0.238 0.867 0.039 0.758-0.601-0.133-0.641-0.453-0.961-0.957-0.961-0.43 0-0.574 0.242-0.442 0.722 0.133 0.426 0.348 0.707 0.641 0.84z" inkscape:connector-curvature="0"/>
          </g>
        </g>
      </g>
      <g id="g700">
        <g id="g702">
          <g id="g708">
            <path id="path716" style="fill-rule:evenodd;fill:url(#linearGradient710)" d="m21.398 22.238c1.204 0.188 1.321-0.105 0.364-0.878-1.016-0.801-1.774-1.145-2.282-1.04-0.507 0.079-0.535 0.387-0.082 0.918 0.481 0.563 1.149 0.895 2 1z" inkscape:connector-curvature="0"/>
          </g>
        </g>
      </g>
      <g id="g718">
        <g id="g720">
          <g id="g726">
            <path id="path734" style="fill-rule:evenodd;fill:url(#linearGradient728)" d="m16.68 21.879c0.746 0.188 0.867-0.027 0.359-0.641-0.504-0.613-0.984-0.824-1.437-0.636-0.43 0.183-0.497 0.41-0.204 0.679 0.27 0.266 0.696 0.465 1.282 0.598z" inkscape:connector-curvature="0"/>
          </g>
        </g>
      </g>
      <g id="g736">
        <g id="g738">
          <g id="g744">
            <path id="path752" style="fill-rule:evenodd;fill:url(#linearGradient746)" d="m24.961 23.719c0.664 0.187 0.973 0.082 0.918-0.32-0.078-0.426-0.438-0.637-1.078-0.637-0.563 0-0.735 0.144-0.52 0.437 0.211 0.266 0.438 0.442 0.68 0.52z" inkscape:connector-curvature="0"/>
          </g>
        </g>
      </g>
      <g id="g754">
        <g id="g756">
          <g id="g762">
            <path id="path770" style="fill-rule:evenodd;fill:url(#linearGradient764)" d="m14.762 18.36c0.558 0.425 0.89 0.347 1-0.239 0.078-0.562-0.16-0.867-0.723-0.922-0.48-0.027-0.719 0.121-0.719 0.442 0 0.265 0.145 0.504 0.442 0.719z" inkscape:connector-curvature="0"/>
          </g>
        </g>
      </g>
      <g id="g772">
        <g id="g774">
          <g id="g780">
            <path id="path788" style="fill-rule:evenodd;fill:url(#linearGradient782)" d="m5.32 10.36c0 0.265 0.121 0.519 0.36 0.757 0.265 0.27 0.492 0.336 0.679 0.203 0.188-0.136 0.266-0.347 0.243-0.64 0-0.266-0.094-0.508-0.282-0.719-0.215-0.215-0.414-0.308-0.601-0.281-0.239 0.055-0.371 0.281-0.399 0.68z" inkscape:connector-curvature="0"/>
          </g>
        </g>
      </g>
      <g id="g790">
        <g id="g792">
          <g id="g798">
            <path id="path806" style="fill-rule:evenodd;fill:url(#linearGradient800)" d="m9.199 10.879c-0.078 0.133-0.105 0.309-0.078 0.52 0.078 0.429 0.399 0.8 0.957 1.121 0.563 0.32 1.137 0.414 1.723 0.281 0.32-0.055 0.574-0.148 0.758-0.281l-3.36-1.641z" inkscape:connector-curvature="0"/>
          </g>
        </g>
      </g>
      <g id="g808">
        <g id="g810">
          <g id="g816">
            <path id="path824" style="fill-rule:evenodd;fill:url(#linearGradient818)" d="m22.359 19.762c0.403-0.027 0.453-0.227 0.161-0.602-0.293-0.398-0.614-0.586-0.961-0.558-0.321 0.023-0.348 0.238-0.079 0.636 0.266 0.375 0.559 0.547 0.879 0.524z" inkscape:connector-curvature="0"/>
          </g>
        </g>
      </g>
      <g id="g826">
        <g id="g842" mask="url(#mask834)">
          <g id="g854">
            <g id="g856" clip-path="url(#clipPath846)">
              <g id="g858" transform="translate(0 -.16)">
                <g id="g862">
                  <g id="g864" clip-path="url(#clipPath850)">
                    <g id="g866">
                      <path id="path868" style="fill-rule:evenodd;fill:#965a00" d="m2.922 13.922c0.664 0.238 2.117 0.398 4.359 0.476l4.559 0.161-1.078-0.438-2.282-1.199c-1.093 0.078-1.972 0.078-2.64 0-0.852-0.082-1.52-0.149-2-0.203-0.879-0.051-1.399-0.039-1.559 0.043-0.187 0.078-0.199 0.265-0.043 0.558 0.188 0.321 0.414 0.52 0.684 0.602z" inkscape:connector-curvature="0"/>
                    </g>
                  </g>
                </g>
              </g>
            </g>
          </g>
        </g>
      </g>
      <g id="g870">
        <g id="g886" mask="url(#mask878)">
          <g id="g898">
            <g id="g900" clip-path="url(#clipPath890)">
              <g id="g902" transform="translate(0 -.16)">
                <g id="g906">
                  <g id="g908" clip-path="url(#clipPath894)">
                    <g id="g910">
                      <path id="path912" style="fill-rule:evenodd;fill:#965a00" d="m21.48 20.039-1-0.719c-0.16-0.16-0.574-0.386-1.242-0.679l-0.918-0.403h-2.082c-2.371 0-4.383-0.066-6.039-0.199-1.492-0.133-2.504-0.211-3.039-0.238-0.851-0.055-1.387-0.028-1.601 0.078-0.266 0.105-0.321 0.199-0.161 0.281 0.348 0.133 0.641 0.281 0.883 0.442 0.586 0.343 2.813 0.613 6.68 0.796l8.519 0.641z" inkscape:connector-curvature="0"/>
                    </g>
                  </g>
                </g>
              </g>
            </g>
          </g>
        </g>
      </g>
      <g id="g914">
        <g id="g930" mask="url(#mask922)">
          <g id="g942">
            <g id="g944" clip-path="url(#clipPath934)">
              <g id="g946" transform="translate(0 -.16)">
                <g id="g950">
                  <g id="g952" clip-path="url(#clipPath938)">
                    <g id="g954">
                      <path id="path956" style="fill-rule:evenodd;fill:#965a00" d="m15.52 22.801c0.48 0.133 1.414 0.265 2.8 0.398 1.52 0.16 2.852 0.254 4 0.281 1.625 0.051 3.746 0.293 6.36 0.719l-2-1.16c-0.668 0-1.293-0.039-1.879-0.117-1.414-0.27-4.121-0.563-8.121-0.883-1.465-0.105-2.172-0.039-2.121 0.199 0.027 0.188 0.347 0.375 0.961 0.563z" inkscape:connector-curvature="0"/>
                    </g>
                  </g>
                </g>
              </g>
            </g>
          </g>
        </g>
      </g>
    </g>
  </g>
<metadata><rdf:RDF><cc:Work><dc:format>image/svg+xml</dc:format><dc:type rdf:resource="http://purl.org/dc/dcmitype/StillImage"/><cc:license rdf:resource="http://creativecommons.org/licenses/publicdomain/"/><dc:publisher><cc:Agent rdf:about="http://openclipart.org/"><dc:title>Openclipart</dc:title></cc:Agent></dc:publisher></cc:Work><cc:License rdf:about="http://creativecommons.org/licenses/publicdomain/"><cc:permits rdf:resource="http://creativecommons.org/ns#Reproduction"/><cc:permits rdf:resource="http://creativecommons.org/ns#Distribution"/><cc:permits rdf:resource="http://creativecommons.org/ns#DerivativeWorks"/></cc:License></rdf:RDF></metadata></svg>
