<?xml version="1.0" encoding="UTF-8"?>
<!DOCTYPE svg PUBLIC "-//W3C//DTD SVG 1.1//EN" "http://www.w3.org/Graphics/SVG/1.1/DTD/svg11.dtd">
<svg version="1.1" xmlns="http://www.w3.org/2000/svg" xmlns:xlink="http://www.w3.org/1999/xlink" x="0" y="0" width="387.5" height="855" viewBox="0, 0, 387.5, 855">
  <g id="Layer_1">
    <path d="M147.117,61.255 L240.383,61.255 L240.383,127.912 L147.117,127.912 z" fill="#A3333B"/>
    <path d="M76.35,850.413 C49,850.413 26.087,829.922 23.052,802.75 L22.997,802.125 L6.125,525.917 L6.125,525.538 C6.125,456.98 42.865,394.81 102.478,361.638 L123.025,132.273 C124.68,113.533 140.135,99.388 158.975,99.388 L228.525,99.388 C247.365,99.388 262.82,113.533 264.475,132.29 L285.02,361.638 C344.635,394.81 381.375,456.98 381.375,525.538 L381.375,525.917 L364.483,802.438 L364.445,802.75 C361.413,829.922 338.5,850.413 311.15,850.413 L76.35,850.413" fill="#A3333B"/>
    <path d="M273.175,369.488 L252.025,133.388 C250.95,121.213 240.75,111.888 228.525,111.888 L158.975,111.888 C146.75,111.888 136.55,121.213 135.475,133.388 L114.325,369.488 C57.525,398.438 18.625,457.438 18.625,525.538 L35.475,801.362 C37.8,822.188 55.4,837.913 76.35,837.913 L311.15,837.913 C332.1,837.913 349.7,822.188 352.025,801.362 L368.875,525.538 C368.875,457.438 329.975,398.438 273.175,369.488" fill="#D03F44"/>
    <path d="M93.542,706.695 L77.717,548.575 C78.942,494.273 130.522,450.42 193.75,450.42 C256.977,450.42 308.557,494.273 309.782,548.575 L293.955,706.695 C293.32,713.045 287.16,717.92 279.772,717.92 L107.727,717.92 C100.337,717.92 94.177,713.045 93.542,706.695" fill="#F0D28F"/>
    <path d="M114.603,699.17 L272.897,699.17 L288.027,548 C286.46,504.515 244.22,469.17 193.75,469.17 C143.28,469.17 101.04,504.515 99.475,548 L114.603,699.17 z M280.872,706.67 L106.628,706.67 L90.77,548.213 L90.778,547.997 C92.342,500.398 138.538,461.67 193.75,461.67 C248.96,461.67 295.158,500.398 296.723,547.997 L296.73,548.213 L296.71,548.427 L280.872,706.67" fill="#B6A573"/>
    <path d="M262.297,621.965 C255.365,638.737 233.655,645.685 213.805,637.48 C193.957,629.28 183.485,609.033 190.417,592.263 C197.347,575.49 218.925,571.555 235.475,585.047 C253.217,582.66 269.227,605.193 262.297,621.965" fill="#D03F44"/>
    <path d="M262.295,621.968 C255.365,638.74 233.655,645.685 213.808,637.483 C212.637,636.997 211.495,636.473 210.387,635.903 C228.997,636.7 244.148,630.598 249.128,618.553 C253.33,608.38 249.41,596.093 239.808,584.95 C255.698,586.328 268.655,606.578 262.295,621.968" fill="#BB3E41"/>
    <path d="M239.5,588.185 L239.983,598.805 L233.46,588.095 L222.148,591.432 L230.825,582.992 L223.528,575.082 L233.718,578.872 L237.255,573.635 L238.953,579.947 L250.063,581.53 L250.038,581.532 L242.008,584.7 L248.253,593.002 L239.5,588.185" fill="#00A37B"/>
    <path d="M239.5,588.185 L239.982,598.805 L233.46,588.095 L222.147,591.432 C223.505,590.122 231.852,587.002 231.852,587.002 L233.335,583.417 L237.215,587.492 L238.295,584.875 L239.382,585.03 L239.807,584.95 C239.807,584.95 238.297,583.235 239.805,582.615 C241.267,582.015 249.522,581.557 250.037,581.532 L242.007,584.7 L248.252,593.002 L239.5,588.185" fill="#009D73"/>
    <path d="M236.51,582.54 C236.51,582.54 243.372,568.87 246.652,570.225 C249.935,571.58 246.867,573.128 246.867,573.128 L237.805,583.075 L236.51,582.54" fill="#00A37B"/>
    <path d="M241.592,582.828 C241.295,583.548 238.355,584.508 237.105,583.73 C235.855,582.27 234.882,582.13 235.18,581.41 C236.86,580.793 236.822,580.562 238.18,581.123 C239.54,581.685 241.887,582.108 241.592,582.828" fill="#009D73"/>
    <path d="M246.865,573.125 L238.045,582.808 L237.585,582.565 L237.195,582.825 C236.822,582.673 236.66,582.235 236.847,581.878 C238.277,579.158 243.812,569.053 246.652,570.228 C247.457,570.56 247.882,570.908 248.06,571.238 L248.067,571.24 C248.6,572.255 246.865,573.125 246.865,573.125" fill="#00A37B"/>
    <path d="M246.865,573.125 L238.045,582.807 L237.585,582.565 C237.585,582.565 244.497,571.762 248.06,571.237 L248.068,571.24 C248.6,572.255 246.865,573.125 246.865,573.125" fill="#009D73"/>
    <path d="M220.085,594.932 C220.085,619.157 196.843,638.797 168.173,638.797 C139.503,638.797 116.258,619.157 116.258,594.932 C116.258,570.702 140.875,554.852 168.173,563.057 C188.845,551.065 220.085,570.702 220.085,594.932" fill="#D03F44"/>
    <path d="M220.085,594.935 C220.085,619.16 196.842,638.797 168.177,638.797 C166.48,638.797 164.805,638.73 163.147,638.59 C186.515,630.085 202.097,614.835 202.097,597.435 C202.097,582.74 190.992,569.58 173.467,560.727 C193.775,554.328 220.085,572.703 220.085,594.935" fill="#BB3E41"/>
    <path d="M137.98,593.985 C137.98,602.96 146.227,610.237 139.892,610.237 C133.555,610.237 128.42,602.96 128.42,593.985 C128.42,585.008 133.555,577.733 139.892,577.733 C146.227,577.733 137.98,585.008 137.98,593.985" fill="#E69795"/>
    <path d="M174.737,564.872 L180.747,577.733 L167.24,567.848 L154.987,577.733 L161.387,562.895 L148.35,556.855 L162.855,556.333 L164.55,548.07 L169.86,554.99 L184.375,551.28 L184.347,551.298 L176.052,559.298 L187.99,566.36 L174.737,564.872" fill="#00A37B"/>
    <path d="M174.737,564.873 L180.747,577.733 L167.24,567.848 L154.987,577.733 C155.99,575.42 164.7,567.318 164.7,567.318 L164.7,562.14 L171.565,565.185 L171.565,561.41 L172.985,561.045 L173.467,560.728 C173.467,560.728 170.732,559.383 172.275,557.85 C173.77,556.363 183.722,551.593 184.347,551.298 L176.052,559.298 L187.99,566.36 L174.737,564.873" fill="#009D73"/>
    <path d="M168.173,559.438 C168.173,559.438 169.667,539.073 174.405,539.073 C179.145,539.073 176.152,542.545 176.152,542.545 L170.04,559.438 L168.173,559.438" fill="#00A37B"/>
    <path d="M174.585,557.2 C174.585,558.24 171.45,560.922 169.51,560.6 C167.225,559.44 165.955,559.76 165.955,558.72 C167.71,557.1 167.548,556.837 169.51,556.837 C171.475,556.837 174.585,556.16 174.585,557.2" fill="#009D73"/>
    <path d="M176.147,542.54 L170.202,558.985 L169.51,558.92 L169.162,559.44 C168.625,559.44 168.202,558.985 168.25,558.448 C168.625,554.362 170.305,539.075 174.405,539.075 C175.57,539.075 176.27,539.282 176.66,539.605 L176.667,539.605 C177.842,540.583 176.147,542.54 176.147,542.54" fill="#00A37B"/>
    <path d="M176.147,542.54 L170.202,558.985 L169.51,558.92 C169.51,558.92 172.53,542.068 176.66,539.605 L176.667,539.605 C177.842,540.583 176.147,542.54 176.147,542.54" fill="#009D73"/>
    <path d="M147.26,127.912 L147.26,127.912 C143.033,127.912 139.513,131.152 139.158,135.362 L118.908,376.962 C69.408,407.912 36.508,462.887 36.508,525.537 L53.358,801.362 C55.683,822.187 73.283,837.912 94.233,837.912 L129.008,837.912 C108.058,837.912 90.458,822.187 88.133,801.362 L71.283,525.537 C71.283,475.77 92.05,430.852 125.413,398.962 C133.925,390.822 138.908,379.67 139.71,367.92 L139.858,365.762 L155.37,136.59 C155.688,131.897 151.965,127.912 147.26,127.912" fill="#DF8885"/>
    <path d="M259.73,94.393 L127.77,94.393 C116.482,94.393 107.33,85.24 107.33,73.953 L107.33,25.028 C107.33,13.74 116.482,4.588 127.77,4.588 L259.73,4.588 C271.017,4.588 280.168,13.74 280.168,25.028 L280.168,73.953 C280.168,85.24 271.017,94.393 259.73,94.393" fill="#A3333B"/>
    <path d="M272.675,25.038 L272.675,73.963 C272.675,81.088 266.875,86.888 259.725,86.888 L127.775,86.888 C120.625,86.888 114.825,81.088 114.825,73.963 L114.825,25.038 C114.825,17.888 120.625,12.088 127.775,12.088 L259.725,12.088 C266.875,12.088 272.675,17.888 272.675,25.038" fill="#D03F44"/>
    <path d="M127.77,91.035 L120.838,91.035 L120.838,36.388 C120.838,34.473 122.39,32.923 124.305,32.923 C126.218,32.923 127.77,34.473 127.77,36.388 L127.77,91.035" fill="#A3333B"/>
    <path d="M140.322,91.035 L133.387,91.035 L133.387,36.388 C133.387,34.473 134.94,32.923 136.855,32.923 C138.77,32.923 140.322,34.473 140.322,36.388 L140.322,91.035" fill="#A3333B"/>
    <path d="M152.872,91.035 L145.94,91.035 L145.94,36.388 C145.94,34.473 147.493,32.923 149.408,32.923 C151.32,32.923 152.872,34.473 152.872,36.388 L152.872,91.035" fill="#A3333B"/>
    <path d="M165.423,91.035 L158.49,91.035 L158.49,36.388 C158.49,34.473 160.042,32.923 161.958,32.923 C163.872,32.923 165.423,34.473 165.423,36.388 L165.423,91.035" fill="#A3333B"/>
    <path d="M177.975,91.035 L171.043,91.035 L171.043,36.388 C171.043,34.473 172.595,32.923 174.51,32.923 C176.423,32.923 177.975,34.473 177.975,36.388 L177.975,91.035" fill="#A3333B"/>
    <path d="M190.525,91.035 L183.595,91.035 L183.595,36.388 C183.595,34.473 185.145,32.923 187.06,32.923 C188.975,32.923 190.525,34.473 190.525,36.388 L190.525,91.035" fill="#A3333B"/>
    <path d="M203.077,91.035 L196.145,91.035 L196.145,36.388 C196.145,34.473 197.695,32.923 199.613,32.923 C201.525,32.923 203.077,34.473 203.077,36.388 L203.077,91.035" fill="#A3333B"/>
    <path d="M215.63,91.035 L208.697,91.035 L208.697,36.388 C208.697,34.473 210.247,32.923 212.162,32.923 C214.077,32.923 215.63,34.473 215.63,36.388 L215.63,91.035" fill="#A3333B"/>
    <path d="M228.177,91.035 L221.247,91.035 L221.247,36.388 C221.247,34.473 222.797,32.923 224.715,32.923 C226.627,32.923 228.177,34.473 228.177,36.388 L228.177,91.035" fill="#A3333B"/>
    <path d="M240.73,91.035 L233.8,91.035 L233.8,36.388 C233.8,34.473 235.35,32.923 237.265,32.923 C239.18,32.923 240.73,34.473 240.73,36.388 L240.73,91.035" fill="#A3333B"/>
    <path d="M253.282,91.035 L246.35,91.035 L246.35,36.388 C246.35,34.473 247.9,32.923 249.817,32.923 C251.73,32.923 253.282,34.473 253.282,36.388 L253.282,91.035" fill="#A3333B"/>
    <path d="M265.833,91.035 L258.903,91.035 L258.903,36.388 C258.903,34.473 260.453,32.923 262.365,32.923 C264.283,32.923 265.833,34.473 265.833,36.388 L265.833,91.035" fill="#A3333B"/>
    <path d="M272.675,25.038 L272.675,25.062 C249.925,30.038 222.825,32.913 193.75,32.913 C164.675,32.913 137.575,30.038 114.825,25.062 L114.825,25.038 C114.825,17.888 120.625,12.088 127.775,12.088 L259.725,12.088 C266.875,12.088 272.675,17.888 272.675,25.038" fill="#DF8885"/>
  </g>
</svg>
