<?xml version="1.0" encoding="UTF-8" standalone="no"?>
<!-- Created with Inkscape (http://www.inkscape.org/) -->

<svg
   xmlns:dc="http://purl.org/dc/elements/1.1/"
   xmlns:cc="http://creativecommons.org/ns#"
   xmlns:rdf="http://www.w3.org/1999/02/22-rdf-syntax-ns#"
   xmlns:svg="http://www.w3.org/2000/svg"
   xmlns="http://www.w3.org/2000/svg"
   xmlns:sodipodi="http://sodipodi.sourceforge.net/DTD/sodipodi-0.dtd"
   xmlns:inkscape="http://www.inkscape.org/namespaces/inkscape"
   id="svg2"
   xml:space="preserve"
   viewBox="0 0 420.00002 920.00002"
   version="1.1"
   inkscape:version="0.91 r13725"
   sodipodi:docname="srirachabottle.svg"
   width="420"
   height="920"><sodipodi:namedview
     pagecolor="#ffffff"
     bordercolor="#666666"
     borderopacity="1"
     objecttolerance="10"
     gridtolerance="10"
     guidetolerance="10"
     inkscape:pageopacity="0"
     inkscape:pageshadow="2"
     inkscape:window-width="1916"
     inkscape:window-height="1035"
     id="namedview10774"
     showgrid="false"
     fit-margin-top="0"
     fit-margin-left="0"
     fit-margin-right="0"
     fit-margin-bottom="0"
     inkscape:zoom="0.67712943"
     inkscape:cx="194.35129"
     inkscape:cy="404.60956"
     inkscape:window-x="4"
     inkscape:window-y="1"
     inkscape:window-maximized="1"
     inkscape:current-layer="g11769" /><defs
     id="defs6"><linearGradient
       id="linearGradient24"
       y2="-7529.7002"
       gradientUnits="userSpaceOnUse"
       x2="-3327.1001"
       gradientTransform="matrix(0.5964,-0.5332,0.5332,0.5964,6020.1,2728.6)"
       y1="-7529.7002"
       x1="-3344.5"><stop
         id="stop26"
         style="stop-color:#d82624"
         offset="0" /><stop
         id="stop28"
         style="stop-color:#7a1614"
         offset="1" /></linearGradient><linearGradient
       id="linearGradient46"
       y2="-7530.5"
       gradientUnits="userSpaceOnUse"
       x2="-3338.2"
       gradientTransform="matrix(0.59672,-0.5328,0.5328,0.59672,6014,2728.2)"
       y1="-7530.5"
       x1="-3342"><stop
         id="stop48"
         style="stop-color:#ff6966"
         offset="0" /><stop
         id="stop50"
         style="stop-color:#b7201e"
         offset="1" /></linearGradient><linearGradient
       id="linearGradient64"
       y2="-7482.1001"
       gradientUnits="userSpaceOnUse"
       x2="-3333.5"
       gradientTransform="matrix(0.59792,-0.53152,0.53152,0.59792,5993.6,2727)"
       y1="-7482.1001"
       x1="-3336"><stop
         id="stop66"
         style="stop-color:#d8413f"
         offset="0" /><stop
         id="stop68"
         style="stop-color:#a71e1c"
         offset="1" /></linearGradient><linearGradient
       id="linearGradient82"
       y2="-7504.1001"
       gradientUnits="userSpaceOnUse"
       x2="-3326.8"
       gradientTransform="matrix(0.59792,-0.53152,0.53152,0.59792,5993.6,2727)"
       y1="-7504.1001"
       x1="-3329.2"><stop
         id="stop84"
         style="stop-color:#b6201e"
         offset="0" /><stop
         id="stop86"
         style="stop-color:#891917"
         offset="1" /></linearGradient><linearGradient
       id="linearGradient118"
       y2="-7547.3999"
       gradientUnits="userSpaceOnUse"
       x2="-3327.6001"
       gradientTransform="matrix(0.596,-0.5336,0.5336,0.596,6026.8,2729)"
       y1="-7547.3999"
       x1="-3344.8999"><stop
         id="stop120"
         style="stop-color:#852800"
         offset="0" /><stop
         id="stop122"
         style="stop-color:#6b1900"
         offset="1" /></linearGradient><linearGradient
       id="linearGradient136"
       y2="-7548.3999"
       gradientUnits="userSpaceOnUse"
       x2="-3327.6001"
       gradientTransform="matrix(0.596,-0.5336,0.5336,0.596,6026.8,2729)"
       y1="-7548.3999"
       x1="-3344.8999"><stop
         id="stop138"
         style="stop-color:#ff8229"
         offset="0" /><stop
         id="stop140"
         style="stop-color:#c43f16"
         offset="1" /></linearGradient><linearGradient
       id="linearGradient154"
       y2="-7529.5"
       gradientUnits="userSpaceOnUse"
       x2="-3333"
       gradientTransform="matrix(0.59576,-0.53392,0.53392,0.59576,6031.3,2729.2)"
       y1="-7529.5"
       x1="-3340.1001"><stop
         id="stop156"
         style="stop-color:#ff8229"
         offset="0" /><stop
         id="stop158"
         style="stop-color:#c43f16"
         offset="1" /></linearGradient><linearGradient
       id="linearGradient174"
       y2="-7518.2002"
       gradientUnits="userSpaceOnUse"
       x2="-3331.6001"
       gradientTransform="matrix(0.59592,-0.53376,0.53376,0.59592,6028.6,2729)"
       y1="-7518.2002"
       x1="-3340.8999"><stop
         id="stop176"
         style="stop-color:#d82624"
         offset="0" /><stop
         id="stop178"
         style="stop-color:#7a1614"
         offset="1" /></linearGradient><linearGradient
       id="linearGradient194"
       y2="-7554.2002"
       gradientUnits="userSpaceOnUse"
       x2="-3338.8"
       gradientTransform="matrix(0.59424,-0.5356,0.5356,0.59424,6056.9,2730.6)"
       y1="-7554.2002"
       x1="-3341.6001"><stop
         id="stop196"
         style="stop-color:#ff6966"
         offset="0" /><stop
         id="stop198"
         style="stop-color:#b7201e"
         offset="1" /></linearGradient><linearGradient
       id="linearGradient212"
       y2="-7529.1001"
       gradientUnits="userSpaceOnUse"
       x2="-3334.5"
       gradientTransform="matrix(0.59576,-0.53392,0.53392,0.59576,6030.7,2729.2)"
       y1="-7529.1001"
       x1="-3339.6001"><stop
         id="stop214"
         style="stop-color:#ffd129"
         offset="0" /><stop
         id="stop216"
         style="stop-color:#c47316"
         offset="1" /></linearGradient><linearGradient
       id="linearGradient230"
       y2="-7531.3999"
       gradientUnits="userSpaceOnUse"
       x2="-3332.8"
       gradientTransform="matrix(0.59688,-0.53272,0.53272,0.59688,6012.1,2728.1)"
       y1="-7531.3999"
       x1="-3342.2"><stop
         id="stop232"
         style="stop-color:#852800"
         offset="0" /><stop
         id="stop234"
         style="stop-color:#6b1900"
         offset="1" /></linearGradient><linearGradient
       id="linearGradient248"
       y2="-7552.2002"
       gradientUnits="userSpaceOnUse"
       x2="-3328.2"
       gradientTransform="matrix(0.59576,-0.53392,0.53392,0.59576,6031.6,2729.2)"
       y1="-7552.2002"
       x1="-3345.3999"><stop
         id="stop250"
         style="stop-color:#852800"
         offset="0" /><stop
         id="stop252"
         style="stop-color:#6b1900"
         offset="1" /></linearGradient><linearGradient
       id="linearGradient266"
       y2="-7549.3999"
       gradientUnits="userSpaceOnUse"
       x2="-3328.2"
       gradientTransform="matrix(0.59576,-0.53392,0.53392,0.59576,6031.6,2729.2)"
       y1="-7549.3999"
       x1="-3345.3"><stop
         id="stop268"
         style="stop-color:#852800"
         offset="0" /><stop
         id="stop270"
         style="stop-color:#6b1900"
         offset="1" /></linearGradient><linearGradient
       id="linearGradient284"
       y2="-7513.5"
       gradientUnits="userSpaceOnUse"
       x2="-3325.7"
       gradientTransform="matrix(0.59784,-0.5316,0.5316,0.59784,5995.5,2727.2)"
       y1="-7513.5"
       x1="-3342.8999"><stop
         id="stop286"
         style="stop-color:#852800"
         offset="0" /><stop
         id="stop288"
         style="stop-color:#6b1900"
         offset="1" /></linearGradient><linearGradient
       id="linearGradient302"
       y2="-7545.7002"
       gradientUnits="userSpaceOnUse"
       x2="-3327.6001"
       gradientTransform="matrix(0.59624,-0.53336,0.53336,0.59624,6022.6,2728.7)"
       y1="-7545.7002"
       x1="-3344.8"><stop
         id="stop304"
         style="stop-color:#852800"
         offset="0" /><stop
         id="stop306"
         style="stop-color:#6b1900"
         offset="1" /></linearGradient><linearGradient
       id="linearGradient320"
       y2="-7551.7998"
       gradientUnits="userSpaceOnUse"
       x2="-3328.2"
       gradientTransform="matrix(0.59576,-0.53392,0.53392,0.59576,6031.6,2729.2)"
       y1="-7551.7998"
       x1="-3345.3"><stop
         id="stop322"
         style="stop-color:#852800"
         offset="0" /><stop
         id="stop324"
         style="stop-color:#6b1900"
         offset="1" /></linearGradient><linearGradient
       id="linearGradient338"
       y2="-7550.8999"
       gradientUnits="userSpaceOnUse"
       x2="-3328.2"
       gradientTransform="matrix(0.59576,-0.53392,0.53392,0.59576,6031.6,2729.2)"
       y1="-7550.8999"
       x1="-3345.3999"><stop
         id="stop340"
         style="stop-color:#852800"
         offset="0" /><stop
         id="stop342"
         style="stop-color:#6b1900"
         offset="1" /></linearGradient><linearGradient
       id="linearGradient356"
       y2="-7542.7998"
       gradientUnits="userSpaceOnUse"
       x2="-3327.6001"
       gradientTransform="matrix(0.59624,-0.53336,0.53336,0.59624,6022.6,2728.7)"
       y1="-7542.7998"
       x1="-3344.8"><stop
         id="stop358"
         style="stop-color:#852800"
         offset="0" /><stop
         id="stop360"
         style="stop-color:#6b1900"
         offset="1" /></linearGradient><linearGradient
       id="linearGradient374"
       y2="-7548.1001"
       gradientUnits="userSpaceOnUse"
       x2="-3328.2"
       gradientTransform="matrix(0.59576,-0.53392,0.53392,0.59576,6031.6,2729.2)"
       y1="-7548.1001"
       x1="-3345.3999"><stop
         id="stop376"
         style="stop-color:#852800"
         offset="0" /><stop
         id="stop378"
         style="stop-color:#6b1900"
         offset="1" /></linearGradient><linearGradient
       id="linearGradient392"
       y2="-7547.6001"
       gradientUnits="userSpaceOnUse"
       x2="-3327.6001"
       gradientTransform="matrix(0.59624,-0.53336,0.53336,0.59624,6022.6,2728.7)"
       y1="-7547.6001"
       x1="-3344.8"><stop
         id="stop394"
         style="stop-color:#852800"
         offset="0" /><stop
         id="stop396"
         style="stop-color:#6b1900"
         offset="1" /></linearGradient><linearGradient
       id="linearGradient410"
       y2="-7560.7002"
       gradientUnits="userSpaceOnUse"
       x2="-3328.2"
       gradientTransform="matrix(0.59576,-0.53392,0.53392,0.59576,6031.6,2729.2)"
       y1="-7560.7002"
       x1="-3345.3999"><stop
         id="stop412"
         style="stop-color:#852800"
         offset="0" /><stop
         id="stop414"
         style="stop-color:#6b1900"
         offset="1" /></linearGradient><linearGradient
       id="linearGradient428"
       y2="-7506.7002"
       gradientUnits="userSpaceOnUse"
       x2="-3331.8999"
       gradientTransform="matrix(0.59632,-0.53328,0.53328,0.59632,6021.3,2728.6)"
       y1="-7506.7002"
       x1="-3339.5"><stop
         id="stop430"
         style="stop-color:#f2b557"
         offset="0" /><stop
         id="stop432"
         style="stop-color:#a16b1a"
         offset="1" /></linearGradient><linearGradient
       id="linearGradient446"
       y2="-16056"
       gradientUnits="userSpaceOnUse"
       x2="16582"
       gradientTransform="matrix(-0.79952,0.0272,-0.0272,-0.79952,12850,-13256)"
       y1="-16056"
       x1="16575"><stop
         id="stop448"
         style="stop-color:#f2b557"
         offset="0" /><stop
         id="stop450"
         style="stop-color:#a16b1a"
         offset="1" /></linearGradient></defs><g
     id="g10"
     transform="matrix(19.420546,-14.201854,-15.355734,-15.621034,115.38499,1014.818)"><g
       id="g12"><g
         id="g11769"
         transform="translate(1.4958141,-1.1038531)"><g
           id="text11588"
           style="font-style:normal;font-weight:normal;font-size:1.28514111px;line-height:125%;font-family:sans-serif;letter-spacing:0px;word-spacing:0px;opacity:0.83171524;fill:#ffffff;fill-opacity:1;stroke:none;stroke-width:1px;stroke-linecap:butt;stroke-linejoin:miter;stroke-opacity:1"
           transform="matrix(0.27781007,-1.1242174,-1.0396902,-0.40732882,15.559758,21.225382)" /><g
           id="g12136"
           transform="translate(0.05889641,0.07448687)"><g
             id="g14"
             transform="matrix(0.9920525,0.05492587,-0.05175108,1.005146,1.1291115,-1.0626842)"><g
               id="g16"><g
                 id="g22"><path
                   id="path30"
                   style="fill:url(#linearGradient24);fill-rule:evenodd"
                   d="m 27.801,30 0.359,-0.2 -0.117,-0.121 1.477,-2.039 -6.559,-7.32 -0.481,-1 C 22.188,18.441 22.133,17.546 22.32,16.64 22.535,15.652 22.508,14.761 22.242,13.96 22,13.32 21.574,12.668 20.961,12 L 11.121,0.96 C 10.988,0.695 10.734,0.464 10.363,0.281 9.668,-0.094 8.773,-0.094 7.68,0.281 6.16,0.812 4.789,1.695 3.562,2.921 2.176,4.039 1.148,5.304 0.48,6.718 -0.023,7.761 -0.133,8.652 0.16,9.398 l 0.602,0.801 9.879,11.039 c 0.613,0.695 1.226,1.176 1.839,1.441 0.747,0.375 1.641,0.508 2.68,0.399 0.906,-0.106 1.774,0.043 2.602,0.441 0.426,0.188 0.746,0.387 0.961,0.602 l 6.558,7.32 2.16,-1.242 0.121,0.121 0.239,-0.32 z"
                   inkscape:connector-curvature="0" /></g></g></g><path
             id="path32"
             style="fill:#c9200a;fill-rule:evenodd"
             d="m 21.92477,19.42117 c -0.251753,-0.333897 -1.097415,0.02384 -2.543223,1.075696 -1.391105,1.082854 -1.968093,1.794637 -1.716532,2.131496 0.125497,0.141616 0.425014,0.09914 0.898612,-0.128417 0.501065,-0.229415 1.048924,-0.555454 1.642075,-0.986173 0.570036,-0.433486 1.02939,-0.862578 1.381772,-1.282027 0.351824,-0.426439 0.464334,-0.692655 0.337296,-0.810575 z"
             inkscape:connector-curvature="0" /><path
             id="path34"
             style="fill:#940000;fill-rule:evenodd"
             d="m 17.536898,23.595172 c 0.417247,0.218608 0.726963,0.43987 0.929836,0.668799 l 6.139175,7.735206 0.542082,-0.237178 C 20.868555,26.142342 18.54727,23.196512 18.188725,22.931807 17.723797,22.605346 17.434756,22.424372 17.329665,22.389505 17.040655,22.285935 16.301478,22.20532 15.118819,22.138263 14.282642,22.100833 13.539377,21.91172 12.889017,21.57101 12.444495,21.351298 12.108358,21.100223 11.881485,20.819836 L 1.6275814,7.8447713 1.2738034,7.023764 C 1.1577012,6.3013938 1.402814,5.4599212 2.0069336,4.502153 L 1.198845,5.6685039 C 0.62498452,6.6593578 0.45693811,7.5305667 0.70433426,8.2898168 L 1.2596042,9.1272984 10.506905,20.791615 c 0.57316,0.733674 1.160055,1.256056 1.760815,1.565172 0.728741,0.428099 1.62116,0.628643 2.67524,0.601478 0.919853,-0.0345 1.785042,0.179826 2.593938,0.636907 z"
             inkscape:connector-curvature="0" /><g
             id="g36"
             transform="matrix(1.0077803,0.0774353,-0.06418696,0.98734783,1.0960729,-1.1099686)"><g
               id="g38"><g
                 id="g44"><path
                   id="path52"
                   style="fill:url(#linearGradient46);fill-rule:evenodd"
                   d="m 12.203,20.238 c 0.453,0.508 1.078,0.828 1.879,0.961 0.852,0.187 1.547,0.066 2.078,-0.36 0.348,-0.265 0.336,-0.535 -0.039,-0.8 C 15.27,19.48 14.68,19.011 14.363,18.64 L 2.723,5.64 C 2.348,5.96 2.027,6.359 1.762,6.839 1.602,7.132 1.508,7.453 1.48,7.8 l 0,0.438 10.723,12 z"
                   inkscape:connector-curvature="0" /></g></g></g><g
             id="g54"
             transform="matrix(1.0077803,0.0774353,-0.06418696,0.98734783,1.0960729,-1.1099686)"><g
               id="g56"><g
                 id="g62"><path
                   id="path70"
                   style="fill:url(#linearGradient64);fill-rule:evenodd"
                   d="m 24.883,29.199 c 0.238,-0.559 0.652,-1.055 1.238,-1.481 L 21.16,22.16 c -0.64,0.48 -0.984,1.054 -1.039,1.718 l 4.762,5.321 z"
                   inkscape:connector-curvature="0" /></g></g></g><g
             id="g72"
             transform="matrix(1.0077803,0.0774353,-0.06418696,0.98734783,1.0960729,-1.1099686)"><g
               id="g74"><g
                 id="g80"><path
                   id="path88"
                   style="fill:url(#linearGradient82);fill-rule:evenodd"
                   d="m 20.121,17.558 c 0.293,0.348 0.641,0.188 1.039,-0.48 l 0.121,-0.317 C 21.363,16.441 21.375,16.066 21.32,15.64 21.27,14.652 20.855,13.773 20.082,13 L 9.48,1.16 9.082,1.238 C 8.922,1.265 8.734,1.359 8.52,1.519 L 8.242,1.718 c 7.254,7.895 11.106,12.203 11.559,12.922 0.453,0.692 0.562,1.664 0.32,2.918 z"
                   inkscape:connector-curvature="0" /></g></g></g><g
             style="overflow:visible;opacity:0.85100002;fill:#ffffff"
             id="g11582"
             transform="matrix(0.02042609,-0.0170967,-0.01983052,-0.02666766,13.219362,17.862671)"><g
               id="g11568"
               style="clip-rule:evenodd;fill:#ffffff;fill-rule:evenodd"><path
                 id="path11570"
                 d="m 209.22,266.46 c 55.502,-5.477 87.385,-85.259 51.793,-121.34 22.375,41.625 5.438,100.83 -38.474,109.5 -1.022,-2.923 -3.947,-3.946 -7.4,-4.44 9.019,-10.715 26.66,-12.804 34.036,-25.157 26.808,-47.027 -8.602,-104.45 -63.631,-85.827 21.526,0.989 44.034,1.137 57.712,16.277 18.684,20.685 11.906,64.544 -19.238,69.55 6.952,-10.895 21.057,-28.459 11.842,-45.873 -10.403,15.743 -24.035,28.256 -42.914,35.514 -8.445,15.729 -17.856,30.489 -42.917,29.598 23.163,-16.531 11.351,-63.241 -5.918,-81.388 21.278,5.49 54.63,15.904 50.312,47.353 14.759,-25.13 -21.125,-34.034 -31.076,-48.833 6.235,-3.138 14.563,-4.183 20.718,-7.4 -11.291,-6.114 -21.626,8.638 -29.595,5.919 5.103,-11.668 19.047,-14.492 29.595,-20.717 -14.6,-1.271 -26.769,12.683 -36.995,20.717 -4.484,-3.119 -6.6,-0.941 -11.839,-4.439 11.025,-23.122 43.302,-38.342 79.908,-34.035 20.766,2.443 34.918,15.242 45.874,22.197 -9.026,-21.661 -61.965,-35.96 -91.746,-19.237 3.143,-6.163 16.193,-11.934 23.679,-13.319 70.341,-13.009 127.15,52.403 85.827,115.43 -13.84,21.11 -40.05,36.67 -69.54,39.95 z m 19.24,-94.71 c -7.853,-12.228 -28.632,-23.575 -42.915,-16.278 18.94,0.8 31.72,7.75 42.92,16.28 z"
                 inkscape:connector-curvature="0"
                 style="fill:#ffffff" /><path
                 id="path11572"
                 d="m 123.39,321.21 c 1.154,3.282 7.157,-4.883 10.357,0 -2.117,4.297 -8.617,4.206 -10.357,8.879 3.325,3.58 11.907,1.903 13.318,7.399 -20.301,0.56 -37.697,-5.705 -54.753,-4.439 4.695,-4.219 13.376,-8.861 20.719,-5.92 -1.113,-7.273 -17.899,1.126 -17.759,-7.4 31.926,1.84 39.442,-20.733 48.833,-41.432 -10.967,-18.673 -35.973,-31.053 -42.914,-48.833 19.776,13.357 69.258,15.92 62.151,47.352 -1.656,7.334 -12.773,12.365 -17.758,20.719 -5.19,8.68 -4.95,17.19 -11.84,23.67 z"
                 inkscape:connector-curvature="0"
                 style="fill:#ffffff" /><path
                 id="path11574"
                 d="M 71.6,19.331 C 79.145,29.81 94.456,44.617 96.755,65.205 94.064,81.5 77.064,88.773 77.519,103.68 c 0.631,20.665 30.334,29.657 45.874,41.434 19.09,18.662 40.326,48.39 35.516,81.39 -3.372,7.479 -8.856,12.846 -14.799,17.756 -8.17,0.771 -13.95,-0.849 -20.717,-1.481 -37.664,-23.345 -71.886,-42.227 -108.03,-68.068 -5.659,-35.07 19.823,-58.61 51.8,-41.43 C 61.503,119.837 7.6,121.187 15.37,155.477 -19.496,131.685 12.655,90.786 36.088,72.609 51.51,60.638 76.895,50.506 62.725,23.767 66.069,34.749 63.118,57.765 49.405,60.762 51.804,52.91 58.442,44.44 50.885,38.564 44.381,48.336 39.702,59.936 27.209,63.721 20.637,57.273 27.51,46.809 24.248,41.524 15.233,38.05 9.775,41.743 0.572,43.004 -1.151,36.41 7.842,28.885 15.369,26.727 3.118,0.628 44.237,-4.205 62.725,3.049 c -5.663,5.84 -11.47,17.226 -20.718,14.799 3.739,4.894 -4.688,13.283 4.439,13.317 -7.77,-5.601 6.605,-10.423 5.919,-16.277 9.333,-2.383 13.774,7.869 19.238,4.44 z M 28.686,31.168 c -0.029,-7.4 4.767,-5.569 10.358,-4.439 C 38.1,14.814 18.812,24.467 28.686,31.168 Z m 68.069,121.34 c -3.178,-9.663 -10.763,-22.756 -20.716,-20.717 9.75,4.07 13.856,13.77 20.716,20.72 z m 25.155,5.92 c -1.125,-4.363 -6.898,-11.758 -10.358,-8.879 4.37,2.05 5.99,6.84 10.36,8.88 z m -38.472,28.12 c 7.962,10.883 27.729,17.515 38.475,20.716 -7.52,-9.65 -30.536,-22.78 -38.472,-20.72 z m 4.439,20.71 c 11.678,4.892 27.188,20.752 36.995,17.756 -7.63,-13.087 -24.175,-17.26 -38.475,-23.675 -0.109,2.58 0.334,4.6 1.482,5.92 z"
                 inkscape:connector-curvature="0"
                 style="fill:#ffffff" /></g></g><path
             id="path162"
             style="fill:#940000;fill-rule:evenodd"
             d="m 25.951128,31.00582 3.162818,-2.536352 -1.164433,-1.437981 c -0.715183,0.235785 -1.588972,0.776914 -2.617399,1.62468 -0.655383,0.531119 -1.104627,1.038385 -1.352899,1.523386 l -0.158829,0.54248 0.597333,0.798046 1.533409,-0.514259 z"
             inkscape:connector-curvature="0" /><g
             id="g164"
             transform="matrix(1.0077803,0.0774353,-0.06418696,0.98734783,1.0960729,-1.1099686)"><g
               id="g166"><g
                 id="g172"><path
                   id="path180"
                   style="fill:url(#linearGradient174);fill-rule:evenodd"
                   d="m 30.363,27.078 c -0.242,-0.266 -0.722,-0.266 -1.441,0 -0.719,0.297 -1.469,0.789 -2.242,1.48 -0.774,0.695 -1.332,1.387 -1.68,2.082 -0.371,0.664 -0.438,1.145 -0.199,1.438 0.265,0.269 0.761,0.254 1.48,-0.039 0.696,-0.266 1.426,-0.746 2.199,-1.438 0.774,-0.695 1.348,-1.387 1.723,-2.082 0.371,-0.691 0.426,-1.172 0.16,-1.441 z"
                   inkscape:connector-curvature="0" /></g></g></g><path
             id="path182"
             style="fill:#940000;fill-rule:evenodd"
             d="m 24.417719,31.520079 c 0.08277,-0.416351 0.200546,-0.76353 0.35238,-1.042601 -0.816697,0.940442 -1.065951,1.611916 -0.739057,2.00517 0.202873,0.228928 0.602236,0.286406 1.203066,0.173807 -0.61424,-0.101768 -0.886476,-0.478918 -0.816389,-1.136376 z"
             inkscape:connector-curvature="0" /><g
             id="g184"
             transform="matrix(1.0077803,0.0774353,-0.06418696,0.98734783,1.0960729,-1.1099686)"><g
               id="g186"><g
                 id="g192"><path
                   id="path200"
                   style="fill:url(#linearGradient194);fill-rule:evenodd"
                   d="m 25.801,31.16 c 0.828,-0.774 1.176,-1.332 1.039,-1.68 -0.133,-0.348 -0.453,-0.215 -0.957,0.398 -0.375,0.481 -0.535,0.868 -0.481,1.161 0.051,0.265 0.184,0.308 0.399,0.121 z"
                   inkscape:connector-curvature="0" /></g></g></g><g
             id="g418"
             style="fill:#608d5e;fill-opacity:1"
             transform="matrix(1.0077803,0.0774353,-0.06418696,0.98734783,1.0960729,-1.1099686)"><g
               id="g420"
               style="fill:#608d5e;fill-opacity:1"><g
                 id="g426"
                 style="fill:#608d5e;fill-opacity:1"><path
                   id="path434"
                   style="fill:#608d5e;fill-opacity:1;fill-rule:evenodd"
                   d="M 26.281,31.718 28,34.519 32.562,30.48 29.801,28.281 c -0.586,0.027 -1.321,0.453 -2.199,1.277 -0.719,0.695 -1.161,1.254 -1.321,1.68 l 0,0.48 z"
                   inkscape:connector-curvature="0" /></g></g></g><g
             id="g436"
             style="fill:#8ec18b;fill-opacity:1"
             transform="matrix(1.0077803,0.0774353,-0.06418696,0.98734783,1.0960729,-1.1099686)"><g
               id="g438"
               style="fill:#8ec18b;fill-opacity:1"><g
                 id="g444"
                 style="fill:#8ec18b;fill-opacity:1"><path
                   id="path452"
                   style="fill:#8ec18b;fill-opacity:1;fill-rule:evenodd"
                   d="m 32.242,31.441 c 0.32,-0.508 0.414,-0.856 0.278,-1.043 -0.157,-0.16 -0.52,-0.105 -1.079,0.16 -0.558,0.297 -1.16,0.723 -1.8,1.281 -0.641,0.586 -1.121,1.133 -1.438,1.641 -0.348,0.531 -0.441,0.879 -0.281,1.039 0.133,0.188 0.48,0.133 1.039,-0.16 0.559,-0.266 1.16,-0.691 1.801,-1.281 0.64,-0.559 1.133,-1.106 1.48,-1.637 z"
                   inkscape:connector-curvature="0" /></g></g></g><g
             style="fill:#608d5e;fill-opacity:1"
             id="g11316"
             transform="matrix(0.57449407,0.16280219,0.06535851,0.61493101,11.56847,10.226738)"><g
               style="fill:#608d5e;fill-opacity:1"
               id="g11318"><g
                 style="fill:#608d5e;fill-opacity:1"
                 id="g11320"><path
                   inkscape:connector-curvature="0"
                   d="M 26.281,31.718 28,34.519 32.562,30.48 29.801,28.281 c -0.586,0.027 -1.321,0.453 -2.199,1.277 -0.719,0.695 -1.161,1.254 -1.321,1.68 l 0,0.48 z"
                   style="fill:#608d5e;fill-opacity:1;fill-rule:evenodd"
                   id="path11322" /></g></g></g><g
             style="fill:#8ec18b;fill-opacity:1"
             id="g11324"
             transform="matrix(0.57449407,0.16280219,0.06535851,0.61493101,11.56847,10.226738)"><g
               style="fill:#8ec18b;fill-opacity:1"
               id="g11326"><g
                 style="fill:#8ec18b;fill-opacity:1"
                 id="g11328"><path
                   inkscape:connector-curvature="0"
                   d="m 32.242,31.441 c 0.32,-0.508 0.414,-0.856 0.278,-1.043 -0.157,-0.16 -0.52,-0.105 -1.079,0.16 -0.558,0.297 -1.16,0.723 -1.8,1.281 -0.641,0.586 -1.121,1.133 -1.438,1.641 -0.348,0.531 -0.441,0.879 -0.281,1.039 0.133,0.188 0.48,0.133 1.039,-0.16 0.559,-0.266 1.16,-0.691 1.801,-1.281 0.64,-0.559 1.133,-1.106 1.48,-1.637 z"
                   style="fill:#8ec18b;fill-opacity:1;fill-rule:evenodd"
                   id="path11330" /></g></g></g><path
             style="font-style:normal;font-variant:normal;font-weight:800;font-stretch:normal;font-size:1.28514111px;line-height:125%;font-family:'Hiragino Kaku Gothic Std';-inkscape-font-specification:'Hiragino Kaku Gothic Std Ultra-Bold';letter-spacing:0px;word-spacing:0px;opacity:0.83171524;fill:#ffffff;fill-opacity:1;stroke:none;stroke-width:1px;stroke-linecap:butt;stroke-linejoin:miter;stroke-opacity:1"
             d="m 5.1148658,10.410587 c 0.2222135,0.352274 0.939094,0.252145 1.2060091,0.18445 -0.2975529,-0.185206 -0.833876,-0.01024 -1.1046581,-0.273768 l -0.046115,0.03382 -0.055236,0.0555 z m 0.4107388,0.04926 c 0.2381144,0.06865 1.0957376,-0.01787 0.4915232,-0.118734 -0.1324968,0.05188 -0.5486871,-0.163483 -0.4915232,0.118734 z m -0.00789,0.319968 c 0.2409349,0.07009 1.0686653,-0.02637 0.4540536,-0.09389 -0.1127998,0.0461 -0.5056899,-0.149891 -0.4540536,0.09389 z m -0.00661,0.147643 c 0.2408625,0.06983 1.0684968,-0.02616 0.4540039,-0.09374 -0.1127075,0.04598 -0.5056422,-0.149865 -0.4540039,0.09374 z m -0.0241,0.251061 c 0.1611158,0.27771 1.1318898,0.04117 0.5611383,-0.202577 -0.1842376,0.05465 -0.6528087,-0.170794 -0.5611383,0.202577 z m 0.1930362,-0.08784 c 0.3771765,-0.05551 0.5672084,0.191044 0,0 z m -0.577063,-0.155762 c 0.416663,0.0063 -0.316295,0.612184 0.1579827,0.48063 0.1905263,-0.02596 0.996504,0.309963 0.9769605,-0.09137 -0.4359709,0.05472 -0.9746893,0.02554 -0.8306887,-0.537694 -0.1223326,-0.07783 -0.3919284,-0.06741 -0.3042545,0.148437 z"
             id="path11623"
             inkscape:connector-curvature="0"
             transform="matrix(0.27781007,-1.1242174,-1.0396902,-0.40732882,15.559758,21.225382)" /><path
             style="font-style:normal;font-variant:normal;font-weight:800;font-stretch:normal;font-size:1.28514111px;line-height:125%;font-family:'Hiragino Kaku Gothic Std';-inkscape-font-specification:'Hiragino Kaku Gothic Std Ultra-Bold';letter-spacing:0px;word-spacing:0px;opacity:0.83171524;fill:#ffffff;fill-opacity:1;stroke:none;stroke-width:1px;stroke-linecap:butt;stroke-linejoin:miter;stroke-opacity:1"
             d="m 7.0729683,11.274317 c 0.2809161,0.159742 0.6086421,-0.230162 0.1387458,-0.1535 -0.4414188,-0.101008 0.6873573,0.0083 0.2578479,-0.235622 -0.3153088,0.09184 -1.0177418,-0.188979 -1.0820034,0.117574 0.5065989,-0.0041 -0.3117403,0.502828 0.1637026,0.485877 0.1495316,-0.104577 1.1717395,0.2543 0.9040254,-0.141688 -0.097144,-0.01853 -0.392745,0.113147 -0.3823183,-0.07264 z M 6.5959308,11.039222 c 0.389448,-0.241379 0.326509,0.541247 0.140519,0.0794 0.053357,-0.09229 -0.1141054,-0.03954 -0.140519,-0.0794 z M 7.2864126,10.848236 C 7.6662668,10.72487 7.3218484,10.159506 6.9452132,10.380158 6.5465255,10.173403 6.336146,10.661825 6.6550557,10.85309 6.863142,10.82133 7.0763772,10.85139 7.2864126,10.84819 Z M 6.7177394,10.509644 c 0.2320135,-0.02989 0.7828982,0.06272 0.2385806,0.04479 -0.052578,-0.03214 -0.2502994,0.06529 -0.2385806,-0.04479 z m -0.00331,0.155467 c 0.215312,-0.03225 0.7886926,0.06536 0.2547105,0.04561 -0.062148,-0.02645 -0.2598033,0.06569 -0.2547105,-0.04561 z"
             id="path11625"
             inkscape:connector-curvature="0"
             transform="matrix(0.27781007,-1.1242174,-1.0396902,-0.40732882,15.559758,21.225382)" /><path
             style="font-style:normal;font-variant:normal;font-weight:800;font-stretch:normal;font-size:1.28514111px;line-height:125%;font-family:'Hiragino Kaku Gothic Std';-inkscape-font-specification:'Hiragino Kaku Gothic Std Ultra-Bold';letter-spacing:0px;word-spacing:0px;opacity:0.83171524;fill:#ffffff;fill-opacity:1;stroke:none;stroke-width:1px;stroke-linecap:butt;stroke-linejoin:miter;stroke-opacity:1"
             d="m 7.9654381,10.690146 c -0.029915,0.09658 -0.5511019,0.154825 -0.1626197,0.276535 0.4898477,-0.01015 -0.4880396,0.09536 -0.088119,0.301579 0.4639771,-0.200559 -0.3425504,0.375449 0.2104969,0.247459 0.3730535,-0.262422 0.3327052,-0.894262 0.1278996,-1.186712 -0.015577,0.209996 -0.6640778,0.169289 -0.3012991,0.387596 0.077302,0.034 0.1378618,-0.04199 0.2136416,-0.02646 z m 0.5117961,0.586942 c 0.3897129,0.163323 0.4686589,-0.335372 0.066159,-0.179887 -0.332317,-0.126069 0.581807,-0.195475 0.1176087,-0.306754 -0.6320292,-0.01668 0.5699251,-0.261156 -0.070163,-0.295446 -0.2129973,-0.195296 -0.4404743,-0.230426 -0.3338443,0.185034 0.013311,0.219848 -0.035571,1.1827 0.2317788,0.738601 l -0.00567,-0.06366 -0.00587,-0.07789 3e-7,0 z"
             id="path11627"
             inkscape:connector-curvature="0"
             transform="matrix(0.27781007,-1.1242174,-1.0396902,-0.40732882,15.559758,21.225382)" /><path
             style="font-style:normal;font-variant:normal;font-weight:800;font-stretch:normal;font-size:1.28514111px;line-height:125%;font-family:'Hiragino Kaku Gothic Std';-inkscape-font-specification:'Hiragino Kaku Gothic Std Ultra-Bold';letter-spacing:0px;word-spacing:0px;opacity:0.83171524;fill:#ffffff;fill-opacity:1;stroke:none;stroke-width:1px;stroke-linecap:butt;stroke-linejoin:miter;stroke-opacity:1"
             d="m 9.250149,10.404373 c -0.32479,-0.327675 -0.7032557,0.430255 -0.2082794,0.416109 -0.082127,0.280167 0.5726465,0.06883 0.092982,0.200047 -0.4790256,0.08122 0.1891376,0.786716 0.05828,0.184401 0.2624227,-0.249514 0.2315093,0.528753 0.4447932,0.104974 -0.2670992,-0.255 0.4114862,-0.287323 0.044753,-0.08228 C 10.123477,11.616095 10.07602,10.578398 9.5537829,10.92044 9.8943713,10.9103 9.7408548,10.651891 9.9584526,10.569019 9.9701304,10.295407 9.5770112,10.067632 9.47401,10.353297 9.4220664,10.168106 9.1325112,10.186234 9.250149,10.404373 Z m 0.5159468,0.121444 c -0.2838887,0.08835 -1.1450488,0.174575 -0.386161,0.02863 0.1130295,0.0085 0.3006992,-0.111643 0.386161,-0.02863 z m -0.15313,0.17032 c -0.1548507,0.206144 -0.634665,0.05647 -0.1095323,0.01997 l 0.1095323,-0.01998 0,8e-6 z"
             id="path11629"
             inkscape:connector-curvature="0"
             transform="matrix(0.27781007,-1.1242174,-1.0396902,-0.40732882,15.559758,21.225382)" /><path
             style="font-style:normal;font-variant:normal;font-weight:800;font-stretch:normal;font-size:1.28514111px;line-height:125%;font-family:'Hiragino Kaku Gothic Std';-inkscape-font-specification:'Hiragino Kaku Gothic Std Ultra-Bold';letter-spacing:0px;word-spacing:0px;opacity:0.83171524;fill:#ffffff;fill-opacity:1;stroke:none;stroke-width:1px;stroke-linecap:butt;stroke-linejoin:miter;stroke-opacity:1"
             d="m 10.187806,10.11701 c -0.3979104,0.0897 -0.4203108,0.375076 -0.02726,0.340647 -0.2222588,0.0882 -0.2512578,0.497072 0.09364,0.228353 0.415047,-0.191988 0.04256,0.140659 -0.126084,0.237856 0.128395,0.293505 0.484257,-0.289301 0.602339,0.144034 0.245374,-0.09341 -0.11443,-0.462208 0.310796,-0.441827 0.356661,-0.472551 -0.766036,0.19492 -0.253731,-0.223891 0.497806,-0.194521 0.05117,-0.277763 -0.108607,-0.235411 C 10.890083,9.9641581 10.80911,9.7013254 10.506718,9.9537887 10.40662,10.071348 9.9813921,9.7753359 10.187806,10.11701 Z m 0.176806,0.306396 c -0.360906,-0.279328 0.50326,-0.251208 0,0 z"
             id="path11631"
             inkscape:connector-curvature="0"
             transform="matrix(0.27781007,-1.1242174,-1.0396902,-0.40732882,15.559758,21.225382)" /><path
             style="font-style:normal;font-variant:normal;font-weight:800;font-stretch:normal;font-size:1.28514111px;line-height:125%;font-family:'Hiragino Kaku Gothic Std';-inkscape-font-specification:'Hiragino Kaku Gothic Std Ultra-Bold';letter-spacing:0px;word-spacing:0px;opacity:0.83171524;fill:#ffffff;fill-opacity:1;stroke:none;stroke-width:1px;stroke-linecap:butt;stroke-linejoin:miter;stroke-opacity:1"
             d="m 11.194498,9.4885211 c -0.222197,0.3299288 0.327433,0.4578908 0.34275,0.419048 -0.06006,0.3971809 0.24806,0.3711849 0.205882,0.023645 0.380431,0.3116819 0.114502,-0.2364937 0.137246,-0.1667696 0.386147,0.00975 0.129084,-0.3423143 -0.115223,-0.1631699 C 11.862511,9.346416 11.430444,9.14408 11.322988,9.3336114 11.615966,9.0501696 11.254786,9.0262488 11.10979,9.2308993 10.964155,9.077578 10.896013,10.051088 11.194498,9.4885211 Z m 0.169862,0.1353437 c 0.213016,0.093586 -0.108596,0.1325689 0,0 z m 0.108916,-0.1366936 c 0.112368,-0.1692765 0.148773,0.1968619 0,0 z m -0.775053,0.3437244 c -0.240201,0.2041244 0.244754,0.2493884 0.235553,0.4332144 0.34671,-0.3009418 -0.01795,0.29584 0.338542,0.137934 -0.0685,-0.106899 0.271739,0.395132 0.245095,0.01376 C 11.382892,10.266877 11.531163,9.7856951 11.22923,10.00885 11.32341,9.7141476 10.71884,9.4459996 10.615801,9.7850864 l 0.08244,0.045813 -1.3e-5,-2e-7 z m 0.300552,0.1507422 c -0.309678,-0.084492 0.02916,-0.2461679 0,0 z"
             id="path11633"
             inkscape:connector-curvature="0"
             transform="matrix(0.27781007,-1.1242174,-1.0396902,-0.40732882,15.559758,21.225382)" /><path
             style="font-style:normal;font-variant:normal;font-weight:800;font-stretch:normal;font-size:1.28514111px;line-height:125%;font-family:'Hiragino Kaku Gothic Std';-inkscape-font-specification:'Hiragino Kaku Gothic Std Ultra-Bold';letter-spacing:0px;word-spacing:0px;opacity:0.83171524;fill:#ffffff;fill-opacity:1;stroke:none;stroke-width:1px;stroke-linecap:butt;stroke-linejoin:miter;stroke-opacity:1"
             d="m 12.181909,8.5729857 c -0.34619,-0.1624877 -0.395565,0.4336138 -0.45883,-0.028714 0.12155,-0.4095847 0.770326,0.1603439 0.637083,0.3298053 0.654039,-0.2757797 -0.708144,-1.0655054 -0.832029,-0.492609 -0.458062,0.035746 0.338436,0.4216429 -0.145109,0.4561635 -0.477232,-0.045625 0.139829,0.6060202 0.423007,0.5473483 0.244732,0.1409661 0.558709,0.2209875 0.390344,-0.1432268 0.357116,-0.2168398 -0.21069,-0.2798126 -0.380223,-0.3765905 -0.140358,-0.1678362 0.576765,0.042754 0.365757,-0.2921769 z M 11.508554,9.071013 c 0.08806,-0.3097675 0.357581,0.2012351 0,0 z m 0.317435,0.1233604 c 0.112507,-0.3275355 0.360653,0.2384434 0,0 z"
             id="path11635"
             inkscape:connector-curvature="0"
             transform="matrix(0.27781007,-1.1242174,-1.0396902,-0.40732882,15.559758,21.225382)" /><path
             style="font-style:normal;font-variant:normal;font-weight:800;font-stretch:normal;font-size:1.28514111px;line-height:125%;font-family:'Hiragino Kaku Gothic Std';-inkscape-font-specification:'Hiragino Kaku Gothic Std Ultra-Bold';letter-spacing:0px;word-spacing:0px;opacity:0.83171524;fill:#ffffff;fill-opacity:1;stroke:none;stroke-width:1px;stroke-linecap:butt;stroke-linejoin:miter;stroke-opacity:1"
             d="m 12.458945,7.2969343 c -0.322902,0.015541 -0.266714,-0.1276235 -0.323072,-0.2647612 -0.443138,0.142153 -0.653165,0.6622918 -0.349419,1.0659677 0.120901,0.2679689 0.185946,-0.22336 0.450476,-0.019681 0.304505,-0.070011 0.305977,0.4391959 0.508766,0.097626 C 12.641907,7.841952 12.734722,7.5718095 12.892495,7.3063189 12.756702,6.9243267 12.640653,7.6762914 12.576282,7.1877848 l -0.04625,0.015396 -0.07109,0.093758 3e-6,-4.4e-6 z m 0.03388,0.1337103 c 0.114918,0.1917393 -0.115847,0.2370082 0,0 z m -0.08848,0.4042449 c 0.325084,-0.2070745 0.02205,0.3122525 0,0 z M 11.958504,7.5097086 c -0.216762,0.00506 0.14318,-0.2172208 0,0 z m -0.132665,0.1433009 c -0.132591,-0.1390597 0.115324,-0.1939688 0,0 z m 0.09309,0.037479 c 0.03467,0.266117 -0.168525,-0.096436 0,0 z m 0.112266,0.1482366 c 0.01941,-0.2007905 0.178284,-0.6694752 0.07604,-0.159516 -0.03559,0.020052 0.01688,0.2141253 -0.07604,0.159516 z m 0.173248,0.037921 c 0.01941,-0.2007905 0.178284,-0.6694752 0.07604,-0.159516 -0.03696,0.020942 0.0186,0.2134581 -0.07604,0.159516 z"
             id="path11637"
             inkscape:connector-curvature="0"
             transform="matrix(0.27781007,-1.1242174,-1.0396902,-0.40732882,15.559758,21.225382)" /><path
             style="font-style:normal;font-variant:normal;font-weight:800;font-stretch:normal;font-size:1.28514111px;line-height:125%;font-family:'Hiragino Kaku Gothic Std';-inkscape-font-specification:'Hiragino Kaku Gothic Std Ultra-Bold';letter-spacing:0px;word-spacing:0px;opacity:0.83171524;fill:#ffffff;fill-opacity:1;stroke:none;stroke-width:1px;stroke-linecap:butt;stroke-linejoin:miter;stroke-opacity:1"
             d="m 12.205465,6.0312969 c 0.242805,0.04945 0.884043,0.9494702 0.682572,0.3038929 0.50453,-0.2076744 -0.289545,-0.5963759 -0.605463,-0.5126258 -0.390621,-0.1764463 -0.125701,0.4706397 -0.43725,0.3682592 -0.139248,0.2403113 0.513395,0.291063 0.06361,0.3850487 -0.474367,0.067351 0.303149,0.2240429 -0.04705,0.2769979 0.133081,0.2877405 0.658545,0.093898 0.352745,-0.045568 0.294779,-0.018623 0.311807,0.4607625 0.478561,0.048786 0.379757,0.2265138 0.339869,-0.3516404 -0.03332,-0.1784912 -0.214794,-0.092458 0.194506,-0.213894 -0.136969,-0.356239 C 12.417095,6.2259546 12.279257,6.1578279 12.205468,6.031297 Z m 0.305033,0.00761 c 0.379179,-0.049583 0.438759,0.4399301 0.07927,0.049864 l -0.07927,-0.049864 z m -0.130387,0.4933057 c 0.05655,0.2548578 -0.388567,-0.061342 -0.01809,-0.038759 -0.578054,-0.5618391 0.326972,0.088318 0.01809,0.038759 z"
             id="path11639"
             inkscape:connector-curvature="0"
             transform="matrix(0.27781007,-1.1242174,-1.0396902,-0.40732882,15.559758,21.225382)" /><path
             style="fill:none;fill-rule:evenodd;stroke:none;stroke-width:0.3941274;stroke-linecap:butt;stroke-linejoin:miter;stroke-miterlimit:4;stroke-dasharray:none;stroke-opacity:1"
             d="m 5.0252881,11.356581 c 6.0467639,0.299036 7.5829389,0.186952 8.0794269,-6.9496729"
             id="path11592"
             inkscape:connector-curvature="0"
             sodipodi:nodetypes="cc" /><g
             transform="matrix(0.14197792,-1.0851488,-0.94376354,-0.19358692,27.969996,35.364038)"
             style="font-style:normal;font-weight:normal;font-size:1.44824958px;line-height:125%;font-family:sans-serif;letter-spacing:0px;word-spacing:0px;opacity:0.83200001;fill:#ffffff;fill-opacity:1;stroke:none;stroke-width:1px;stroke-linecap:butt;stroke-linejoin:miter;stroke-opacity:1"
             id="text11659"><path
               style="font-weight:bold;font-size:1.20427823px;fill:#ffffff"
               d="m 11.720951,19.158199 c 0.07102,0.418394 -0.651985,-0.01795 -0.42251,0.512853 0.246684,-0.104337 0.537514,0.245097 0.182764,0.25776 -0.203632,-0.04598 -0.999047,-0.05335 -0.590481,-0.310695 0.318732,0.162103 0.340966,-0.475609 -0.0056,-0.319268 -0.207935,-0.295916 0.220916,-0.228487 0.392125,-0.19349 0.147907,0.01761 0.295844,0.03522 0.443733,0.05284 z"
               id="path11705"
               inkscape:connector-curvature="0" /><path
               style="font-weight:bold;font-size:1.20427823px;fill:#ffffff"
               d="m 11.535107,18.228631 c 0.700315,0.113585 -0.04726,1.175579 -0.380288,0.532411 -0.11952,-0.242709 0.08382,-0.619022 0.380288,-0.532411 z m 0.116172,0.283077 c -0.300757,-0.335383 -0.522179,0.371175 -0.06344,0.215091 0.08469,-0.02571 0.122178,-0.146324 0.06344,-0.215091 z"
               id="path11707"
               inkscape:connector-curvature="0" /><path
               style="font-weight:bold;font-size:1.20427823px;fill:#ffffff"
               d="m 11.971111,17.720317 c 0.03818,0.472634 -0.649684,0.399845 -0.855386,0.241324 -0.165294,-0.268766 0.24842,-0.130891 0.223607,-0.344135 0.193744,-0.04607 0.08083,0.389445 0.407735,0.240711 0.222783,-0.04425 -0.07888,-0.255618 0.224044,-0.1379 z"
               id="path11709"
               inkscape:connector-curvature="0" /><path
               style="font-weight:bold;font-size:1.20427823px;fill:#ffffff"
               d="m 12.044885,16.437896 c 0.42543,0.114528 0.064,0.967991 -0.144711,0.6919 0.187804,-0.111708 0.196862,-0.683037 -0.01762,-0.291983 -0.268989,0.555497 -0.868612,-0.173525 -0.416306,-0.484528 0.470406,-0.136525 -0.16421,0.464874 0.111168,0.464466 0.128711,-0.124173 0.242569,-0.475861 0.467467,-0.379855 z"
               id="path11711"
               inkscape:connector-curvature="0" /><path
               style="font-weight:bold;font-size:1.20427823px;fill:#ffffff"
               d="m 12.104302,15.773533 c -0.362484,0.300643 0.722341,0.482894 0.110916,0.580161 -0.230487,-0.126935 -0.635457,-0.185144 -0.30912,-0.496023 -0.01758,-0.24172 0.03519,-0.13383 0.198204,-0.08414 z"
               id="path11713"
               inkscape:connector-curvature="0" /><path
               style="font-weight:bold;font-size:1.20427823px;fill:#ffffff"
               d="m 12.671263,15.639816 c -0.02375,0.413754 -1.002862,-0.179859 -0.50158,-0.240417 0.161016,0.09586 0.332829,0.160317 0.50158,0.240417 z m -0.682711,-0.32112 c 0.0058,0.315206 -0.396152,0.11134 -0.124714,-0.058 l 0.05105,0.02294 0.07366,0.03506 z"
               id="path11715"
               inkscape:connector-curvature="0" /><path
               style="font-weight:bold;font-size:1.20427823px;fill:#ffffff"
               d="m 12.588427,14.818604 c -0.39994,0.248503 0.649873,0.576798 0.03091,0.589875 -0.211029,-0.15715 -0.604318,-0.269999 -0.23866,-0.5335 0.01549,-0.241797 0.05302,-0.127903 0.207746,-0.05637 z"
               id="path11717"
               inkscape:connector-curvature="0" /><path
               style="font-weight:bold;font-size:1.20427823px;fill:#ffffff"
               d="m 13.14498,14.513072 c -0.299715,-0.232736 -0.08298,0.476853 -0.0012,0.01334 l 0.0012,-0.01334 c 0,0 0,0 0,0 z m 0.08304,0.05978 c 0.01207,0.606085 -0.745949,0.126168 -0.355004,-0.224792 -0.09286,0.195771 -0.428615,0.42415 -0.276453,0.03546 0.105743,-0.446303 1.01685,-0.07152 0.678506,0.20389 l -0.04705,-0.01456 -10e-7,2e-6 z"
               id="path11719"
               inkscape:connector-curvature="0" /><path
               style="font-weight:bold;font-size:1.20427823px;fill:#ffffff"
               d="m 13.785212,14.06218 c -0.432984,0.564846 -0.961513,-0.597831 -0.285108,-0.572432 0.205362,0.09989 -0.433955,0.39114 0.0079,0.518032 0.161011,-0.03688 0.444817,-0.437462 0.333112,-0.01399 l -0.05596,0.06839 4e-6,-4e-6 z"
               id="path11721"
               inkscape:connector-curvature="0" /><path
               style="font-weight:bold;font-size:1.20427823px;fill:#ffffff"
               d="m 14.567112,13.396897 c -0.21437,0.363878 -0.563856,-0.615114 -0.58558,-0.01036 0.277136,0.08127 0.186523,0.566647 -0.04239,0.277775 -0.150217,-0.201523 -0.300433,-0.403045 -0.45065,-0.604568 0.194421,-0.327753 0.338955,0.329647 0.45514,-0.03741 0.327148,-0.188608 0.470653,0.170617 0.623484,0.374554 z"
               id="path11723"
               inkscape:connector-curvature="0" /><path
               style="font-weight:bold;font-size:1.20427823px;fill:#ffffff"
               d="m 15.00995,12.960897 c -0.161997,-0.34315 -0.28973,0.387767 -0.0071,0.01137 l 0.0071,-0.01136 c 0,0 4e-5,-1e-5 4e-5,-1e-5 z m 0.04702,0.09087 c -0.263346,0.545963 -0.722442,-0.224851 -0.214978,-0.361007 -0.171368,0.132665 -0.574075,0.184368 -0.262553,-0.09341 0.296191,-0.350231 0.939244,0.39619 0.512902,0.488724 l -0.03537,-0.0343 0,-3e-6 z"
               id="path11725"
               inkscape:connector-curvature="0" /><path
               style="font-weight:bold;font-size:1.20427823px;fill:#ffffff"
               d="m 16.450804,12.341349 c 0.132765,0.420136 -0.780996,0.575458 -0.660817,0.250953 0.195281,0.0981 0.681525,-0.202165 0.236544,-0.172111 -0.612891,0.07278 -0.321806,-0.825238 0.183874,-0.611784 0.368494,0.322755 -0.480052,0.112247 -0.331378,0.344017 0.173889,0.04153 0.531445,-0.05213 0.571777,0.188925 z"
               id="path11727"
               inkscape:connector-curvature="0" /><path
               style="font-weight:bold;font-size:1.20427823px;fill:#ffffff"
               d="m 17.027951,12.342805 c -0.05196,-0.375913 -0.392381,0.283376 -0.01016,0.0088 l 0.01018,-0.0087 c 0,0 -2e-5,-5e-5 -2e-5,-5e-5 z m 0.01767,0.100779 c -0.414721,0.442117 -0.622001,-0.430727 -0.09709,-0.408861 -0.203185,0.07526 -0.60298,0.0042 -0.222599,-0.167649 0.387411,-0.245546 0.77766,0.659051 0.343176,0.619818 l -0.02348,-0.04331 0,0 z"
               id="path11729"
               inkscape:connector-curvature="0" /><path
               style="font-weight:bold;font-size:1.20427823px;fill:#ffffff"
               d="m 18.110758,12.390112 c -0.410253,0.100098 -0.819564,0.0027 -0.71143,-0.518353 0.114698,-0.303722 0.293945,0.138646 0.250722,0.31264 0.376683,0.321068 0.05779,-0.790896 0.408924,-0.34485 0.01725,0.18352 0.03455,0.367054 0.05178,0.550563 z"
               id="path11731"
               inkscape:connector-curvature="0" /><path
               style="font-weight:bold;font-size:1.20427823px;fill:#ffffff"
               d="m 18.656851,12.386587 c -0.703712,0.106371 -0.277676,-1.097631 0.191839,-0.610058 0.07858,0.214421 -0.583934,-0.01938 -0.353718,0.378596 0.141532,0.08516 0.623811,-0.0064 0.249608,0.221097 l -0.08773,0.01036 0,2e-6 z"
               id="path11733"
               inkscape:connector-curvature="0" /><path
               style="font-weight:bold;font-size:1.20427823px;fill:#ffffff"
               d="m 19.674149,12.077034 c -0.161501,-0.0018 -0.323003,-0.0036 -0.484504,-0.0054 0.03264,0.275727 0.793736,0.03341 0.297076,0.326514 -0.702042,0.172426 -0.557363,-1.053805 0.08108,-0.653437 0.096,0.07919 0.123348,0.214236 0.106344,0.332323 z M 19.465026,11.95063 c -0.158226,-0.338012 -0.394594,0.132613 0,0 z"
               id="path11735"
               inkscape:connector-curvature="0" /></g><path
             style="fill:none;fill-rule:evenodd;stroke:none;stroke-width:0.3941274;stroke-linecap:butt;stroke-linejoin:miter;stroke-miterlimit:4;stroke-dasharray:none;stroke-opacity:1"
             d="m 11.582886,20.461815 c 0.520739,-6.237285 2.673592,-8.37911 8.584055,-8.069971"
             id="path11663"
             inkscape:connector-curvature="0"
             sodipodi:nodetypes="cc" /></g></g></g></g><metadata
     id="metadata10772"><rdf:RDF><cc:Work><dc:format>image/svg+xml</dc:format><dc:type
           rdf:resource="http://purl.org/dc/dcmitype/StillImage" /><cc:license
           rdf:resource="http://creativecommons.org/publicdomain/zero/1.0/" /><dc:publisher><cc:Agent
             rdf:about="http://openclipart.org/"><dc:title>Openclipart</dc:title></cc:Agent></dc:publisher><dc:title></dc:title></cc:Work><cc:License
         rdf:about="http://creativecommons.org/publicdomain/zero/1.0/"><cc:permits
           rdf:resource="http://creativecommons.org/ns#Reproduction" /><cc:permits
           rdf:resource="http://creativecommons.org/ns#Distribution" /><cc:permits
           rdf:resource="http://creativecommons.org/ns#DerivativeWorks" /></cc:License></rdf:RDF></metadata></svg>