<?xml version="1.0" encoding="UTF-8" standalone="no"?>
<!-- Created with Inkscape (http://www.inkscape.org/) -->
<svg xmlns:inkscape="http://www.inkscape.org/namespaces/inkscape" xmlns:rdf="http://www.w3.org/1999/02/22-rdf-syntax-ns#" xmlns="http://www.w3.org/2000/svg" xmlns:xlink="http://www.w3.org/1999/xlink" xmlns:ns1="http://sozi.baierouge.fr" xmlns:cc="http://creativecommons.org/ns#" xmlns:sodipodi="http://sodipodi.sourceforge.net/DTD/sodipodi-0.dtd" xmlns:dc="http://purl.org/dc/elements/1.1/" id="svg2" xml:space="preserve" viewBox="0 0 24.2 40" version="1.1" inkscape:version="0.91 r13725">
  <defs id="defs6">
    <linearGradient id="linearGradient24" y2="23" gradientUnits="userSpaceOnUse" x2="24.175" gradientTransform="matrix(.8 0 0 -.8 0 32)" y1="23">
      <stop id="stop26" style="stop-color:#f09b3a" offset="0"/>
      <stop id="stop28" style="stop-color:#915217" offset="1"/>
    </linearGradient>
    <linearGradient id="linearGradient42" y2="22.856" gradientUnits="userSpaceOnUse" x2="23.35" gradientTransform="matrix(.8 0 0 -.8 0 32)" y1="22.856" x1=".64990">
      <stop id="stop44" style="stop-color:#d48224" offset="0"/>
      <stop id="stop46" style="stop-color:#b0641c" offset="1"/>
    </linearGradient>
    <clipPath id="clipPath54">
      <path id="path56" d="m2 0h14v4h-14v-4z" inkscape:connector-curvature="0"/>
    </clipPath>
    <mask id="mask58">
      <g id="g60">
        <g id="g62" clip-path="url(#clipPath54)">
          <path id="path64" style="fill:#000000;fill-opacity:.46090" d="m2 0h14v4h-14v-4z" inkscape:connector-curvature="0"/>
        </g>
      </g>
    </mask>
    <clipPath id="clipPath70">
      <path id="path72" d="m2 0h14v4h-14v-4z" inkscape:connector-curvature="0"/>
    </clipPath>
    <clipPath id="clipPath74">
      <path id="path76" d="m2 0h14v4h-14v-4z" inkscape:connector-curvature="0"/>
    </clipPath>
    <clipPath id="clipPath98">
      <path id="path100" d="m5 21h3v2h-3v-2z" inkscape:connector-curvature="0"/>
    </clipPath>
    <mask id="mask102">
      <g id="g104">
        <g id="g106" clip-path="url(#clipPath98)">
          <path id="path108" style="fill:#000000;fill-opacity:.12110" d="m5 21h3v2h-3v-2z" inkscape:connector-curvature="0"/>
        </g>
      </g>
    </mask>
    <clipPath id="clipPath114">
      <path id="path116" d="m5 21h3v2h-3v-2z" inkscape:connector-curvature="0"/>
    </clipPath>
    <clipPath id="clipPath118">
      <path id="path120" d="m5 21h3v2h-3v-2z" inkscape:connector-curvature="0"/>
    </clipPath>
    <clipPath id="clipPath142">
      <path id="path144" d="m9 20h3v3h-3v-3z" inkscape:connector-curvature="0"/>
    </clipPath>
    <mask id="mask146">
      <g id="g148">
        <g id="g150" clip-path="url(#clipPath142)">
          <path id="path152" style="fill:#000000;fill-opacity:.12110" d="m9 20h3v3h-3v-3z" inkscape:connector-curvature="0"/>
        </g>
      </g>
    </mask>
    <clipPath id="clipPath158">
      <path id="path160" d="m9 20h3v3h-3v-3z" inkscape:connector-curvature="0"/>
    </clipPath>
    <clipPath id="clipPath162">
      <path id="path164" d="m9 20h3v3h-3v-3z" inkscape:connector-curvature="0"/>
    </clipPath>
    <clipPath id="clipPath186">
      <path id="path188" d="m12 17h3v4h-3v-4z" inkscape:connector-curvature="0"/>
    </clipPath>
    <mask id="mask190">
      <g id="g192">
        <g id="g194" clip-path="url(#clipPath186)">
          <path id="path196" style="fill:#000000;fill-opacity:.12110" d="m12 17h3v4h-3v-4z" inkscape:connector-curvature="0"/>
        </g>
      </g>
    </mask>
    <clipPath id="clipPath202">
      <path id="path204" d="m12 17h3v4h-3v-4z" inkscape:connector-curvature="0"/>
    </clipPath>
    <clipPath id="clipPath206">
      <path id="path208" d="m12 17h3v4h-3v-4z" inkscape:connector-curvature="0"/>
    </clipPath>
    <clipPath id="clipPath230">
      <path id="path232" d="m7 19h2v1h-2v-1z" inkscape:connector-curvature="0"/>
    </clipPath>
    <mask id="mask234">
      <g id="g236">
        <g id="g238" clip-path="url(#clipPath230)">
          <path id="path240" style="fill:#000000;fill-opacity:.12110" d="m7 19h2v1h-2v-1z" inkscape:connector-curvature="0"/>
        </g>
      </g>
    </mask>
    <clipPath id="clipPath246">
      <path id="path248" d="m7 19h2v1h-2v-1z" inkscape:connector-curvature="0"/>
    </clipPath>
    <clipPath id="clipPath250">
      <path id="path252" d="m7 19h2v1h-2v-1z" inkscape:connector-curvature="0"/>
    </clipPath>
    <clipPath id="clipPath274">
      <path id="path276" d="m3 18h2v3h-2v-3z" inkscape:connector-curvature="0"/>
    </clipPath>
    <mask id="mask278">
      <g id="g280">
        <g id="g282" clip-path="url(#clipPath274)">
          <path id="path284" style="fill:#000000;fill-opacity:.12110" d="m3 18h2v3h-2v-3z" inkscape:connector-curvature="0"/>
        </g>
      </g>
    </mask>
    <clipPath id="clipPath290">
      <path id="path292" d="m3 18h2v3h-2v-3z" inkscape:connector-curvature="0"/>
    </clipPath>
    <clipPath id="clipPath294">
      <path id="path296" d="m3 18h2v3h-2v-3z" inkscape:connector-curvature="0"/>
    </clipPath>
    <clipPath id="clipPath318">
      <path id="path320" d="m2 4h2v2h-2v-2z" inkscape:connector-curvature="0"/>
    </clipPath>
    <mask id="mask322">
      <g id="g324">
        <g id="g326" clip-path="url(#clipPath318)">
          <path id="path328" style="fill:#000000;fill-opacity:.12110" d="m2 4h2v2h-2v-2z" inkscape:connector-curvature="0"/>
        </g>
      </g>
    </mask>
    <clipPath id="clipPath334">
      <path id="path336" d="m2 4h2v2h-2v-2z" inkscape:connector-curvature="0"/>
    </clipPath>
    <clipPath id="clipPath338">
      <path id="path340" d="m2 4h2v2h-2v-2z" inkscape:connector-curvature="0"/>
    </clipPath>
    <clipPath id="clipPath362">
      <path id="path364" d="m8 2h3v2h-3v-2z" inkscape:connector-curvature="0"/>
    </clipPath>
    <mask id="mask366">
      <g id="g368">
        <g id="g370" clip-path="url(#clipPath362)">
          <path id="path372" style="fill:#000000;fill-opacity:.12110" d="m8 2h3v2h-3v-2z" inkscape:connector-curvature="0"/>
        </g>
      </g>
    </mask>
    <clipPath id="clipPath378">
      <path id="path380" d="m8 2h3v2h-3v-2z" inkscape:connector-curvature="0"/>
    </clipPath>
    <clipPath id="clipPath382">
      <path id="path384" d="m8 2h3v2h-3v-2z" inkscape:connector-curvature="0"/>
    </clipPath>
    <clipPath id="clipPath406">
      <path id="path408" d="m14 9h2v4h-2v-4z" inkscape:connector-curvature="0"/>
    </clipPath>
    <mask id="mask410">
      <g id="g412">
        <g id="g414" clip-path="url(#clipPath406)">
          <path id="path416" style="fill:#000000;fill-opacity:.12110" d="m14 9h2v4h-2v-4z" inkscape:connector-curvature="0"/>
        </g>
      </g>
    </mask>
    <clipPath id="clipPath422">
      <path id="path424" d="m14 9h2v4h-2v-4z" inkscape:connector-curvature="0"/>
    </clipPath>
    <clipPath id="clipPath426">
      <path id="path428" d="m14 9h2v4h-2v-4z" inkscape:connector-curvature="0"/>
    </clipPath>
    <clipPath id="clipPath450">
      <path id="path452" d="m14 6h3v3h-3v-3z" inkscape:connector-curvature="0"/>
    </clipPath>
    <mask id="mask454">
      <g id="g456">
        <g id="g458" clip-path="url(#clipPath450)">
          <path id="path460" style="fill:#000000;fill-opacity:.12110" d="m14 6h3v3h-3v-3z" inkscape:connector-curvature="0"/>
        </g>
      </g>
    </mask>
    <clipPath id="clipPath466">
      <path id="path468" d="m14 6h3v3h-3v-3z" inkscape:connector-curvature="0"/>
    </clipPath>
    <clipPath id="clipPath470">
      <path id="path472" d="m14 6h3v3h-3v-3z" inkscape:connector-curvature="0"/>
    </clipPath>
    <clipPath id="clipPath494">
      <path id="path496" d="m15 16h3v4h-3v-4z" inkscape:connector-curvature="0"/>
    </clipPath>
    <mask id="mask498">
      <g id="g500">
        <g id="g502" clip-path="url(#clipPath494)">
          <path id="path504" style="fill:#000000;fill-opacity:.12110" d="m15 16h3v4h-3v-4z" inkscape:connector-curvature="0"/>
        </g>
      </g>
    </mask>
    <clipPath id="clipPath510">
      <path id="path512" d="m15 16h3v4h-3v-4z" inkscape:connector-curvature="0"/>
    </clipPath>
    <clipPath id="clipPath514">
      <path id="path516" d="m15 16h3v4h-3v-4z" inkscape:connector-curvature="0"/>
    </clipPath>
    <clipPath id="clipPath538">
      <path id="path540" d="m16 15h3v3h-3v-3z" inkscape:connector-curvature="0"/>
    </clipPath>
    <mask id="mask542">
      <g id="g544">
        <g id="g546" clip-path="url(#clipPath538)">
          <path id="path548" style="fill:#000000;fill-opacity:.12110" d="m16 15h3v3h-3v-3z" inkscape:connector-curvature="0"/>
        </g>
      </g>
    </mask>
    <clipPath id="clipPath554">
      <path id="path556" d="m16 15h3v3h-3v-3z" inkscape:connector-curvature="0"/>
    </clipPath>
    <clipPath id="clipPath558">
      <path id="path560" d="m16 15h3v3h-3v-3z" inkscape:connector-curvature="0"/>
    </clipPath>
    <clipPath id="clipPath582">
      <path id="path584" d="m13 23h3v2h-3v-2z" inkscape:connector-curvature="0"/>
    </clipPath>
    <mask id="mask586">
      <g id="g588">
        <g id="g590" clip-path="url(#clipPath582)">
          <path id="path592" style="fill:#000000;fill-opacity:.12110" d="m13 23h3v2h-3v-2z" inkscape:connector-curvature="0"/>
        </g>
      </g>
    </mask>
    <clipPath id="clipPath598">
      <path id="path600" d="m13 23h3v2h-3v-2z" inkscape:connector-curvature="0"/>
    </clipPath>
    <clipPath id="clipPath602">
      <path id="path604" d="m13 23h3v2h-3v-2z" inkscape:connector-curvature="0"/>
    </clipPath>
    <linearGradient id="linearGradient632" y2="25.352" gradientUnits="userSpaceOnUse" x2="16.525" gradientTransform="matrix(.8 0 0 -.8 0 32)" y1="25.352" x1="1.4751">
      <stop id="stop634" style="stop-color:#e35737" offset="0"/>
      <stop id="stop636" style="stop-color:#da5233" offset=".19220"/>
      <stop id="stop638" style="stop-color:#c14326" offset=".50980"/>
      <stop id="stop640" style="stop-color:#992c13" offset=".90980"/>
      <stop id="stop642" style="stop-color:#8f260e" offset="1"/>
    </linearGradient>
    <linearGradient id="linearGradient656" y2="25.371" gradientUnits="userSpaceOnUse" x2="15.225" gradientTransform="matrix(.8 0 0 -.8 0 32)" y1="25.371" x1="2.2998">
      <stop id="stop658" style="stop-color:#f2d850" offset="0"/>
      <stop id="stop660" style="stop-color:#ebcf4b" offset=".1608"/>
      <stop id="stop662" style="stop-color:#d7b63c" offset=".42750"/>
      <stop id="stop664" style="stop-color:#b78e24" offset=".7608"/>
      <stop id="stop666" style="stop-color:#9c6d10" offset="1"/>
    </linearGradient>
    <linearGradient id="linearGradient680" y2="30.121" gradientUnits="userSpaceOnUse" x2="15.987" gradientTransform="matrix(.8 0 0 -.8 0 32)" y1="30.121" x1="1.6123">
      <stop id="stop682" style="stop-color:#f29429" offset="0"/>
      <stop id="stop684" style="stop-color:#a3560d" offset="1"/>
    </linearGradient>
    <linearGradient id="linearGradient698" y2="27.875" gradientUnits="userSpaceOnUse" x2="15.987" gradientTransform="matrix(.8 0 0 -.8 0 32)" y1="27.875" x1="1.6123">
      <stop id="stop700" style="stop-color:#f29429" offset="0"/>
      <stop id="stop702" style="stop-color:#a3560d" offset="1"/>
    </linearGradient>
    <linearGradient id="linearGradient716" y2="27.55" gradientUnits="userSpaceOnUse" x2="15.987" gradientTransform="matrix(.8 0 0 -.8 0 32)" y1="27.55" x1="1.6123">
      <stop id="stop718" style="stop-color:#f29429" offset="0"/>
      <stop id="stop720" style="stop-color:#a3560d" offset="1"/>
    </linearGradient>
    <linearGradient id="linearGradient734" y2="23.375" gradientUnits="userSpaceOnUse" x2="15.987" gradientTransform="matrix(.8 0 0 -.8 0 32)" y1="23.375" x1="1.6123">
      <stop id="stop736" style="stop-color:#f29429" offset="0"/>
      <stop id="stop738" style="stop-color:#a3560d" offset="1"/>
    </linearGradient>
    <linearGradient id="linearGradient752" y2="23.544" gradientUnits="userSpaceOnUse" x2="15.987" gradientTransform="matrix(.8 0 0 -.8 0 32)" y1="23.544" x1="1.6123">
      <stop id="stop754" style="stop-color:#f29429" offset="0"/>
      <stop id="stop756" style="stop-color:#a3560d" offset="1"/>
    </linearGradient>
    <linearGradient id="linearGradient770" y2="23.75" gradientUnits="userSpaceOnUse" x2="15.987" gradientTransform="matrix(.8 0 0 -.8 0 32)" y1="23.75" x1="1.6123">
      <stop id="stop772" style="stop-color:#f29429" offset="0"/>
      <stop id="stop774" style="stop-color:#a3560d" offset="1"/>
    </linearGradient>
    <clipPath id="clipPath782">
      <path id="path784" d="m1 1h5v26h-5v-26z" inkscape:connector-curvature="0"/>
    </clipPath>
    <mask id="mask786">
      <g id="g788">
        <g id="g790" clip-path="url(#clipPath782)">
          <path id="path792" style="fill:#000000;fill-opacity:.57810" d="m1 1h5v26h-5v-26z" inkscape:connector-curvature="0"/>
        </g>
      </g>
    </mask>
    <clipPath id="clipPath798">
      <path id="path800" d="m1 1h5v26h-5v-26z" inkscape:connector-curvature="0"/>
    </clipPath>
    <clipPath id="clipPath802">
      <path id="path804" d="m1 1h5v26h-5v-26z" inkscape:connector-curvature="0"/>
    </clipPath>
    <linearGradient id="linearGradient810" y2="-15753" gradientUnits="userSpaceOnUse" x2="-521.78" gradientTransform="matrix(.05568 -.79808 .79808 .05568 12606 464.99)" y1="-15753" x1="-546.94">
      <stop id="stop812" style="stop-color:#ffffff" offset="0"/>
      <stop id="stop814" style="stop-color:#000000" offset="1"/>
    </linearGradient>
    <clipPath id="clipPath842">
      <path id="path844" d="m13 1h5v26h-5v-26z" inkscape:connector-curvature="0"/>
    </clipPath>
    <mask id="mask846">
      <g id="g848">
        <g id="g850" clip-path="url(#clipPath842)">
          <path id="path852" style="fill:#000000;fill-opacity:.21090" d="m13 1h5v26h-5v-26z" inkscape:connector-curvature="0"/>
        </g>
      </g>
    </mask>
    <clipPath id="clipPath858">
      <path id="path860" d="m13 1h5v26h-5v-26z" inkscape:connector-curvature="0"/>
    </clipPath>
    <clipPath id="clipPath862">
      <path id="path864" d="m13 1h5v26h-5v-26z" inkscape:connector-curvature="0"/>
    </clipPath>
    <linearGradient id="linearGradient870" y2="-2.3805" gradientUnits="userSpaceOnUse" x2="2.5181" gradientTransform="matrix(.8 0 0 .8 13.52 26.92)" y1="-27.48" x1="4.2681">
      <stop id="stop872" style="stop-color:#ffffff" offset="0"/>
      <stop id="stop874" style="stop-color:#000000" offset="1"/>
    </linearGradient>
    <clipPath id="clipPath902">
      <path id="path904" d="m3 24h14v4h-14v-4z" inkscape:connector-curvature="0"/>
    </clipPath>
    <mask id="mask906">
      <g id="g908">
        <g id="g910" clip-path="url(#clipPath902)">
          <path id="path912" style="fill:#000000;fill-opacity:.67190" d="m3 24h14v4h-14v-4z" inkscape:connector-curvature="0"/>
        </g>
      </g>
    </mask>
    <clipPath id="clipPath918">
      <path id="path920" d="m3 24h14v4h-14v-4z" inkscape:connector-curvature="0"/>
    </clipPath>
    <clipPath id="clipPath922">
      <path id="path924" d="m3 24h14v4h-14v-4z" inkscape:connector-curvature="0"/>
    </clipPath>
    <linearGradient id="linearGradient952" y2="6.0498" gradientUnits="userSpaceOnUse" x2="20.825" gradientTransform="matrix(.8 0 0 -.8 0 32)" y1="6.0498" x1="3.3501">
      <stop id="stop954" style="stop-color:#f09b3a" offset="0"/>
      <stop id="stop956" style="stop-color:#915217" offset="1"/>
    </linearGradient>
    <linearGradient id="linearGradient970" y2="5.5498" gradientUnits="userSpaceOnUse" x2="21.25" gradientTransform="matrix(.8 0 0 -.8 0 32)" y1="5.5498" x1="3.0498">
      <stop id="stop972" style="stop-color:#e35737" offset="0"/>
      <stop id="stop974" style="stop-color:#ec5937" offset=".1529"/>
      <stop id="stop976" style="stop-color:#f55b37" offset=".25490"/>
      <stop id="stop978" style="stop-color:#7d210c" offset="1"/>
    </linearGradient>
    <linearGradient id="linearGradient994" y2="4.3252" gradientUnits="userSpaceOnUse" x2="20.925" gradientTransform="matrix(.8 0 0 -.8 0 32)" y1="4.3252" x1="3.25">
      <stop id="stop996" style="stop-color:#e35737" offset="0"/>
      <stop id="stop998" style="stop-color:#ec5937" offset=".1529"/>
      <stop id="stop1000" style="stop-color:#f55b37" offset=".25490"/>
      <stop id="stop1002" style="stop-color:#8f260e" offset="1"/>
    </linearGradient>
    <clipPath id="clipPath1012">
      <path id="path1014" d="m3 25h9v2h-9v-2z" inkscape:connector-curvature="0"/>
    </clipPath>
    <mask id="mask1016">
      <g id="g1018">
        <g id="g1020" clip-path="url(#clipPath1012)">
          <path id="path1022" style="fill:#000000;fill-opacity:.48050" d="m3 25h9v2h-9v-2z" inkscape:connector-curvature="0"/>
        </g>
      </g>
    </mask>
    <clipPath id="clipPath1028">
      <path id="path1030" d="m3 25h9v2h-9v-2z" inkscape:connector-curvature="0"/>
    </clipPath>
    <clipPath id="clipPath1032">
      <path id="path1034" d="m3 25h9v2h-9v-2z" inkscape:connector-curvature="0"/>
    </clipPath>
  </defs>
  <g id="g10" transform="matrix(1.25,0,0,-1.25,0,40)">
    <g id="g12">
      <g id="g14">
        <g id="g16">
          <g id="g22">
            <path id="path30" style="fill-rule:evenodd;fill:url(#linearGradient24)" d="m17.879 24.238c0.535-0.613 0.91-1.183 1.121-1.718 0.238-0.641 0.359-1.508 0.359-2.598 0-1.094-0.093-3.668-0.281-7.723-0.183-3.84-0.316-6.121-0.398-6.84-0.055-0.851-0.414-1.691-1.082-2.519-0.879-1.094-2.172-1.867-3.879-2.32-1.172-0.348-2.52-0.52-4.039-0.52-1.52 0-2.852 0.172-4 0.52-1.707 0.453-3 1.226-3.879 2.32-0.668 0.801-1.039 1.64-1.121 2.519-0.078 0.719-0.215 3-0.399 6.84-0.187 4.055-0.281 6.629-0.281 7.723 0 1.09 0.133 1.957 0.398 2.598 0.188 0.535 0.563 1.105 1.122 1.718 0.988 1.067 1.707 2.055 2.16 2.961l6-0.32 6.039 0.32c0.32-0.773 1.043-1.758 2.16-2.961z" inkscape:connector-curvature="0"/>
          </g>
        </g>
      </g>
      <g id="g32">
        <g id="g34">
          <g id="g40">
            <path id="path48" style="fill-rule:evenodd;fill:url(#linearGradient42)" d="m17.281 24.039c0.531-0.559 0.891-1.105 1.078-1.641 0.243-0.636 0.364-1.492 0.364-2.558 0-1.039-0.094-3.52-0.282-7.442-0.16-3.785-0.281-6.011-0.363-6.679-0.078-0.852-0.426-1.664-1.039-2.442-0.824-1.066-2.039-1.824-3.641-2.277-1.277-0.375-2.543-0.535-3.796-0.48-1.204-0.055-2.457 0.105-3.762 0.48-1.602 0.453-2.813 1.211-3.641 2.277-0.613 0.778-0.961 1.59-1.039 2.442-0.055 0.668-0.172 2.894-0.359 6.679-0.188 3.922-0.281 6.403-0.281 7.442 0 1.066 0.121 1.922 0.359 2.558 0.187 0.536 0.535 1.082 1.043 1.641 0.984 1.121 1.664 2.082 2.039 2.883l5.641-0.281 5.679 0.281c0.344-0.777 1.012-1.734 2-2.883z" inkscape:connector-curvature="0"/>
          </g>
        </g>
      </g>
      <g id="g50">
        <g id="g66" mask="url(#mask58)">
          <g id="g78">
            <g id="g80" clip-path="url(#clipPath70)">
              <g id="g82">
                <g id="g86">
                  <g id="g88" clip-path="url(#clipPath74)">
                    <g id="g90">
                      <path id="path92" style="fill-rule:evenodd;fill:#935318" d="m13.801 1.879c1.094 0.187 1.625 0.266 1.597 0.242l-0.039-0.281c-0.48-0.293-1.132-0.574-1.961-0.84-1.277-0.371-2.543-0.535-3.796-0.48h-0.122c-1.839 0.105-3.332 0.375-4.48 0.8-0.559 0.215-0.945 0.414-1.16 0.602-0.668 0.449-0.945 0.797-0.84 1.039 0.105 0.238 0.68 0.465 1.719 0.68 1.093 0.214 2.773 0.32 5.043 0.32 2.343 0.027 3.957-0.082 4.84-0.32 0.503-0.133 0.05-0.176-1.364-0.121-2.023 0.054-3.359-0.028-4-0.239-0.879-0.293-1.25-0.629-1.117-1 0.133-0.402 0.813-0.629 2.039-0.679 1.012-0.055 2.227 0.039 3.641 0.277z" inkscape:connector-curvature="0"/>
                    </g>
                  </g>
                </g>
              </g>
            </g>
          </g>
        </g>
      </g>
      <g id="g94">
        <g id="g110" mask="url(#mask102)">
          <g id="g122">
            <g id="g124" clip-path="url(#clipPath114)">
              <g id="g126">
                <g id="g130">
                  <g id="g132" clip-path="url(#clipPath118)">
                    <g id="g134">
                      <path id="path136" style="fill-rule:evenodd;fill:#ffffff" d="m6.52 22.762c0.347 0 0.507-0.149 0.48-0.442 0-0.082-0.066-0.293-0.199-0.64-0.242-0.481-0.563-0.547-0.961-0.2-0.188 0.188-0.172 0.454 0.039 0.801 0.242 0.321 0.453 0.481 0.641 0.481z" inkscape:connector-curvature="0"/>
                    </g>
                  </g>
                </g>
              </g>
            </g>
          </g>
        </g>
      </g>
      <g id="g138">
        <g id="g154" mask="url(#mask146)">
          <g id="g166">
            <g id="g168" clip-path="url(#clipPath158)">
              <g id="g170">
                <g id="g174">
                  <g id="g176" clip-path="url(#clipPath162)">
                    <g id="g178">
                      <path id="path180" style="fill-rule:evenodd;fill:#ffffff" d="m10.602 22.602c0.476-0.403 0.57-0.801 0.277-1.204-0.266-0.343-0.547-0.519-0.84-0.519-0.133 0-0.184 0.148-0.16 0.441 0.027 0.375 0.043 0.668 0.043 0.879 0 0.641 0.223 0.774 0.68 0.403z" inkscape:connector-curvature="0"/>
                    </g>
                  </g>
                </g>
              </g>
            </g>
          </g>
        </g>
      </g>
      <g id="g182">
        <g id="g198" mask="url(#mask190)">
          <g id="g210">
            <g id="g212" clip-path="url(#clipPath202)">
              <g id="g214">
                <g id="g218">
                  <g id="g220" clip-path="url(#clipPath206)">
                    <g id="g222">
                      <path id="path224" style="fill-rule:evenodd;fill:#ffffff" d="m13.801 20.078c0.586 0 0.707-0.266 0.359-0.797-0.187-0.293-0.492-0.707-0.922-1.242-0.105-0.211-0.265-0.199-0.476 0.039-0.348 0.43-0.535 0.656-0.563 0.684-0.238 0.133-0.187 0.383 0.16 0.758 0.348 0.375 0.829 0.558 1.442 0.558z" inkscape:connector-curvature="0"/>
                    </g>
                  </g>
                </g>
              </g>
            </g>
          </g>
        </g>
      </g>
      <g id="g226">
        <g id="g242" mask="url(#mask234)">
          <g id="g254">
            <g id="g256" clip-path="url(#clipPath246)">
              <g id="g258">
                <g id="g262">
                  <g id="g264" clip-path="url(#clipPath250)">
                    <g id="g266">
                      <path id="path268" style="fill-rule:evenodd;fill:#ffffff" d="m8 19.762c0.32 0 0.414-0.137 0.281-0.403-0.136-0.238-0.386-0.332-0.761-0.281-0.399 0.055-0.52 0.188-0.36 0.402 0.16 0.188 0.442 0.282 0.84 0.282z" inkscape:connector-curvature="0"/>
                    </g>
                  </g>
                </g>
              </g>
            </g>
          </g>
        </g>
      </g>
      <g id="g270">
        <g id="g286" mask="url(#mask278)">
          <g id="g298">
            <g id="g300" clip-path="url(#clipPath290)">
              <g id="g302">
                <g id="g306">
                  <g id="g308" clip-path="url(#clipPath294)">
                    <g id="g310">
                      <path id="path312" style="fill-rule:evenodd;fill:#ffffff" d="m4.719 20c0.347-0.535 0.148-0.973-0.598-1.32-0.269-0.133-0.469-0.067-0.601 0.199 0 0.027-0.094 0.336-0.282 0.922-0.105 0.371 0.055 0.597 0.481 0.679 0.426 0.106 0.761-0.054 1-0.48z" inkscape:connector-curvature="0"/>
                    </g>
                  </g>
                </g>
              </g>
            </g>
          </g>
        </g>
      </g>
      <g id="g314">
        <g id="g330" mask="url(#mask322)">
          <g id="g342">
            <g id="g344" clip-path="url(#clipPath334)">
              <g id="g346">
                <g id="g350">
                  <g id="g352" clip-path="url(#clipPath338)">
                    <g id="g354">
                      <path id="path356" style="fill-rule:evenodd;fill:#ffffff" d="m3.039 5.801c0.375 0 0.535-0.254 0.481-0.762-0.079-0.504-0.321-0.734-0.719-0.68-0.403 0.028-0.563 0.266-0.481 0.719 0.078 0.481 0.321 0.723 0.719 0.723z" inkscape:connector-curvature="0"/>
                    </g>
                  </g>
                </g>
              </g>
            </g>
          </g>
        </g>
      </g>
      <g id="g358">
        <g id="g374" mask="url(#mask366)">
          <g id="g386">
            <g id="g388" clip-path="url(#clipPath378)">
              <g id="g390">
                <g id="g394">
                  <g id="g396" clip-path="url(#clipPath382)">
                    <g id="g398">
                      <path id="path400" style="fill-rule:evenodd;fill:#ffffff" d="m10.121 3.16c0.184-0.265 0.238-0.48 0.16-0.64-0.054-0.106-0.215-0.227-0.48-0.36-0.453-0.265-1.016 0-1.68 0.801-0.266 0.293-0.066 0.504 0.598 0.641 0.668 0.132 1.136-0.016 1.402-0.442z" inkscape:connector-curvature="0"/>
                    </g>
                  </g>
                </g>
              </g>
            </g>
          </g>
        </g>
      </g>
      <g id="g402">
        <g id="g418" mask="url(#mask410)">
          <g id="g430">
            <g id="g432" clip-path="url(#clipPath422)">
              <g id="g434">
                <g id="g438">
                  <g id="g440" clip-path="url(#clipPath426)">
                    <g id="g442">
                      <path id="path444" style="fill-rule:evenodd;fill:#ffffff" d="m15.238 11.801c0.242-0.242 0.336-0.547 0.282-0.922-0.079-0.399-0.321-0.707-0.719-0.918-0.321-0.188-0.508-0.082-0.563 0.32 0.028 0.559 0.028 0.918 0 1.078-0.023 0.266 0.055 0.481 0.242 0.641 0.215 0.16 0.465 0.094 0.758-0.199z" inkscape:connector-curvature="0"/>
                    </g>
                  </g>
                </g>
              </g>
            </g>
          </g>
        </g>
      </g>
      <g id="g446">
        <g id="g462" mask="url(#mask454)">
          <g id="g474">
            <g id="g476" clip-path="url(#clipPath466)">
              <g id="g478">
                <g id="g482">
                  <g id="g484" clip-path="url(#clipPath470)">
                    <g id="g486">
                      <path id="path488" style="fill-rule:evenodd;fill:#ffffff" d="m15.84 8.281c0.375-0.16 0.586-0.347 0.64-0.562 0.028-0.211-0.093-0.426-0.359-0.641-0.215-0.156-0.414-0.183-0.601-0.078-0.215 0.188-0.387 0.32-0.52 0.398-0.238 0.11-0.254 0.321-0.039 0.641 0.211 0.293 0.504 0.375 0.879 0.242z" inkscape:connector-curvature="0"/>
                    </g>
                  </g>
                </g>
              </g>
            </g>
          </g>
        </g>
      </g>
      <g id="g490">
        <g id="g506" mask="url(#mask498)">
          <g id="g518">
            <g id="g520" clip-path="url(#clipPath510)">
              <g id="g522">
                <g id="g526">
                  <g id="g528" clip-path="url(#clipPath514)">
                    <g id="g530">
                      <path id="path532" style="fill-rule:evenodd;fill:#ffffff" d="m16.922 19.48c0.316-0.16 0.426-0.585 0.316-1.281-0.105-0.664-0.383-1.078-0.84-1.238-0.371-0.133-0.57 0.027-0.597 0.48 0.078 0.614 0.078 1.051 0 1.321-0.106 0.371-0.055 0.636 0.16 0.797 0.238 0.16 0.559 0.136 0.961-0.079z" inkscape:connector-curvature="0"/>
                    </g>
                  </g>
                </g>
              </g>
            </g>
          </g>
        </g>
      </g>
      <g id="g534">
        <g id="g550" mask="url(#mask542)">
          <g id="g562">
            <g id="g564" clip-path="url(#clipPath554)">
              <g id="g566">
                <g id="g570">
                  <g id="g572" clip-path="url(#clipPath558)">
                    <g id="g574">
                      <path id="path576" style="fill-rule:evenodd;fill:#ffffff" d="m18.441 16.441c-0.054-0.242-0.187-0.601-0.402-1.082-0.051-0.238-0.144-0.304-0.277-0.199l-0.641 0.641c-0.266 0.265-0.281 0.547-0.043 0.84 0.215 0.265 0.496 0.414 0.844 0.437 0.453 0.027 0.625-0.183 0.519-0.637z" inkscape:connector-curvature="0"/>
                    </g>
                  </g>
                </g>
              </g>
            </g>
          </g>
        </g>
      </g>
      <g id="g578">
        <g id="g594" mask="url(#mask586)">
          <g id="g606">
            <g id="g608" clip-path="url(#clipPath598)">
              <g id="g610">
                <g id="g614">
                  <g id="g616" clip-path="url(#clipPath602)">
                    <g id="g618">
                      <path id="path620" style="fill-rule:evenodd;fill:#ffffff" d="m14.84 24.559c0.375-0.051 0.441-0.36 0.199-0.918-0.238-0.559-0.613-0.68-1.117-0.36-0.75 0.453-0.442 0.879 0.918 1.278z" inkscape:connector-curvature="0"/>
                    </g>
                  </g>
                </g>
              </g>
            </g>
          </g>
        </g>
      </g>
      <g id="g622">
        <g id="g624">
          <g id="g630">
            <path id="path644" style="fill-rule:evenodd;fill:url(#linearGradient632)" d="m1.199 18.961c1.469-0.613 3.039-0.828 4.723-0.641 2.637 0.293 4.051 0.442 4.238 0.442 1.762-0.082 2.785-0.321 3.078-0.723l-0.117-13.437c-0.32 0.105-0.867 0.183-1.641 0.238-1.574 0.105-3.546 0-5.921-0.32-1.094-0.161-2.079 0.132-2.957 0.882l-1 1.157-0.403 12.402z" inkscape:connector-curvature="0"/>
          </g>
        </g>
      </g>
      <g id="g646">
        <g id="g648">
          <g id="g654">
            <path id="path668" style="fill-rule:evenodd;fill:url(#linearGradient656)" d="m1.84 18.039c1.254-0.531 2.613-0.719 4.082-0.559 2.238 0.239 3.437 0.36 3.598 0.36 1.519-0.051 2.402-0.254 2.64-0.602l-0.082-11.758c-0.266 0.106-0.73 0.172-1.398 0.2-1.36 0.109-3.067 0.015-5.121-0.282-0.934-0.132-1.774 0.122-2.52 0.762l-0.879 1.039-0.32 10.84z" inkscape:connector-curvature="0"/>
          </g>
        </g>
      </g>
      <g id="g670">
        <g id="g672">
          <g id="g678">
            <path id="path686" style="fill-rule:evenodd;fill:url(#linearGradient680)" d="m6.641 10.441c1.066-0.054 2.16-0.586 3.281-1.601 1.012-0.879 1.73-1.828 2.156-2.84v-0.52c-0.266 0.106-0.73 0.172-1.398 0.2-1.36 0.109-3.067 0.015-5.121-0.282-1.254-0.183-2.293 0.293-3.118 1.442 0.211 0.961 0.692 1.785 1.438 2.48 0.828 0.801 1.746 1.172 2.762 1.121z" inkscape:connector-curvature="0"/>
          </g>
        </g>
      </g>
      <g id="g688">
        <g id="g690">
          <g id="g696">
            <path id="path704" style="fill-rule:evenodd;fill:url(#linearGradient698)" d="m2.078 9.961-0.078 1.879 2.52-3.602-0.481-0.679-1.961 2.402z" inkscape:connector-curvature="0"/>
          </g>
        </g>
      </g>
      <g id="g706">
        <g id="g708">
          <g id="g714">
            <path id="path722" style="fill-rule:evenodd;fill:url(#linearGradient716)" d="m12.121 9.359-2.199-1.64-0.402 0.32 0.601 0.801c0.348 0.453 1.012 1.574 2 3.359v-2.84z" inkscape:connector-curvature="0"/>
          </g>
        </g>
      </g>
      <g id="g724">
        <g id="g726">
          <g id="g732">
            <path id="path740" style="fill-rule:evenodd;fill:url(#linearGradient734)" d="m5.762 8.559c-0.082 0.054-0.442 0.535-1.082 1.441-0.641 0.961-1.559 2.719-2.758 5.281l-0.082 2.758 0.922-0.32c0.316-1.145 0.586-1.946 0.797-2.399 0.32-0.773 1.308-2.894 2.961-6.359l-0.758-0.402z" inkscape:connector-curvature="0"/>
          </g>
        </g>
      </g>
      <g id="g742">
        <g id="g744">
          <g id="g750">
            <path id="path758" style="fill-rule:evenodd;fill:url(#linearGradient752)" d="m7.398 8.801c0-0.348-0.144-0.36-0.437-0.039-0.293 0.316-0.469 0.703-0.52 1.16l-0.761 7.519 2.519 0.36c-0.265-1.067-0.398-1.813-0.398-2.242 0-0.532-0.133-2.786-0.403-6.758z" inkscape:connector-curvature="0"/>
          </g>
        </g>
      </g>
      <g id="g760">
        <g id="g762">
          <g id="g768">
            <path id="path776" style="fill-rule:evenodd;fill:url(#linearGradient770)" d="m11.238 17.641c0.508-0.133 0.817-0.266 0.922-0.403v-2.797c-0.48-0.586-0.879-1.203-1.199-1.839l-2.121-4.243-0.602 0.719v0.242l0.641 1.68c0.027 0.078 0.816 2.293 2.359 6.641z" inkscape:connector-curvature="0"/>
          </g>
        </g>
      </g>
      <g id="g778">
        <g id="g794" mask="url(#mask786)">
          <g id="g816">
            <g id="g818" clip-path="url(#clipPath798)">
              <g id="g820">
                <g id="g824">
                  <g id="g826" clip-path="url(#clipPath802)">
                    <g id="g828">
                      <g id="g830">
                        <g id="g832">
                          <g id="g834">
                            <path id="path836" style="fill-rule:evenodd;fill:url(#linearGradient810)" d="m4.441 26.52 1.559 0.398c0-0.211-0.16-0.797-0.48-1.758-0.106-0.348-0.399-1.066-0.879-2.16-0.375-0.855-0.586-1.48-0.641-1.879-0.16-1.387-0.188-6.203-0.078-14.441 0.023-2.266 0.183-3.907 0.476-4.918-0.293 0.156-0.679 0.531-1.16 1.117-0.293 0.375-0.586 0.828-0.879 1.359l-0.32 0.68-0.238 16.801c0.027 0.402 0.238 0.883 0.64 1.441 0.481 0.559 0.786 0.961 0.918 1.199 0.586 0.961 0.946 1.68 1.082 2.161z" inkscape:connector-curvature="0"/>
                          </g>
                        </g>
                      </g>
                    </g>
                  </g>
                </g>
              </g>
            </g>
          </g>
        </g>
      </g>
      <g id="g838">
        <g id="g854" mask="url(#mask846)">
          <g id="g876">
            <g id="g878" clip-path="url(#clipPath858)">
              <g id="g880">
                <g id="g884">
                  <g id="g886" clip-path="url(#clipPath862)">
                    <g id="g888">
                      <g id="g890">
                        <g id="g892">
                          <g id="g894">
                            <path id="path896" style="fill-rule:evenodd;fill:url(#linearGradient870)" d="m15.078 26.52c0.137-0.481 0.508-1.2 1.121-2.161 0.16-0.238 0.469-0.64 0.922-1.199 0.399-0.558 0.613-1.039 0.641-1.441l-0.282-16.801-0.32-0.68c-0.293-0.531-0.586-0.984-0.879-1.359-0.48-0.586-0.855-0.961-1.121-1.117 0.266 1.011 0.414 2.652 0.442 4.918 0.05 1.922 0.066 4.613 0.039 8.082 0 3.703-0.039 5.824-0.121 6.359-0.055 0.399-0.266 1.024-0.641 1.879-0.481 1.094-0.774 1.812-0.879 2.16-0.32 0.961-0.48 1.547-0.48 1.758l1.558-0.398z" inkscape:connector-curvature="0"/>
                          </g>
                        </g>
                      </g>
                    </g>
                  </g>
                </g>
              </g>
            </g>
          </g>
        </g>
      </g>
      <g id="g898">
        <g id="g914" mask="url(#mask906)">
          <g id="g926">
            <g id="g928" clip-path="url(#clipPath918)">
              <g id="g930">
                <g id="g934">
                  <g id="g936" clip-path="url(#clipPath922)">
                    <g id="g938">
                      <path id="path940" style="fill-rule:evenodd;fill:#955519" d="m15.719 27.199c0.082-0.238 0.32-0.625 0.722-1.16-0.375-0.344-0.949-0.641-1.722-0.879-1.227-0.375-2.719-0.535-4.481-0.48-3.304 0.105-5.636 0.707-7 1.8l0.442 0.719 6-0.32 6.039 0.32z" inkscape:connector-curvature="0"/>
                    </g>
                  </g>
                </g>
              </g>
            </g>
          </g>
        </g>
      </g>
      <g id="g942">
        <g id="g944">
          <g id="g950">
            <path id="path958" style="fill-rule:evenodd;fill:url(#linearGradient952)" d="m16.641 27.16c0-0.453-0.68-0.84-2.039-1.16-1.364-0.32-3-0.48-4.922-0.48-1.946 0-3.602 0.16-4.961 0.48-1.36 0.32-2.039 0.707-2.039 1.16s0.679 0.84 2.039 1.16c1.359 0.321 3.015 0.481 4.961 0.481 1.922 0 3.558-0.16 4.922-0.481 1.359-0.32 2.039-0.707 2.039-1.16z" inkscape:connector-curvature="0"/>
          </g>
        </g>
      </g>
      <g id="g960">
        <g id="g962">
          <g id="g968">
            <path id="path980" style="fill-rule:evenodd;fill:url(#linearGradient970)" d="m17 27.559c0-0.454-0.707-0.825-2.121-1.118-1.414-0.32-3.133-0.48-5.16-0.48-2 0-3.707 0.16-5.117 0.48-1.442 0.293-2.161 0.664-2.161 1.118 0 0.429 0.719 0.8 2.161 1.121 1.41 0.32 3.117 0.48 5.117 0.48 2.027 0 3.75-0.16 5.16-0.48 1.414-0.293 2.121-0.668 2.121-1.121z" inkscape:connector-curvature="0"/>
          </g>
        </g>
      </g>
      <path id="path982" style="fill-rule:evenodd;fill:#0304d6" d="m16.762 27.84c-0.028-0.32-0.735-0.602-2.121-0.84-1.36-0.215-3.016-0.32-4.961-0.32-1.918 0-3.559 0.105-4.918 0.32-1.387 0.238-2.11 0.52-2.16 0.84v2.68h14.16v-2.68z" inkscape:connector-curvature="0"/>
      <g id="g984">
        <g id="g986">
          <g id="g992">
            <path id="path1004" style="fill-rule:evenodd;fill:url(#linearGradient994)" d="m16.762 30.68v-2.879c-0.055-0.348-0.762-0.668-2.121-0.961-1.442-0.293-3.094-0.442-4.961-0.442-1.84 0-3.481 0.149-4.918 0.442-1.387 0.293-2.11 0.613-2.16 0.961v2.879h14.16z" inkscape:connector-curvature="0"/>
          </g>
        </g>
      </g>
      <path id="path1006" style="fill-rule:evenodd;fill:#f25a37" d="m16.762 30.602c0-0.375-0.696-0.696-2.082-0.961-1.387-0.266-3.055-0.403-5-0.403-1.946 0-3.614 0.137-5 0.403-1.387 0.265-2.078 0.586-2.078 0.961 0 0.371 0.691 0.703 2.078 1 1.386 0.265 3.054 0.398 5 0.398 1.945 0 3.613-0.133 5-0.398 1.386-0.297 2.082-0.629 2.082-1z" inkscape:connector-curvature="0"/>
      <g id="g1008">
        <g id="g1024" mask="url(#mask1016)">
          <g id="g1036">
            <g id="g1038" clip-path="url(#clipPath1028)">
              <g id="g1040">
                <g id="g1044">
                  <g id="g1046" clip-path="url(#clipPath1032)">
                    <g id="g1048">
                      <path id="path1050" style="fill-rule:evenodd;fill:#ffffff" d="m3.801 26.48c0.504-0.16 1.332-0.32 2.48-0.48 1.438-0.188 3.039-0.281 4.801-0.281-0.055-0.133-0.922-0.172-2.602-0.117-1.121 0.023-2.199 0.132-3.242 0.316-0.773 0.137-1.293 0.27-1.558 0.402-0.188 0.055-0.254 0.106-0.2 0.16 0.055 0.055 0.161 0.055 0.321 0z" inkscape:connector-curvature="0"/>
                    </g>
                  </g>
                </g>
              </g>
            </g>
          </g>
        </g>
      </g>
      <path id="path1052" style="fill-rule:evenodd;fill:#f9e2c9" d="m3.641 2.922c0.558-0.32 0.894-0.645 1-0.961 0.105-0.27 0.039-0.402-0.2-0.402-0.402 0-0.906 0.293-1.519 0.882-0.297 0.293-0.32 0.493-0.082 0.598 0.238 0.109 0.508 0.066 0.801-0.117z" inkscape:connector-curvature="0"/>
      <path id="path1054" style="fill-rule:evenodd;fill:#f9e2c9" d="m5.801 1.801c0.371-0.082 0.48-0.215 0.32-0.403-0.187-0.21-0.348-0.265-0.48-0.16-0.133 0.11-0.215 0.242-0.243 0.403-0.023 0.187 0.11 0.238 0.403 0.16z" inkscape:connector-curvature="0"/>
    </g>
  </g>
<metadata><rdf:RDF><cc:Work><dc:format>image/svg+xml</dc:format><dc:type rdf:resource="http://purl.org/dc/dcmitype/StillImage"/><cc:license rdf:resource="http://creativecommons.org/licenses/publicdomain/"/><dc:publisher><cc:Agent rdf:about="http://openclipart.org/"><dc:title>Openclipart</dc:title></cc:Agent></dc:publisher></cc:Work><cc:License rdf:about="http://creativecommons.org/licenses/publicdomain/"><cc:permits rdf:resource="http://creativecommons.org/ns#Reproduction"/><cc:permits rdf:resource="http://creativecommons.org/ns#Distribution"/><cc:permits rdf:resource="http://creativecommons.org/ns#DerivativeWorks"/></cc:License></rdf:RDF></metadata></svg>
